STARTCHAR uni0000
ENCODING 0
SWIDTH 500 0
DWIDTH 6 0
BBX 1 1 5 -2
BITMAP
00
ENDCHAR
STARTCHAR uni0001
ENCODING 1
SWIDTH 500 0
DWIDTH 6 0
BBX 3 6 3 -2
BITMAP
E0
80
80
80
80
80
ENDCHAR
STARTCHAR uni0002
ENCODING 2
SWIDTH 500 0
DWIDTH 6 0
BBX 4 6 0 -2
BITMAP
F0
10
10
10
10
10
ENDCHAR
STARTCHAR uni0003
ENCODING 3
SWIDTH 500 0
DWIDTH 6 0
BBX 3 7 3 3
BITMAP
80
80
80
80
80
80
E0
ENDCHAR
STARTCHAR uni0004
ENCODING 4
SWIDTH 500 0
DWIDTH 6 0
BBX 4 7 0 3
BITMAP
10
10
10
10
10
10
F0
ENDCHAR
STARTCHAR uni0005
ENCODING 5
SWIDTH 500 0
DWIDTH 6 0
BBX 1 12 3 -2
BITMAP
80
80
80
80
80
80
80
80
80
80
80
80
ENDCHAR
STARTCHAR uni0006
ENCODING 6
SWIDTH 500 0
DWIDTH 6 0
BBX 6 1 0 3
BITMAP
FC
ENDCHAR
STARTCHAR uni0007
ENCODING 7
SWIDTH 500 0
DWIDTH 6 0
BBX 4 5 1 2
BITMAP
60
F0
F0
F0
60
ENDCHAR
STARTCHAR uni0008
ENCODING 8
SWIDTH 500 0
DWIDTH 6 0
BBX 6 12 0 -2
BITMAP
FC
FC
FC
CC
84
84
84
CC
FC
FC
FC
FC
ENDCHAR
STARTCHAR uni000B
ENCODING 11
SWIDTH 500 0
DWIDTH 6 0
BBX 5 9 1 0
BITMAP
38
18
18
28
20
60
90
90
60
ENDCHAR
STARTCHAR uni000C
ENCODING 12
SWIDTH 500 0
DWIDTH 6 0
BBX 5 9 1 0
BITMAP
70
88
88
70
20
F8
20
20
20
ENDCHAR
STARTCHAR uni000E
ENCODING 14
SWIDTH 500 0
DWIDTH 6 0
BBX 5 9 1 0
BITMAP
18
68
58
68
48
48
58
D8
C0
ENDCHAR
STARTCHAR uni000F
ENCODING 15
SWIDTH 500 0
DWIDTH 6 0
BBX 5 9 1 0
BITMAP
A8
A8
50
50
D8
50
50
A8
A8
ENDCHAR
STARTCHAR uni0010
ENCODING 16
SWIDTH 500 0
DWIDTH 6 0
BBX 6 12 0 -2
BITMAP
10
10
10
10
10
10
FC
10
10
10
10
10
ENDCHAR
STARTCHAR uni0011
ENCODING 17
SWIDTH 500 0
DWIDTH 6 0
BBX 5 9 1 0
BITMAP
08
18
38
78
F8
78
38
18
08
ENDCHAR
STARTCHAR uni0012
ENCODING 18
SWIDTH 500 0
DWIDTH 6 0
BBX 3 10 2 0
BITMAP
40
E0
40
40
40
40
40
40
E0
40
ENDCHAR
STARTCHAR uni0013
ENCODING 19
SWIDTH 500 0
DWIDTH 6 0
BBX 3 10 2 0
BITMAP
A0
A0
A0
A0
A0
A0
A0
00
A0
A0
ENDCHAR
STARTCHAR uni0014
ENCODING 20
SWIDTH 500 0
DWIDTH 6 0
BBX 5 10 1 0
BITMAP
78
A8
A8
A8
68
28
28
28
28
28
ENDCHAR
STARTCHAR uni0015
ENCODING 21
SWIDTH 500 0
DWIDTH 6 0
BBX 6 7 0 3
BITMAP
10
10
10
10
10
10
FC
ENDCHAR
STARTCHAR uni0016
ENCODING 22
SWIDTH 500 0
DWIDTH 6 0
BBX 6 6 0 -2
BITMAP
FC
10
10
10
10
10
ENDCHAR
STARTCHAR uni0017
ENCODING 23
SWIDTH 500 0
DWIDTH 6 0
BBX 4 12 0 -2
BITMAP
10
10
10
10
10
10
F0
10
10
10
10
10
ENDCHAR
STARTCHAR uni0018
ENCODING 24
SWIDTH 500 0
DWIDTH 6 0
BBX 3 10 2 0
BITMAP
40
E0
40
40
40
40
40
40
40
40
ENDCHAR
STARTCHAR uni0019
ENCODING 25
SWIDTH 500 0
DWIDTH 6 0
BBX 3 12 3 -2
BITMAP
80
80
80
80
80
80
E0
80
80
80
80
80
ENDCHAR
STARTCHAR uni001A
ENCODING 26
SWIDTH 500 0
DWIDTH 6 0
BBX 5 3 1 3
BITMAP
10
F8
10
ENDCHAR
STARTCHAR uni001B
ENCODING 27
SWIDTH 500 0
DWIDTH 6 0
BBX 5 3 1 3
BITMAP
40
F8
40
ENDCHAR
STARTCHAR uni001C
ENCODING 28
SWIDTH 500 0
DWIDTH 6 0
BBX 5 5 1 2
BITMAP
80
80
80
80
F8
ENDCHAR
STARTCHAR uni001D
ENCODING 29
SWIDTH 500 0
DWIDTH 6 0
BBX 5 3 1 3
BITMAP
50
F8
50
ENDCHAR
STARTCHAR uni001E
ENCODING 30
SWIDTH 500 0
DWIDTH 6 0
BBX 5 9 1 0
BITMAP
20
20
20
70
70
70
F8
F8
F8
ENDCHAR
STARTCHAR uni001F
ENCODING 31
SWIDTH 500 0
DWIDTH 6 0
BBX 5 9 1 0
BITMAP
F8
F8
F8
70
70
70
20
20
20
ENDCHAR
STARTCHAR space
ENCODING 32
SWIDTH 333 0
DWIDTH 4 0
BBX 0 0 0 0
BITMAP
ENDCHAR
STARTCHAR exclam
ENCODING 33
SWIDTH 333 0
DWIDTH 4 0
BBX 1 10 1 0
BITMAP
80
80
80
80
80
80
80
00
80
80
ENDCHAR
STARTCHAR quotedbl
ENCODING 34
SWIDTH 375 0
DWIDTH 4 0
BBX 3 2 1 8
BITMAP
A0
A0
ENDCHAR
STARTCHAR numbersign
ENCODING 35
SWIDTH 750 0
DWIDTH 6 0
BBX 6 10 0 0
BITMAP
14
14
14
7C
28
28
FC
50
50
50
ENDCHAR
STARTCHAR dollar
ENCODING 36
SWIDTH 597 0
DWIDTH 6 0
BBX 5 11 1 -1
BITMAP
20
70
A8
A0
A0
70
28
28
A8
70
20
ENDCHAR
STARTCHAR percent
ENCODING 37
SWIDTH 875 0
DWIDTH 10 0
BBX 8 10 1 0
BITMAP
60
91
92
64
08
10
26
49
89
06
ENDCHAR
STARTCHAR ampersand
ENCODING 38
SWIDTH 687 0
DWIDTH 8 0
BBX 7 9 1 0
BITMAP
30
48
48
30
50
8A
8C
8C
72
ENDCHAR
STARTCHAR quotesingle
ENCODING 39
SWIDTH 283 0
DWIDTH 4 0
BBX 1 2 2 8
BITMAP
80
80
ENDCHAR
STARTCHAR parenleft
ENCODING 40
SWIDTH 375 0
DWIDTH 5 0
BBX 3 11 1 -1
BITMAP
20
40
40
80
80
80
80
80
40
40
20
ENDCHAR
STARTCHAR parenright
ENCODING 41
SWIDTH 375 0
DWIDTH 5 0
BBX 3 11 1 -1
BITMAP
80
40
40
20
20
20
20
20
40
40
80
ENDCHAR
STARTCHAR asterisk
ENCODING 42
SWIDTH 500 0
DWIDTH 6 0
BBX 5 4 1 2
BITMAP
20
F8
20
50
ENDCHAR
STARTCHAR plus
ENCODING 43
SWIDTH 625 0
DWIDTH 6 0
BBX 5 5 1 2
BITMAP
20
20
F8
20
20
ENDCHAR
STARTCHAR comma
ENCODING 44
SWIDTH 333 0
DWIDTH 4 0
BBX 2 2 1 -1
BITMAP
40
80
ENDCHAR
STARTCHAR hyphen
ENCODING 45
SWIDTH 625 0
DWIDTH 6 0
BBX 5 1 1 4
BITMAP
F8
ENDCHAR
STARTCHAR period
ENCODING 46
SWIDTH 333 0
DWIDTH 4 0
BBX 1 2 1 -1
BITMAP
80
80
ENDCHAR
STARTCHAR slash
ENCODING 47
SWIDTH 416 0
DWIDTH 6 0
BBX 6 12 0 -2
BITMAP
04
04
08
08
10
10
20
20
40
40
80
80
ENDCHAR
STARTCHAR zero
ENCODING 48
SWIDTH 574 0
DWIDTH 6 0
BBX 5 10 1 0
BITMAP
70
88
88
88
88
88
88
88
88
70
ENDCHAR
STARTCHAR one
ENCODING 49
SWIDTH 574 0
DWIDTH 6 0
BBX 2 10 2 0
BITMAP
40
C0
40
40
40
40
40
40
40
40
ENDCHAR
STARTCHAR two
ENCODING 50
SWIDTH 574 0
DWIDTH 6 0
BBX 5 10 1 0
BITMAP
70
88
88
08
10
20
40
80
80
F8
ENDCHAR
STARTCHAR three
ENCODING 51
SWIDTH 574 0
DWIDTH 6 0
BBX 5 10 1 0
BITMAP
70
88
08
08
70
08
08
08
88
70
ENDCHAR
STARTCHAR four
ENCODING 52
SWIDTH 574 0
DWIDTH 6 0
BBX 5 10 1 0
BITMAP
10
30
30
50
50
90
90
F8
10
10
ENDCHAR
STARTCHAR five
ENCODING 53
SWIDTH 574 0
DWIDTH 6 0
BBX 5 10 1 0
BITMAP
F8
80
80
80
F0
88
08
08
88
70
ENDCHAR
STARTCHAR six
ENCODING 54
SWIDTH 574 0
DWIDTH 6 0
BBX 5 10 1 0
BITMAP
70
88
80
80
F0
88
88
88
88
70
ENDCHAR
STARTCHAR seven
ENCODING 55
SWIDTH 574 0
DWIDTH 6 0
BBX 5 10 1 0
BITMAP
F8
08
08
10
10
10
20
20
20
20
ENDCHAR
STARTCHAR eight
ENCODING 56
SWIDTH 574 0
DWIDTH 6 0
BBX 5 10 1 0
BITMAP
70
88
88
88
70
88
88
88
88
70
ENDCHAR
STARTCHAR nine
ENCODING 57
SWIDTH 574 0
DWIDTH 6 0
BBX 5 10 1 0
BITMAP
70
88
88
88
88
78
08
08
88
70
ENDCHAR
STARTCHAR colon
ENCODING 58
SWIDTH 333 0
DWIDTH 4 0
BBX 1 7 2 1
BITMAP
80
80
00
00
00
80
80
ENDCHAR
STARTCHAR semicolon
ENCODING 59
SWIDTH 333 0
DWIDTH 4 0
BBX 2 8 1 0
BITMAP
40
40
00
00
00
40
40
80
ENDCHAR
STARTCHAR less
ENCODING 60
SWIDTH 625 0
DWIDTH 8 0
BBX 5 9 2 0
BITMAP
08
10
20
40
80
40
20
10
08
ENDCHAR
STARTCHAR equal
ENCODING 61
SWIDTH 625 0
DWIDTH 6 0
BBX 5 4 1 2
BITMAP
F8
00
00
F8
ENDCHAR
STARTCHAR greater
ENCODING 62
SWIDTH 625 0
DWIDTH 8 0
BBX 5 9 1 0
BITMAP
80
40
20
10
08
10
20
40
80
ENDCHAR
STARTCHAR question
ENCODING 63
SWIDTH 541 0
DWIDTH 6 0
BBX 5 10 1 0
BITMAP
70
88
88
08
10
20
20
00
20
20
ENDCHAR
STARTCHAR at
ENCODING 64
BBX 10 10 1 0
BITMAP
1F00
2080
4540
8B40
9240
9240
9480
8B00
4000
3F00
ENDCHAR
STARTCHAR A
ENCODING 65
SWIDTH 645 0
DWIDTH 8 0
BBX 7 10 1 0
BITMAP
10
10
28
28
44
44
7C
82
82
82
ENDCHAR
STARTCHAR B
ENCODING 66
SWIDTH 676 0
DWIDTH 8 0
BBX 6 10 1 0
BITMAP
F8
84
84
84
F8
84
84
84
84
F8
ENDCHAR
STARTCHAR C
ENCODING 67
SWIDTH 717 0
DWIDTH 9 0
BBX 7 10 1 0
BITMAP
3C
42
80
80
80
80
80
80
42
3C
ENDCHAR
STARTCHAR D
ENCODING 68
SWIDTH 721 0
DWIDTH 8 0
BBX 6 10 1 0
BITMAP
F0
88
84
84
84
84
84
84
88
F0
ENDCHAR
STARTCHAR E
ENCODING 69
SWIDTH 625 0
DWIDTH 8 0
BBX 6 10 1 0
BITMAP
FC
80
80
80
FC
80
80
80
80
FC
ENDCHAR
STARTCHAR F
ENCODING 70
SWIDTH 595 0
DWIDTH 7 0
BBX 6 10 1 0
BITMAP
FC
80
80
80
F8
80
80
80
80
80
ENDCHAR
STARTCHAR G
ENCODING 71
SWIDTH 769 0
DWIDTH 9 0
BBX 7 10 1 0
BITMAP
3C
42
80
80
9E
82
82
82
46
3A
ENDCHAR
STARTCHAR H
ENCODING 72
SWIDTH 730 0
DWIDTH 8 0
BBX 6 10 1 0
BITMAP
84
84
84
84
FC
84
84
84
84
84
ENDCHAR
STARTCHAR I
ENCODING 73
SWIDTH 269 0
DWIDTH 3 0
BBX 1 10 1 0
BITMAP
80
80
80
80
80
80
80
80
80
80
ENDCHAR
STARTCHAR J
ENCODING 74
SWIDTH 500 0
DWIDTH 6 0
BBX 5 10 0 0
BITMAP
08
08
08
08
08
08
08
88
88
70
ENDCHAR
STARTCHAR K
ENCODING 75
SWIDTH 634 0
DWIDTH 8 0
BBX 7 10 1 0
BITMAP
84
88
90
A0
C0
A0
90
88
84
82
ENDCHAR
STARTCHAR L
ENCODING 76
SWIDTH 542 0
DWIDTH 7 0
BBX 6 10 1 0
BITMAP
80
80
80
80
80
80
80
80
80
FC
ENDCHAR
STARTCHAR M
ENCODING 77
SWIDTH 812 0
DWIDTH 11 0
BBX 9 10 1 0
BITMAP
8080
C180
C180
A280
A280
9480
9480
8880
8880
8080
ENDCHAR
STARTCHAR N
ENCODING 78
SWIDTH 699 0
DWIDTH 9 0
BBX 7 10 1 0
BITMAP
C2
C2
A2
A2
92
92
8A
8A
86
86
ENDCHAR
STARTCHAR O
ENCODING 79
SWIDTH 769 0
DWIDTH 9 0
BBX 7 10 1 0
BITMAP
38
44
82
82
82
82
82
82
44
38
ENDCHAR
STARTCHAR P
ENCODING 80
SWIDTH 636 0
DWIDTH 8 0
BBX 6 10 1 0
BITMAP
F8
84
84
84
84
F8
80
80
80
80
ENDCHAR
STARTCHAR Q
ENCODING 81
SWIDTH 773 0
DWIDTH 9 0
BBX 7 10 1 0
BITMAP
38
44
82
82
82
82
82
8A
44
3A
ENDCHAR
STARTCHAR R
ENCODING 82
SWIDTH 666 0
DWIDTH 8 0
BBX 6 10 1 0
BITMAP
F8
84
84
84
F8
84
84
84
84
84
ENDCHAR
STARTCHAR S
ENCODING 83
SWIDTH 632 0
DWIDTH 8 0
BBX 6 10 1 0
BITMAP
78
84
84
80
60
18
04
84
84
78
ENDCHAR
STARTCHAR T
ENCODING 84
SWIDTH 582 0
DWIDTH 8 0
BBX 7 10 1 0
BITMAP
FE
10
10
10
10
10
10
10
10
10
ENDCHAR
STARTCHAR U
ENCODING 85
SWIDTH 710 0
DWIDTH 8 0
BBX 6 10 1 0
BITMAP
84
84
84
84
84
84
84
84
84
78
ENDCHAR
STARTCHAR V
ENCODING 86
SWIDTH 599 0
DWIDTH 8 0
BBX 7 10 1 0
BITMAP
82
82
82
44
44
44
28
28
10
10
ENDCHAR
STARTCHAR W
ENCODING 87
SWIDTH 894 0
DWIDTH 10 0
BBX 9 10 1 0
BITMAP
8880
8880
8880
5500
5500
5500
5500
2200
2200
2200
ENDCHAR
STARTCHAR X
ENCODING 88
SWIDTH 625 0
DWIDTH 8 0
BBX 7 10 1 0
BITMAP
82
82
44
28
10
10
28
44
82
82
ENDCHAR
STARTCHAR Y
ENCODING 89
SWIDTH 625 0
DWIDTH 8 0
BBX 7 10 1 0
BITMAP
82
82
44
44
28
28
10
10
10
10
ENDCHAR
STARTCHAR Z
ENCODING 90
SWIDTH 625 0
DWIDTH 8 0
BBX 6 10 1 0
BITMAP
FC
04
08
10
10
20
40
40
80
FC
ENDCHAR
STARTCHAR bracketleft
ENCODING 91
SWIDTH 500 0
DWIDTH 6 0
BBX 3 11 2 -1
BITMAP
E0
80
80
80
80
80
80
80
80
80
E0
ENDCHAR
STARTCHAR backslash
ENCODING 92
SWIDTH 916 0
DWIDTH 11 0
BBX 11 10 0 0
BITMAP
4440
4440
4440
FFE0
2A80
2A80
2A80
1100
1100
1100
ENDCHAR
STARTCHAR bracketright
ENCODING 93
SWIDTH 500 0
DWIDTH 6 0
BBX 3 11 1 -1
BITMAP
E0
20
20
20
20
20
20
20
20
20
E0
ENDCHAR
STARTCHAR asciicircum
ENCODING 94
SWIDTH 541 0
DWIDTH 6 0
BBX 5 3 1 7
BITMAP
20
50
88
ENDCHAR
STARTCHAR underscore
ENCODING 95
SWIDTH 500 0
DWIDTH 6 0
BBX 5 1 1 0
BITMAP
F8
ENDCHAR
STARTCHAR grave
ENCODING 96
SWIDTH 333 0
DWIDTH 4 0
BBX 2 2 1 8
BITMAP
80
40
ENDCHAR
STARTCHAR a
ENCODING 97
SWIDTH 562 0
DWIDTH 7 0
BBX 5 7 1 0
BITMAP
70
88
08
78
88
98
68
ENDCHAR
STARTCHAR b
ENCODING 98
SWIDTH 605 0
DWIDTH 7 0
BBX 5 10 1 0
BITMAP
80
80
80
F0
88
88
88
88
88
F0
ENDCHAR
STARTCHAR c
ENCODING 99
SWIDTH 572 0
DWIDTH 7 0
BBX 5 7 1 0
BITMAP
70
88
80
80
80
88
70
ENDCHAR
STARTCHAR d
ENCODING 100
SWIDTH 605 0
DWIDTH 7 0
BBX 5 10 1 0
BITMAP
08
08
08
78
88
88
88
88
88
78
ENDCHAR
STARTCHAR e
ENCODING 101
SWIDTH 567 0
DWIDTH 7 0
BBX 5 7 1 0
BITMAP
70
88
88
F8
80
88
70
ENDCHAR
STARTCHAR f
ENCODING 102
SWIDTH 341 0
DWIDTH 3 0
BBX 3 10 0 0
BITMAP
20
40
40
E0
40
40
40
40
40
40
ENDCHAR
STARTCHAR g
ENCODING 103
SWIDTH 605 0
DWIDTH 7 0
BBX 5 9 1 -2
BITMAP
78
88
88
88
88
78
08
88
70
ENDCHAR
STARTCHAR h
ENCODING 104
SWIDTH 571 0
DWIDTH 7 0
BBX 5 10 1 0
BITMAP
80
80
80
F0
88
88
88
88
88
88
ENDCHAR
STARTCHAR i
ENCODING 105
SWIDTH 241 0
DWIDTH 3 0
BBX 1 10 1 0
BITMAP
80
80
00
80
80
80
80
80
80
80
ENDCHAR
STARTCHAR j
ENCODING 106
SWIDTH 241 0
DWIDTH 3 0
BBX 2 12 0 -2
BITMAP
40
40
00
40
40
40
40
40
40
40
40
80
ENDCHAR
STARTCHAR k
ENCODING 107
SWIDTH 500 0
DWIDTH 6 0
BBX 5 10 1 0
BITMAP
80
80
80
88
90
A0
C0
A0
90
88
ENDCHAR
STARTCHAR l
ENCODING 108
SWIDTH 231 0
DWIDTH 3 0
BBX 1 10 1 0
BITMAP
80
80
80
80
80
80
80
80
80
80
ENDCHAR
STARTCHAR m
ENCODING 109
SWIDTH 861 0
DWIDTH 11 0
BBX 9 7 1 0
BITMAP
F700
8880
8880
8880
8880
8880
8880
ENDCHAR
STARTCHAR n
ENCODING 110
SWIDTH 580 0
DWIDTH 7 0
BBX 5 7 1 0
BITMAP
F0
88
88
88
88
88
88
ENDCHAR
STARTCHAR o
ENCODING 111
SWIDTH 605 0
DWIDTH 7 0
BBX 5 7 1 0
BITMAP
70
88
88
88
88
88
70
ENDCHAR
STARTCHAR p
ENCODING 112
SWIDTH 605 0
DWIDTH 7 0
BBX 5 9 1 -2
BITMAP
F0
88
88
88
88
88
F0
80
80
ENDCHAR
STARTCHAR q
ENCODING 113
SWIDTH 605 0
DWIDTH 7 0
BBX 5 9 1 -2
BITMAP
78
88
88
88
88
88
78
08
08
ENDCHAR
STARTCHAR r
ENCODING 114
SWIDTH 333 0
DWIDTH 4 0
BBX 3 7 1 0
BITMAP
A0
C0
80
80
80
80
80
ENDCHAR
STARTCHAR s
ENCODING 115
SWIDTH 525 0
DWIDTH 7 0
BBX 5 7 1 0
BITMAP
70
88
80
70
08
88
70
ENDCHAR
STARTCHAR t
ENCODING 116
SWIDTH 313 0
DWIDTH 3 0
BBX 3 9 0 0
BITMAP
40
40
E0
40
40
40
40
40
20
ENDCHAR
STARTCHAR u
ENCODING 117
SWIDTH 570 0
DWIDTH 7 0
BBX 5 7 1 0
BITMAP
88
88
88
88
88
88
78
ENDCHAR
STARTCHAR v
ENCODING 118
SWIDTH 500 0
DWIDTH 6 0
BBX 5 7 1 0
BITMAP
88
88
88
50
50
20
20
ENDCHAR
STARTCHAR w
ENCODING 119
SWIDTH 750 0
DWIDTH 10 0
BBX 9 7 1 0
BITMAP
8880
8880
5500
5500
5500
2200
2200
ENDCHAR
STARTCHAR x
ENCODING 120
SWIDTH 500 0
DWIDTH 7 0
BBX 5 7 1 0
BITMAP
88
88
50
20
50
88
88
ENDCHAR
STARTCHAR y
ENCODING 121
SWIDTH 500 0
DWIDTH 7 0
BBX 5 9 1 -2
BITMAP
88
88
88
88
50
50
20
20
C0
ENDCHAR
STARTCHAR z
ENCODING 122
SWIDTH 500 0
DWIDTH 7 0
BBX 5 7 1 0
BITMAP
F8
08
10
20
40
80
F8
ENDCHAR
STARTCHAR braceleft
ENCODING 123
SWIDTH 500 0
DWIDTH 6 0
BBX 4 12 1 -2
BITMAP
10
20
20
20
20
C0
20
20
20
20
20
10
ENDCHAR
STARTCHAR bar
ENCODING 124
SWIDTH 500 0
DWIDTH 6 0
BBX 1 11 2 -1
BITMAP
80
80
80
80
80
80
80
80
80
80
80
ENDCHAR
STARTCHAR braceright
ENCODING 125
SWIDTH 500 0
DWIDTH 6 0
BBX 4 12 1 -2
BITMAP
80
40
40
40
40
30
40
40
40
40
40
80
ENDCHAR
STARTCHAR asciitilde
ENCODING 126
SWIDTH 791 0
DWIDTH 9 0
BBX 7 2 1 4
BITMAP
72
8C
ENDCHAR
STARTCHAR uniAC01
ENCODING 44033
BBX 11 11 1 -1
BITMAP
FC80
0480
0480
08E0
1080
E080
0000
7F80
0080
0080
0080
ENDCHAR
STARTCHAR uniAC02
ENCODING 44034
BBX 11 11 1 -1
BITMAP
FC80
0480
04E0
0880
1080
E080
0000
F780
1080
1080
1080
ENDCHAR
STARTCHAR uniAC03
ENCODING 44035
BBX 11 11 1 -1
BITMAP
FC80
0480
04E0
0880
1080
E080
0080
F200
1200
1500
1880
ENDCHAR
STARTCHAR uniAC04
ENCODING 44036
BBX 11 11 1 -1
BITMAP
FC80
0480
0480
04E0
0880
1080
E080
0080
4000
4000
7F80
ENDCHAR
STARTCHAR uniAC05
ENCODING 44037
BBX 11 11 1 -1
BITMAP
FC80
0480
04E0
0880
1080
E080
0000
4F80
4200
4500
7880
ENDCHAR
STARTCHAR uniAC06
ENCODING 44038
BBX 11 11 1 -1
BITMAP
FC80
0480
04E0
0880
1080
E080
0200
4FC0
4300
4480
7B00
ENDCHAR
STARTCHAR uniAC07
ENCODING 44039
BBX 11 11 1 -1
BITMAP
FC80
0480
0480
08E0
1080
E080
0000
7F80
4000
4000
7F80
ENDCHAR
STARTCHAR uniAC08
ENCODING 44040
BBX 11 11 1 -1
BITMAP
FC80
0480
04E0
0880
F080
0000
7F80
0080
7F80
4000
7F80
ENDCHAR
STARTCHAR uniAC09
ENCODING 44041
BBX 11 11 1 -1
BITMAP
FC80
0480
04E0
0880
F080
0080
7F80
0880
7880
4080
7C80
ENDCHAR
STARTCHAR uniAC0A
ENCODING 44042
BBX 11 11 1 -1
BITMAP
FC80
0480
04E0
0880
F080
0080
7B80
0A80
7A80
4280
7F80
ENDCHAR
STARTCHAR uniAC0B
ENCODING 44043
BBX 11 11 1 -1
BITMAP
FC80
0480
04E0
0880
F080
0080
7A80
0A80
7B80
4280
7F80
ENDCHAR
STARTCHAR uniAC0C
ENCODING 44044
BBX 11 11 1 -1
BITMAP
FC80
0480
04E0
0880
F080
0080
7900
0900
7900
4280
7C40
ENDCHAR
STARTCHAR uniAC0D
ENCODING 44045
BBX 11 11 1 -1
BITMAP
FC80
0480
04E0
0880
F080
0080
7B80
0A00
7B80
4200
7F80
ENDCHAR
STARTCHAR uniAC0E
ENCODING 44046
BBX 11 11 1 -1
BITMAP
FC80
0480
04E0
0880
F080
0080
7FC0
0A80
7A80
4280
7FC0
ENDCHAR
STARTCHAR uniAC0F
ENCODING 44047
BBX 11 11 1 -1
BITMAP
FC80
0480
04E0
0880
F080
0080
7200
1FC0
7300
4480
7B00
ENDCHAR
STARTCHAR uniAC10
ENCODING 44048
BBX 11 11 1 -1
BITMAP
FC80
0480
0480
08E0
1080
E080
0000
7F80
4080
4080
7F80
ENDCHAR
STARTCHAR uniAC11
ENCODING 44049
BBX 11 11 1 -1
BITMAP
FC80
0480
04E0
0880
1080
E080
0000
4080
7F80
4080
7F80
ENDCHAR
STARTCHAR uniAC12
ENCODING 44050
BBX 11 11 1 -1
BITMAP
FC80
0480
04E0
0880
1080
E080
0000
4900
7900
4A80
7C40
ENDCHAR
STARTCHAR uniAC13
ENCODING 44051
BBX 11 11 1 -1
BITMAP
FC80
0480
04E0
0880
1080
E080
0080
0400
0400
1B00
60C0
ENDCHAR
STARTCHAR uniAC14
ENCODING 44052
BBX 11 11 1 -1
BITMAP
FC80
0480
04E0
0880
1080
E080
0000
1100
1100
2A80
C440
ENDCHAR
STARTCHAR uniAC15
ENCODING 44053
BBX 11 11 1 -1
BITMAP
FC80
0480
0480
08E0
1080
E080
0000
3F00
4080
4080
3F00
ENDCHAR
STARTCHAR uniAC16
ENCODING 44054
BBX 11 11 1 -1
BITMAP
FC80
0480
0480
08E0
1080
E080
0000
7F80
0C00
1200
6180
ENDCHAR
STARTCHAR uniAC17
ENCODING 44055
BBX 11 11 1 -1
BITMAP
FC80
0480
04E0
0880
F080
0080
1E00
0000
7F80
0C00
7380
ENDCHAR
STARTCHAR uniAC18
ENCODING 44056
BBX 11 11 1 -1
BITMAP
FC80
0480
04E0
0880
F080
0080
0000
7F80
0080
7F80
0080
ENDCHAR
STARTCHAR uniAC19
ENCODING 44057
BBX 11 11 1 -1
BITMAP
FC80
0480
04E0
0880
F080
0080
7F80
4000
7F80
4000
7F80
ENDCHAR
STARTCHAR uniAC1A
ENCODING 44058
BBX 11 11 1 -1
BITMAP
FC80
0480
04E0
0880
1080
E080
0000
7F80
1200
1200
7F80
ENDCHAR
STARTCHAR uniAC1B
ENCODING 44059
BBX 11 11 1 -1
BITMAP
FC80
0480
04E0
0880
F080
0080
0400
7FC0
1100
2080
1F00
ENDCHAR
STARTCHAR uniAC1C
ENCODING 44060
BBX 9 11 1 -1
BITMAP
F480
1480
1480
1480
1480
1780
2480
2480
4480
8480
0480
ENDCHAR
STARTCHAR uniAC1D
ENCODING 44061
BBX 9 11 1 -1
BITMAP
F480
1480
1780
1480
2480
C480
0000
7F80
0080
0080
0080
ENDCHAR
STARTCHAR uniAC1E
ENCODING 44062
BBX 9 11 1 -1
BITMAP
F480
1480
1780
1480
2480
C480
0000
F780
1080
1080
1080
ENDCHAR
STARTCHAR uniAC1F
ENCODING 44063
BBX 9 11 1 -1
BITMAP
F480
1480
1780
1480
2480
C480
0080
F200
1200
1500
1880
ENDCHAR
STARTCHAR uniAC20
ENCODING 44064
BBX 9 11 1 -1
BITMAP
F480
1480
1480
1780
1480
2480
C480
0080
4000
4000
7F80
ENDCHAR
STARTCHAR uniAC21
ENCODING 44065
BBX 9 11 1 -1
BITMAP
F480
1480
1780
1480
2480
C480
0000
4F80
4200
4500
7880
ENDCHAR
STARTCHAR uniAC22
ENCODING 44066
BBX 10 11 1 -1
BITMAP
F480
1480
1780
1480
2480
C480
0200
4FC0
4300
4480
7B00
ENDCHAR
STARTCHAR uniAC23
ENCODING 44067
BBX 9 11 1 -1
BITMAP
F480
1480
1780
1480
2480
C480
0000
7F80
4000
4000
7F80
ENDCHAR
STARTCHAR uniAC24
ENCODING 44068
BBX 9 11 1 -1
BITMAP
F480
1480
1780
2480
C480
0480
7F80
0080
7F80
4000
7F80
ENDCHAR
STARTCHAR uniAC25
ENCODING 44069
BBX 9 11 1 -1
BITMAP
F480
1480
1780
2480
C480
0480
7F80
0880
7880
4080
7C80
ENDCHAR
STARTCHAR uniAC26
ENCODING 44070
BBX 9 11 1 -1
BITMAP
F480
1480
1780
2480
C480
0480
7B80
0A80
7A80
4280
7F80
ENDCHAR
STARTCHAR uniAC27
ENCODING 44071
BBX 9 11 1 -1
BITMAP
F480
1480
1780
2480
C480
0480
7A80
0A80
7B80
4280
7F80
ENDCHAR
STARTCHAR uniAC28
ENCODING 44072
BBX 10 11 1 -1
BITMAP
F480
1480
1780
2480
C480
0480
7900
0900
7900
4280
7C40
ENDCHAR
STARTCHAR uniAC29
ENCODING 44073
BBX 9 11 1 -1
BITMAP
F480
1480
1780
2480
C480
0480
7B80
0A00
7B80
4200
7F80
ENDCHAR
STARTCHAR uniAC2A
ENCODING 44074
BBX 10 11 1 -1
BITMAP
F480
1480
1780
2480
C480
0480
7FC0
0A80
7A80
4280
7FC0
ENDCHAR
STARTCHAR uniAC2B
ENCODING 44075
BBX 10 11 1 -1
BITMAP
F480
1480
1780
2480
C480
0480
7200
1FC0
7300
4480
7B00
ENDCHAR
STARTCHAR uniAC2C
ENCODING 44076
BBX 9 11 1 -1
BITMAP
F480
1480
1780
1480
2480
C480
0000
7F80
4080
4080
7F80
ENDCHAR
STARTCHAR uniAC2D
ENCODING 44077
BBX 9 11 1 -1
BITMAP
F480
1480
1780
1480
2480
C480
0000
4080
7F80
4080
7F80
ENDCHAR
STARTCHAR uniAC2E
ENCODING 44078
BBX 10 11 1 -1
BITMAP
F480
1480
1780
1480
2480
C480
0000
4900
7900
4A80
7C40
ENDCHAR
STARTCHAR uniAC2F
ENCODING 44079
BBX 9 11 1 -1
BITMAP
F480
1480
1780
1480
2480
C480
0080
0800
0800
3600
C180
ENDCHAR
STARTCHAR uniAC30
ENCODING 44080
BBX 10 11 1 -1
BITMAP
F480
1480
1780
1480
2480
C480
0000
1100
1100
2A80
C440
ENDCHAR
STARTCHAR uniAC31
ENCODING 44081
BBX 9 11 1 -1
BITMAP
F480
1480
1780
1480
2480
C480
0080
3F00
4080
4080
3F00
ENDCHAR
STARTCHAR uniAC32
ENCODING 44082
BBX 9 11 1 -1
BITMAP
F480
1480
1780
1480
2480
C480
0000
7F80
0C00
1200
6180
ENDCHAR
STARTCHAR uniAC33
ENCODING 44083
BBX 9 11 1 -1
BITMAP
F480
1480
1780
2480
C480
0480
1E00
0000
7F80
0C00
7380
ENDCHAR
STARTCHAR uniAC34
ENCODING 44084
BBX 9 11 1 -1
BITMAP
F480
1480
1780
2480
C480
0480
0000
7F80
0080
7F80
0080
ENDCHAR
STARTCHAR uniAC35
ENCODING 44085
BBX 9 11 1 -1
BITMAP
F480
1480
1780
2480
C480
0480
7F80
4000
7F80
4000
7F80
ENDCHAR
STARTCHAR uniAC36
ENCODING 44086
BBX 9 11 1 -1
BITMAP
F480
1480
1780
1480
2480
C480
0000
7F80
1200
1200
7F80
ENDCHAR
STARTCHAR uniAC37
ENCODING 44087
BBX 10 11 1 -1
BITMAP
F480
1480
1780
2480
C480
0480
0800
FFC0
2100
4080
3F00
ENDCHAR
STARTCHAR uniAC38
ENCODING 44088
BBX 11 11 1 -1
BITMAP
FC80
0480
0480
04E0
0480
0880
0880
10E0
2080
C080
0080
ENDCHAR
STARTCHAR uniAC39
ENCODING 44089
BBX 11 11 1 -1
BITMAP
FC80
04E0
0480
0880
10E0
E080
0000
7F80
0080
0080
0080
ENDCHAR
STARTCHAR uniAC3A
ENCODING 44090
BBX 11 11 1 -1
BITMAP
FC80
04E0
0480
0880
10E0
E080
0000
F780
1080
1080
1080
ENDCHAR
STARTCHAR uniAC3B
ENCODING 44091
BBX 11 11 1 -1
BITMAP
FC80
04E0
0480
0880
10E0
E080
0080
F200
1200
1500
1880
ENDCHAR
STARTCHAR uniAC3C
ENCODING 44092
BBX 11 11 1 -1
BITMAP
FC80
0480
04E0
0480
0880
10E0
E080
0080
4000
4000
7F80
ENDCHAR
STARTCHAR uniAC3D
ENCODING 44093
BBX 11 11 1 -1
BITMAP
FC80
04E0
0480
0880
10E0
E080
0000
4F80
4200
4500
7880
ENDCHAR
STARTCHAR uniAC3E
ENCODING 44094
BBX 11 11 1 -1
BITMAP
FC80
04E0
0480
0880
10E0
E080
0200
4FC0
4300
4480
7B00
ENDCHAR
STARTCHAR uniAC3F
ENCODING 44095
BBX 11 11 1 -1
BITMAP
FC80
04E0
0480
0880
10E0
E080
0000
7F80
4000
4000
7F80
ENDCHAR
STARTCHAR uniAC40
ENCODING 44096
BBX 11 11 1 -1
BITMAP
FC80
04E0
0480
0880
F0E0
0080
7F80
0080
7F80
4000
7F80
ENDCHAR
STARTCHAR uniAC41
ENCODING 44097
BBX 11 11 1 -1
BITMAP
FC80
04E0
0480
0880
F0E0
0080
7F80
0880
7880
4080
7C80
ENDCHAR
STARTCHAR uniAC42
ENCODING 44098
BBX 11 11 1 -1
BITMAP
FC80
04E0
0480
0880
F0E0
0080
7B80
0A80
7A80
4280
7F80
ENDCHAR
STARTCHAR uniAC43
ENCODING 44099
BBX 11 11 1 -1
BITMAP
FC80
04E0
0480
0880
F0E0
0080
7A80
0A80
7B80
4280
7F80
ENDCHAR
STARTCHAR uniAC44
ENCODING 44100
BBX 11 11 1 -1
BITMAP
FC80
04E0
0480
0880
F0E0
0080
7900
0900
7900
4280
7C40
ENDCHAR
STARTCHAR uniAC45
ENCODING 44101
BBX 11 11 1 -1
BITMAP
FC80
04E0
0480
0880
F0E0
0080
7B80
0A00
7B80
4200
7F80
ENDCHAR
STARTCHAR uniAC46
ENCODING 44102
BBX 11 11 1 -1
BITMAP
FC80
04E0
0480
0880
F0E0
0080
7FC0
0A80
7A80
4280
7FC0
ENDCHAR
STARTCHAR uniAC47
ENCODING 44103
BBX 11 11 1 -1
BITMAP
FC80
04E0
0480
0880
F0E0
0080
7200
1FC0
7300
4480
7B00
ENDCHAR
STARTCHAR uniAC48
ENCODING 44104
BBX 11 11 1 -1
BITMAP
FC80
04E0
0480
0880
10E0
E080
0000
7F80
4080
4080
7F80
ENDCHAR
STARTCHAR uniAC49
ENCODING 44105
BBX 11 11 1 -1
BITMAP
FC80
04E0
0480
0880
10E0
E080
0000
4080
7F80
4080
7F80
ENDCHAR
STARTCHAR uniAC4A
ENCODING 44106
BBX 11 11 1 -1
BITMAP
FC80
04E0
0480
0880
10E0
E080
0000
4900
7900
4A80
7C40
ENDCHAR
STARTCHAR uniAC4B
ENCODING 44107
BBX 11 11 1 -1
BITMAP
FC80
04E0
0480
0880
10E0
E080
0080
0400
0400
1B00
60C0
ENDCHAR
STARTCHAR uniAC4C
ENCODING 44108
BBX 11 11 1 -1
BITMAP
FC80
04E0
0480
0880
10E0
E080
0000
1100
1100
2A80
C440
ENDCHAR
STARTCHAR uniAC4D
ENCODING 44109
BBX 11 11 1 -1
BITMAP
FC80
04E0
0480
0880
10E0
E080
0080
3F00
4080
4080
3F00
ENDCHAR
STARTCHAR uniAC4E
ENCODING 44110
BBX 11 11 1 -1
BITMAP
FC80
04E0
0480
0880
10E0
E080
0000
7F80
0C00
1200
6180
ENDCHAR
STARTCHAR uniAC4F
ENCODING 44111
BBX 11 11 1 -1
BITMAP
FC80
04E0
0480
0880
F0E0
0080
1E00
0000
7F80
0C00
7380
ENDCHAR
STARTCHAR uniAC50
ENCODING 44112
BBX 11 11 1 -1
BITMAP
FC80
04E0
0480
0880
F0E0
0080
0000
7F80
0080
7F80
0080
ENDCHAR
STARTCHAR uniAC51
ENCODING 44113
BBX 11 11 1 -1
BITMAP
FC80
04E0
0480
0880
F0E0
0080
7F80
4000
7F80
4000
7F80
ENDCHAR
STARTCHAR uniAC52
ENCODING 44114
BBX 11 11 1 -1
BITMAP
FC80
04E0
0480
0880
10E0
E080
0000
7F80
1200
1200
7F80
ENDCHAR
STARTCHAR uniAC53
ENCODING 44115
BBX 11 11 1 -1
BITMAP
FC80
04E0
0480
0880
F0E0
0080
0400
7FC0
1100
2080
1F00
ENDCHAR
STARTCHAR uniAC54
ENCODING 44116
BBX 9 11 1 -1
BITMAP
F480
1480
1480
1780
1480
1480
2480
2780
4480
8480
0480
ENDCHAR
STARTCHAR uniAC55
ENCODING 44117
BBX 9 11 1 -1
BITMAP
F480
1780
1480
1480
2780
C480
0000
7F80
0080
0080
0080
ENDCHAR
STARTCHAR uniAC56
ENCODING 44118
BBX 9 11 1 -1
BITMAP
F480
1780
1480
1480
2780
C480
0000
F780
1080
1080
1080
ENDCHAR
STARTCHAR uniAC57
ENCODING 44119
BBX 9 11 1 -1
BITMAP
F480
1780
1480
1480
2780
C480
0080
F200
1200
1500
1880
ENDCHAR
STARTCHAR uniAC58
ENCODING 44120
BBX 9 11 1 -1
BITMAP
F480
1780
1480
1480
1780
2480
C480
0080
4000
4000
7F80
ENDCHAR
STARTCHAR uniAC59
ENCODING 44121
BBX 9 11 1 -1
BITMAP
F480
1780
1480
1480
2780
C480
0000
4F80
4200
4500
7880
ENDCHAR
STARTCHAR uniAC5A
ENCODING 44122
BBX 10 11 1 -1
BITMAP
F480
1780
1480
1480
2780
C480
0200
4FC0
4300
4480
7B00
ENDCHAR
STARTCHAR uniAC5B
ENCODING 44123
BBX 9 11 1 -1
BITMAP
F480
1780
1480
1480
2780
C480
0000
7F80
4000
4000
7F80
ENDCHAR
STARTCHAR uniAC5C
ENCODING 44124
BBX 9 11 1 -1
BITMAP
F480
1780
1480
2480
C780
0480
7F80
0080
7F80
4000
7F80
ENDCHAR
STARTCHAR uniAC5D
ENCODING 44125
BBX 9 11 1 -1
BITMAP
F480
1780
1480
2480
C780
0480
7F80
0880
7880
4080
7C80
ENDCHAR
STARTCHAR uniAC5E
ENCODING 44126
BBX 9 11 1 -1
BITMAP
F480
1780
1480
2480
C780
0480
7B80
0A80
7A80
4280
7F80
ENDCHAR
STARTCHAR uniAC5F
ENCODING 44127
BBX 9 11 1 -1
BITMAP
F480
1780
1480
2480
C780
0480
7A80
0A80
7B80
4280
7F80
ENDCHAR
STARTCHAR uniAC60
ENCODING 44128
BBX 10 11 1 -1
BITMAP
F480
1780
1480
2480
C780
0480
7900
0900
7900
4280
7C40
ENDCHAR
STARTCHAR uniAC61
ENCODING 44129
BBX 9 11 1 -1
BITMAP
F480
1780
1480
2480
C780
0480
7B80
0A00
7B80
4200
7F80
ENDCHAR
STARTCHAR uniAC62
ENCODING 44130
BBX 10 11 1 -1
BITMAP
F480
1780
1480
2480
C780
0480
7FC0
0A80
7A80
4280
7FC0
ENDCHAR
STARTCHAR uniAC63
ENCODING 44131
BBX 10 11 1 -1
BITMAP
F480
1780
1480
2480
C780
0480
7200
1FC0
7300
4480
7B00
ENDCHAR
STARTCHAR uniAC64
ENCODING 44132
BBX 9 11 1 -1
BITMAP
F480
1780
1480
1480
2780
C480
0000
7F80
4080
4080
7F80
ENDCHAR
STARTCHAR uniAC65
ENCODING 44133
BBX 9 11 1 -1
BITMAP
F480
1780
1480
1480
2780
C480
0000
4080
7F80
4080
7F80
ENDCHAR
STARTCHAR uniAC66
ENCODING 44134
BBX 10 11 1 -1
BITMAP
F480
1780
1480
1480
2780
C480
0000
4900
7900
4A80
7C40
ENDCHAR
STARTCHAR uniAC67
ENCODING 44135
BBX 9 11 1 -1
BITMAP
F480
1780
1480
1480
2780
C480
0080
0800
0800
3600
C180
ENDCHAR
STARTCHAR uniAC68
ENCODING 44136
BBX 10 11 1 -1
BITMAP
F480
1780
1480
1480
2780
C480
0000
1100
1100
2A80
C440
ENDCHAR
STARTCHAR uniAC69
ENCODING 44137
BBX 9 11 1 -1
BITMAP
F480
1780
1480
1480
2780
C480
0080
3F00
4080
4080
3F00
ENDCHAR
STARTCHAR uniAC6A
ENCODING 44138
BBX 9 11 1 -1
BITMAP
F480
1780
1480
1480
2780
C480
0000
7F80
0C00
1200
6180
ENDCHAR
STARTCHAR uniAC6B
ENCODING 44139
BBX 9 11 1 -1
BITMAP
F480
1780
1480
2480
C780
0480
1E00
0000
7F80
0C00
7380
ENDCHAR
STARTCHAR uniAC6C
ENCODING 44140
BBX 9 11 1 -1
BITMAP
F480
1780
1480
2480
C780
0480
0000
7F80
0080
7F80
0080
ENDCHAR
STARTCHAR uniAC6D
ENCODING 44141
BBX 9 11 1 -1
BITMAP
F480
1780
1480
2480
C780
0480
7F80
4000
7F80
4000
7F80
ENDCHAR
STARTCHAR uniAC6E
ENCODING 44142
BBX 9 11 1 -1
BITMAP
F480
1780
1480
1480
2780
C480
0000
7F80
1200
1200
7F80
ENDCHAR
STARTCHAR uniAC6F
ENCODING 44143
BBX 10 11 1 -1
BITMAP
F480
1780
1480
2480
C780
0480
0800
FFC0
2100
4080
3F00
ENDCHAR
STARTCHAR uniAC70
ENCODING 44144
BBX 9 11 1 -1
BITMAP
FC80
0480
0480
0480
0780
0880
0880
1080
2080
C080
0080
ENDCHAR
STARTCHAR uniAC71
ENCODING 44145
BBX 9 11 1 -1
BITMAP
FC80
0480
0780
0880
1080
E080
0000
7F80
0080
0080
0080
ENDCHAR
STARTCHAR uniAC72
ENCODING 44146
BBX 9 11 1 -1
BITMAP
FC80
0480
0780
0880
1080
E080
0000
F780
1080
1080
1080
ENDCHAR
STARTCHAR uniAC73
ENCODING 44147
BBX 9 11 1 -1
BITMAP
FC80
0480
0780
0880
1080
E080
0080
F200
1200
1500
1880
ENDCHAR
STARTCHAR uniAC74
ENCODING 44148
BBX 9 11 1 -1
BITMAP
FC80
0480
0480
0780
0880
1080
E080
0080
4000
4000
7F80
ENDCHAR
STARTCHAR uniAC75
ENCODING 44149
BBX 9 11 1 -1
BITMAP
FC80
0480
0780
0880
1080
E080
0000
4F80
4200
4500
7880
ENDCHAR
STARTCHAR uniAC76
ENCODING 44150
BBX 10 11 1 -1
BITMAP
FC80
0480
0780
0880
1080
E080
0200
4FC0
4300
4480
7B00
ENDCHAR
STARTCHAR uniAC77
ENCODING 44151
BBX 9 11 1 -1
BITMAP
FC80
0480
0780
0880
1080
E080
0000
7F80
4000
4000
7F80
ENDCHAR
STARTCHAR uniAC78
ENCODING 44152
BBX 9 11 1 -1
BITMAP
FC80
0480
0780
0880
F080
0000
7F80
0080
7F80
4000
7F80
ENDCHAR
STARTCHAR uniAC79
ENCODING 44153
BBX 9 11 1 -1
BITMAP
FC80
0480
0780
0880
F080
0080
7F80
0880
7880
4080
7C80
ENDCHAR
STARTCHAR uniAC7A
ENCODING 44154
BBX 9 11 1 -1
BITMAP
FC80
0480
0780
0880
F080
0080
7B80
0A80
7A80
4280
7F80
ENDCHAR
STARTCHAR uniAC7B
ENCODING 44155
BBX 9 11 1 -1
BITMAP
FC80
0480
0780
0880
F080
0080
7A80
0A80
7B80
4280
7F80
ENDCHAR
STARTCHAR uniAC7C
ENCODING 44156
BBX 10 11 1 -1
BITMAP
FC80
0480
0780
0880
F080
0080
7900
0900
7900
4280
7C40
ENDCHAR
STARTCHAR uniAC7D
ENCODING 44157
BBX 9 11 1 -1
BITMAP
FC80
0480
0780
0880
F080
0080
7B80
0A00
7B80
4200
7F80
ENDCHAR
STARTCHAR uniAC7E
ENCODING 44158
BBX 10 11 1 -1
BITMAP
FC80
0480
0780
0880
F080
0080
7FC0
0A80
7A80
4280
7FC0
ENDCHAR
STARTCHAR uniAC7F
ENCODING 44159
BBX 10 11 1 -1
BITMAP
FC80
0480
0780
0880
F080
0080
7200
1FC0
7300
4480
7B00
ENDCHAR
STARTCHAR uniAC80
ENCODING 44160
BBX 9 11 1 -1
BITMAP
FC80
0480
0780
0880
1080
E080
0000
7F80
4080
4080
7F80
ENDCHAR
STARTCHAR uniAC81
ENCODING 44161
BBX 9 11 1 -1
BITMAP
FC80
0480
0780
0880
1080
E080
0000
4080
7F80
4080
7F80
ENDCHAR
STARTCHAR uniAC82
ENCODING 44162
BBX 10 11 1 -1
BITMAP
FC80
0480
0780
0880
1080
E080
0000
4900
7900
4A80
7C40
ENDCHAR
STARTCHAR uniAC83
ENCODING 44163
BBX 10 11 1 -1
BITMAP
FC80
0480
0780
0880
1080
E080
0080
0400
0400
1B00
60C0
ENDCHAR
STARTCHAR uniAC84
ENCODING 44164
BBX 10 11 1 -1
BITMAP
FC80
0480
0780
0880
1080
E080
0000
1100
1100
2A80
C440
ENDCHAR
STARTCHAR uniAC85
ENCODING 44165
BBX 9 11 1 -1
BITMAP
FC80
0480
0780
0880
1080
E080
0080
3F00
4080
4080
3F00
ENDCHAR
STARTCHAR uniAC86
ENCODING 44166
BBX 9 11 1 -1
BITMAP
FC80
0480
0780
0880
1080
E080
0000
7F80
0C00
1200
6180
ENDCHAR
STARTCHAR uniAC87
ENCODING 44167
BBX 9 11 1 -1
BITMAP
FC80
0480
0780
0880
F080
0080
1E00
0000
7F80
0C00
7380
ENDCHAR
STARTCHAR uniAC88
ENCODING 44168
BBX 9 11 1 -1
BITMAP
FC80
0480
0780
0880
F080
0080
0000
7F80
0080
7F80
0080
ENDCHAR
STARTCHAR uniAC89
ENCODING 44169
BBX 9 11 1 -1
BITMAP
FC80
0480
0780
0880
F080
0080
7F80
4000
7F80
4000
7F80
ENDCHAR
STARTCHAR uniAC8A
ENCODING 44170
BBX 9 11 1 -1
BITMAP
FC80
0480
0780
0880
1080
E080
0000
7F80
1200
1200
7F80
ENDCHAR
STARTCHAR uniAC8B
ENCODING 44171
BBX 10 11 1 -1
BITMAP
FC80
0480
0780
0880
F080
0080
0400
7FC0
1100
2080
1F00
ENDCHAR
STARTCHAR uniAC8C
ENCODING 44172
BBX 9 11 1 -1
BITMAP
F280
1280
1280
1280
1E80
1280
2280
2280
4280
8280
0280
ENDCHAR
STARTCHAR uniAC8D
ENCODING 44173
BBX 9 11 1 -1
BITMAP
F280
1280
1E80
1280
2280
C280
0000
7F80
0080
0080
0080
ENDCHAR
STARTCHAR uniAC8E
ENCODING 44174
BBX 9 11 1 -1
BITMAP
F280
1280
1E80
1280
2280
C280
0000
F780
1080
1080
1080
ENDCHAR
STARTCHAR uniAC8F
ENCODING 44175
BBX 9 11 1 -1
BITMAP
F280
1280
1E80
1280
2280
C280
0080
F200
1200
1500
1880
ENDCHAR
STARTCHAR uniAC90
ENCODING 44176
BBX 9 11 1 -1
BITMAP
F280
1280
1280
1E80
1280
2280
C280
0280
4000
4000
7F80
ENDCHAR
STARTCHAR uniAC91
ENCODING 44177
BBX 9 11 1 -1
BITMAP
F280
1280
1E80
1280
2280
C280
0000
4F80
4200
4500
7880
ENDCHAR
STARTCHAR uniAC92
ENCODING 44178
BBX 10 11 1 -1
BITMAP
F280
1280
1E80
1280
2280
C280
0200
4FC0
4300
4480
7B00
ENDCHAR
STARTCHAR uniAC93
ENCODING 44179
BBX 9 11 1 -1
BITMAP
F280
1280
1E80
1280
2280
C280
0000
7F80
4000
4000
7F80
ENDCHAR
STARTCHAR uniAC94
ENCODING 44180
BBX 9 11 1 -1
BITMAP
F280
1280
1E80
2280
C280
0280
7F80
0080
7F80
4000
7F80
ENDCHAR
STARTCHAR uniAC95
ENCODING 44181
BBX 9 11 1 -1
BITMAP
F280
1280
1E80
2280
C280
0280
7F80
0880
7880
4080
7C80
ENDCHAR
STARTCHAR uniAC96
ENCODING 44182
BBX 9 11 1 -1
BITMAP
F280
1280
1E80
2280
C280
0280
7B80
0A80
7A80
4280
7F80
ENDCHAR
STARTCHAR uniAC97
ENCODING 44183
BBX 9 11 1 -1
BITMAP
F280
1280
1E80
2280
C280
0280
7A80
0A80
7B80
4280
7F80
ENDCHAR
STARTCHAR uniAC98
ENCODING 44184
BBX 10 11 1 -1
BITMAP
F280
1280
1E80
2280
C280
0280
7900
0900
7900
4280
7C40
ENDCHAR
STARTCHAR uniAC99
ENCODING 44185
BBX 9 11 1 -1
BITMAP
F280
1280
1E80
2280
C280
0280
7B80
0A00
7B80
4200
7F80
ENDCHAR
STARTCHAR uniAC9A
ENCODING 44186
BBX 10 11 1 -1
BITMAP
F280
1280
1E80
2280
C280
0280
7FC0
0A80
7A80
4280
7FC0
ENDCHAR
STARTCHAR uniAC9B
ENCODING 44187
BBX 10 11 1 -1
BITMAP
F280
1280
1E80
2280
C280
0280
7200
1FC0
7300
4480
7B00
ENDCHAR
STARTCHAR uniAC9C
ENCODING 44188
BBX 9 11 1 -1
BITMAP
F280
1280
1E80
1280
2280
C280
0000
7F80
4080
4080
7F80
ENDCHAR
STARTCHAR uniAC9D
ENCODING 44189
BBX 9 11 1 -1
BITMAP
F280
1280
1E80
1280
2280
C280
0000
4080
7F80
4080
7F80
ENDCHAR
STARTCHAR uniAC9E
ENCODING 44190
BBX 10 11 1 -1
BITMAP
F280
1280
1E80
1280
2280
C280
0000
4900
7900
4A80
7C40
ENDCHAR
STARTCHAR uniAC9F
ENCODING 44191
BBX 9 11 1 -1
BITMAP
F280
1280
1E80
1280
2280
C280
0080
0800
0800
3600
C180
ENDCHAR
STARTCHAR uniACA0
ENCODING 44192
BBX 10 11 1 -1
BITMAP
F280
1280
1E80
1280
2280
C080
0000
1100
1100
2A80
C440
ENDCHAR
STARTCHAR uniACA1
ENCODING 44193
BBX 9 11 1 -1
BITMAP
F280
1280
1E80
1280
2280
C280
0080
3F00
4080
4080
3F00
ENDCHAR
STARTCHAR uniACA2
ENCODING 44194
BBX 9 11 1 -1
BITMAP
F280
1280
1E80
1280
2280
C280
0000
7F80
0C00
1200
6180
ENDCHAR
STARTCHAR uniACA3
ENCODING 44195
BBX 9 11 1 -1
BITMAP
F280
1280
1E80
2280
C280
0280
1E00
0000
7F80
0C00
7380
ENDCHAR
STARTCHAR uniACA4
ENCODING 44196
BBX 9 11 1 -1
BITMAP
F280
1280
1E80
2280
C280
0280
0000
7F80
0080
7F80
0080
ENDCHAR
STARTCHAR uniACA5
ENCODING 44197
BBX 9 11 1 -1
BITMAP
F280
1280
1E80
2280
C280
0280
7F80
4000
7F80
4000
7F80
ENDCHAR
STARTCHAR uniACA6
ENCODING 44198
BBX 9 11 1 -1
BITMAP
F280
1280
1E80
1280
2280
C280
0000
7F80
1200
1200
7F80
ENDCHAR
STARTCHAR uniACA7
ENCODING 44199
BBX 10 11 1 -1
BITMAP
F280
1280
1E80
2280
C280
0280
0800
FFC0
2100
4080
3F00
ENDCHAR
STARTCHAR uniACA8
ENCODING 44200
BBX 9 11 1 -1
BITMAP
FC80
0480
0780
0480
0480
0880
0F80
1080
2080
C080
0080
ENDCHAR
STARTCHAR uniACA9
ENCODING 44201
BBX 9 11 1 -1
BITMAP
FC80
0780
0480
0880
1780
E080
0000
7F80
0080
0080
0080
ENDCHAR
STARTCHAR uniACAA
ENCODING 44202
BBX 9 11 1 -1
BITMAP
FC80
0780
0480
0880
1780
E080
0000
F780
1080
1080
1080
ENDCHAR
STARTCHAR uniACAB
ENCODING 44203
BBX 9 11 1 -1
BITMAP
FC80
0780
0480
0880
1780
E080
0080
F200
1200
1500
1880
ENDCHAR
STARTCHAR uniACAC
ENCODING 44204
BBX 9 11 1 -1
BITMAP
FC80
0780
0480
0480
0F80
1080
E080
0080
4000
4000
7F80
ENDCHAR
STARTCHAR uniACAD
ENCODING 44205
BBX 9 11 1 -1
BITMAP
FC80
0780
0480
0880
1780
E080
0000
4F80
4200
4500
7880
ENDCHAR
STARTCHAR uniACAE
ENCODING 44206
BBX 10 11 1 -1
BITMAP
FC80
0780
0480
0880
1780
E080
0200
4FC0
4300
4480
7B00
ENDCHAR
STARTCHAR uniACAF
ENCODING 44207
BBX 9 11 1 -1
BITMAP
FC80
0780
0480
0880
1780
E080
0000
7F80
4000
4000
7F80
ENDCHAR
STARTCHAR uniACB0
ENCODING 44208
BBX 9 11 1 -1
BITMAP
FC80
0780
0480
0F80
F080
0000
7F80
0080
7F80
4000
7F80
ENDCHAR
STARTCHAR uniACB1
ENCODING 44209
BBX 9 11 1 -1
BITMAP
FC80
0780
0480
0880
F780
0080
7F80
0880
7880
4080
7C80
ENDCHAR
STARTCHAR uniACB2
ENCODING 44210
BBX 9 11 1 -1
BITMAP
FC80
0780
0480
0880
F780
0080
7B80
0A80
7A80
4280
7F80
ENDCHAR
STARTCHAR uniACB3
ENCODING 44211
BBX 9 11 1 -1
BITMAP
FC80
0780
0480
0880
F780
0080
7A80
0A80
7B80
4280
7F80
ENDCHAR
STARTCHAR uniACB4
ENCODING 44212
BBX 10 11 1 -1
BITMAP
FC80
0780
0480
0880
F780
0080
7900
0900
7900
4280
7C40
ENDCHAR
STARTCHAR uniACB5
ENCODING 44213
BBX 9 11 1 -1
BITMAP
FC80
0780
0480
0880
F780
0080
7B80
0A00
7B80
4200
7F80
ENDCHAR
STARTCHAR uniACB6
ENCODING 44214
BBX 10 11 1 -1
BITMAP
FC80
0780
0480
0880
F780
0080
7FC0
0A80
7A80
4280
7FC0
ENDCHAR
STARTCHAR uniACB7
ENCODING 44215
BBX 10 11 1 -1
BITMAP
FC80
0780
0480
0880
F780
0080
7200
1FC0
7300
4480
7B00
ENDCHAR
STARTCHAR uniACB8
ENCODING 44216
BBX 9 11 1 -1
BITMAP
FC80
0780
0480
0880
1780
E080
0000
7F80
4080
4080
7F80
ENDCHAR
STARTCHAR uniACB9
ENCODING 44217
BBX 9 11 1 -1
BITMAP
FC80
0780
0480
0880
1780
E080
0000
4080
7F80
4080
7F80
ENDCHAR
STARTCHAR uniACBA
ENCODING 44218
BBX 10 11 1 -1
BITMAP
FC80
0780
0480
0880
1780
E080
0000
4900
7900
4A80
7C40
ENDCHAR
STARTCHAR uniACBB
ENCODING 44219
BBX 10 11 1 -1
BITMAP
FC80
0780
0480
0880
1780
E080
0080
0400
0400
1B00
60C0
ENDCHAR
STARTCHAR uniACBC
ENCODING 44220
BBX 10 11 1 -1
BITMAP
FC80
0780
0480
0880
1780
E080
0000
1100
1100
2A80
C440
ENDCHAR
STARTCHAR uniACBD
ENCODING 44221
BBX 9 11 1 -1
BITMAP
FC80
0780
0480
0880
1780
E080
0000
3F00
4080
4080
3F00
ENDCHAR
STARTCHAR uniACBE
ENCODING 44222
BBX 9 11 1 -1
BITMAP
FC80
0780
0480
0880
1780
E080
0000
7F80
0C00
1200
6180
ENDCHAR
STARTCHAR uniACBF
ENCODING 44223
BBX 9 11 1 -1
BITMAP
FC80
0780
0480
0880
F780
0080
1E00
0000
7F80
0C00
7380
ENDCHAR
STARTCHAR uniACC0
ENCODING 44224
BBX 9 11 1 -1
BITMAP
FC80
0780
0480
0880
F780
0080
0000
7F80
0080
7F80
0080
ENDCHAR
STARTCHAR uniACC1
ENCODING 44225
BBX 9 11 1 -1
BITMAP
FC80
0780
0480
0880
F780
0080
7F80
4000
7F80
4000
7F80
ENDCHAR
STARTCHAR uniACC2
ENCODING 44226
BBX 9 11 1 -1
BITMAP
FC80
0780
0480
0880
1780
E080
0000
7F80
1200
1200
7F80
ENDCHAR
STARTCHAR uniACC3
ENCODING 44227
BBX 10 11 1 -1
BITMAP
FC80
0780
0480
0880
F780
0080
0400
7FC0
1100
2080
1F00
ENDCHAR
STARTCHAR uniACC4
ENCODING 44228
BBX 9 11 1 -1
BITMAP
F280
1280
1E80
1280
1280
1280
2E80
2280
4280
8280
0280
ENDCHAR
STARTCHAR uniACC5
ENCODING 44229
BBX 9 11 1 -1
BITMAP
F280
1E80
1280
1E80
2280
C280
0000
7F80
0080
0080
0080
ENDCHAR
STARTCHAR uniACC6
ENCODING 44230
BBX 9 11 1 -1
BITMAP
F280
1E80
1280
1E80
2280
C280
0000
F780
1080
1080
1080
ENDCHAR
STARTCHAR uniACC7
ENCODING 44231
BBX 9 11 1 -1
BITMAP
F280
1E80
1280
1E80
2280
C280
0080
F200
1200
1500
1880
ENDCHAR
STARTCHAR uniACC8
ENCODING 44232
BBX 9 11 1 -1
BITMAP
F280
1E80
1280
1280
1E80
2280
C280
0080
4000
4000
7F80
ENDCHAR
STARTCHAR uniACC9
ENCODING 44233
BBX 9 11 1 -1
BITMAP
F280
1E80
1280
1E80
2280
C280
0000
4F80
4200
4500
7880
ENDCHAR
STARTCHAR uniACCA
ENCODING 44234
BBX 10 11 1 -1
BITMAP
F280
1E80
1280
1E80
2280
C280
0200
4FC0
4300
4480
7B00
ENDCHAR
STARTCHAR uniACCB
ENCODING 44235
BBX 9 11 1 -1
BITMAP
F280
1E80
1280
1E80
2280
C280
0000
7F80
4000
4000
7F80
ENDCHAR
STARTCHAR uniACCC
ENCODING 44236
BBX 9 11 1 -1
BITMAP
F280
1E80
1280
2E80
C280
0280
7F80
0080
7F80
4000
7F80
ENDCHAR
STARTCHAR uniACCD
ENCODING 44237
BBX 9 11 1 -1
BITMAP
F280
1E80
1280
2E80
C280
0280
7F80
0880
7880
4080
7C80
ENDCHAR
STARTCHAR uniACCE
ENCODING 44238
BBX 9 11 1 -1
BITMAP
F280
1E80
1280
2E80
C280
0280
7B80
0A80
7A80
4280
7F80
ENDCHAR
STARTCHAR uniACCF
ENCODING 44239
BBX 9 11 1 -1
BITMAP
F280
1E80
1280
2E80
C280
0280
7A80
0A80
7B80
4280
7F80
ENDCHAR
STARTCHAR uniACD0
ENCODING 44240
BBX 10 11 1 -1
BITMAP
F280
1E80
1280
2E80
C280
0280
7900
0900
7900
4280
7C40
ENDCHAR
STARTCHAR uniACD1
ENCODING 44241
BBX 9 11 1 -1
BITMAP
F280
1E80
1280
2E80
C280
0280
7B80
0A00
7B80
4200
7F80
ENDCHAR
STARTCHAR uniACD2
ENCODING 44242
BBX 10 11 1 -1
BITMAP
F280
1E80
1280
2E80
C280
0280
7FC0
0A80
7A80
4280
7FC0
ENDCHAR
STARTCHAR uniACD3
ENCODING 44243
BBX 10 11 1 -1
BITMAP
F280
1E80
1280
2E80
C280
0280
7200
1FC0
7300
4480
7B00
ENDCHAR
STARTCHAR uniACD4
ENCODING 44244
BBX 9 11 1 -1
BITMAP
F280
1E80
1280
1E80
2280
C280
0000
7F80
4080
4080
7F80
ENDCHAR
STARTCHAR uniACD5
ENCODING 44245
BBX 9 11 1 -1
BITMAP
F280
1E80
1280
1E80
2280
C280
0000
4080
7F80
4080
7F80
ENDCHAR
STARTCHAR uniACD6
ENCODING 44246
BBX 10 11 1 -1
BITMAP
F280
1E80
1280
1E80
2280
C280
0000
4900
7900
4A80
7C40
ENDCHAR
STARTCHAR uniACD7
ENCODING 44247
BBX 9 11 1 -1
BITMAP
F280
1E80
1280
1E80
2280
C280
0080
0800
0800
3600
C180
ENDCHAR
STARTCHAR uniACD8
ENCODING 44248
BBX 10 11 1 -1
BITMAP
F280
1E80
1280
1E80
2280
C280
0000
1100
1100
2A80
C440
ENDCHAR
STARTCHAR uniACD9
ENCODING 44249
BBX 9 11 1 -1
BITMAP
F280
1E80
1280
1E80
2280
C280
0080
3F00
4080
4080
3F00
ENDCHAR
STARTCHAR uniACDA
ENCODING 44250
BBX 9 11 1 -1
BITMAP
F280
1E80
1280
1E80
2280
C280
0000
7F80
0C00
1200
6180
ENDCHAR
STARTCHAR uniACDB
ENCODING 44251
BBX 9 11 1 -1
BITMAP
F280
1E80
1280
2E80
C280
0280
1E00
0000
7F80
0C00
7380
ENDCHAR
STARTCHAR uniACDC
ENCODING 44252
BBX 9 11 1 -1
BITMAP
F280
1E80
1280
2E80
C280
0280
0000
7F80
0080
7F80
0080
ENDCHAR
STARTCHAR uniACDD
ENCODING 44253
BBX 9 11 1 -1
BITMAP
F280
1E80
1280
2E80
C280
0280
7F80
4000
7F80
4000
7F80
ENDCHAR
STARTCHAR uniACDE
ENCODING 44254
BBX 9 11 1 -1
BITMAP
F280
1E80
1280
1E80
2280
C280
0000
7F80
1200
1200
7F80
ENDCHAR
STARTCHAR uniACDF
ENCODING 44255
BBX 10 11 1 -1
BITMAP
F280
1E80
1280
2E80
C280
0280
0800
FFC0
2100
4080
3F00
ENDCHAR
STARTCHAR uniACE0
ENCODING 44256
BBX 10 10 1 0
BITMAP
7F80
0080
0080
0080
1080
1080
1080
1100
1000
FFC0
ENDCHAR
STARTCHAR uniACE1
ENCODING 44257
BBX 10 11 1 -1
BITMAP
7F80
0080
0880
0900
0800
FFC0
0000
7F80
0080
0080
0080
ENDCHAR
STARTCHAR uniACE2
ENCODING 44258
BBX 10 11 1 -1
BITMAP
7F80
0080
0880
0900
0800
FFC0
0000
7F80
0880
0880
0880
ENDCHAR
STARTCHAR uniACE3
ENCODING 44259
BBX 10 11 1 -1
BITMAP
7F80
0080
0880
0900
0800
FFC0
0000
7900
0900
0A80
0C40
ENDCHAR
STARTCHAR uniACE4
ENCODING 44260
BBX 10 11 1 -1
BITMAP
7F80
0080
0880
0900
0800
FFC0
0000
0000
4000
4000
7F80
ENDCHAR
STARTCHAR uniACE5
ENCODING 44261
BBX 10 11 1 -1
BITMAP
7F80
0080
0880
0900
0800
FFC0
0000
4F80
4200
4500
7880
ENDCHAR
STARTCHAR uniACE6
ENCODING 44262
BBX 10 11 1 -1
BITMAP
7F80
0080
0880
0900
0800
FFC0
0000
4200
4FC0
4480
7B00
ENDCHAR
STARTCHAR uniACE7
ENCODING 44263
BBX 10 11 1 -1
BITMAP
7F80
0080
0880
0900
0800
FFC0
0000
7F80
4000
4000
7F80
ENDCHAR
STARTCHAR uniACE8
ENCODING 44264
BBX 10 11 1 -1
BITMAP
7F80
0080
0880
0900
FFC0
0000
7F80
0080
7F80
4000
7F80
ENDCHAR
STARTCHAR uniACE9
ENCODING 44265
BBX 10 11 1 -1
BITMAP
7F80
0080
0880
0900
FFC0
0000
7F80
0880
7880
4080
7C80
ENDCHAR
STARTCHAR uniACEA
ENCODING 44266
BBX 10 11 1 -1
BITMAP
7F80
0080
0880
0900
FFC0
0000
7B80
0A80
7A80
4280
7F80
ENDCHAR
STARTCHAR uniACEB
ENCODING 44267
BBX 10 11 1 -1
BITMAP
7F80
0080
0880
0900
FFC0
0000
7A80
0A80
7B80
4280
7F80
ENDCHAR
STARTCHAR uniACEC
ENCODING 44268
BBX 10 11 1 -1
BITMAP
7F80
0080
0880
0900
FFC0
0000
7900
0900
7900
4280
7C40
ENDCHAR
STARTCHAR uniACED
ENCODING 44269
BBX 10 11 1 -1
BITMAP
7F80
0080
0880
0900
FFC0
0000
7B80
0A00
7B80
4200
7F80
ENDCHAR
STARTCHAR uniACEE
ENCODING 44270
BBX 10 11 1 -1
BITMAP
7F80
0080
0880
0900
FFC0
0000
7FC0
0A80
7A80
4280
7FC0
ENDCHAR
STARTCHAR uniACEF
ENCODING 44271
BBX 10 11 1 -1
BITMAP
7F80
0080
0880
0900
FFC0
0000
7B00
0800
7FC0
4480
7B00
ENDCHAR
STARTCHAR uniACF0
ENCODING 44272
BBX 10 11 1 -1
BITMAP
7F80
0080
0880
0900
0800
FFC0
0000
7F80
4080
4080
7F80
ENDCHAR
STARTCHAR uniACF1
ENCODING 44273
BBX 10 11 1 -1
BITMAP
7F80
0080
0880
0900
0800
FFC0
0000
4080
7F80
4080
7F80
ENDCHAR
STARTCHAR uniACF2
ENCODING 44274
BBX 10 11 1 -1
BITMAP
7F80
0080
0880
0900
0800
FFC0
0000
4900
7900
4A80
7C40
ENDCHAR
STARTCHAR uniACF3
ENCODING 44275
BBX 10 11 1 -1
BITMAP
7F80
0080
0880
0900
0800
FFC0
0000
0400
0400
1B00
60C0
ENDCHAR
STARTCHAR uniACF4
ENCODING 44276
BBX 10 11 1 -1
BITMAP
7F80
0080
0880
0900
0800
FFC0
0000
1100
1100
2A80
C440
ENDCHAR
STARTCHAR uniACF5
ENCODING 44277
BBX 10 11 1 -1
BITMAP
7F80
0080
0880
0900
0800
FFC0
0000
3F00
4080
4080
3F00
ENDCHAR
STARTCHAR uniACF6
ENCODING 44278
BBX 10 11 1 -1
BITMAP
7F80
0080
0880
0900
0800
FFC0
0000
7F80
0C00
1200
6180
ENDCHAR
STARTCHAR uniACF7
ENCODING 44279
BBX 10 11 1 -1
BITMAP
7F80
0080
0880
0900
FFC0
0000
1E00
0000
7F80
0C00
7380
ENDCHAR
STARTCHAR uniACF8
ENCODING 44280
BBX 10 11 1 -1
BITMAP
7F80
0080
0880
0900
FFC0
0000
0000
7F80
0080
7F80
0080
ENDCHAR
STARTCHAR uniACF9
ENCODING 44281
BBX 10 11 1 -1
BITMAP
7F80
0080
0880
0900
FFC0
0000
7F80
4000
7F80
4000
7F80
ENDCHAR
STARTCHAR uniACFA
ENCODING 44282
BBX 10 11 1 -1
BITMAP
7F80
0080
0880
0900
0800
FFC0
0000
7F80
1200
1200
7F80
ENDCHAR
STARTCHAR uniACFB
ENCODING 44283
BBX 10 11 1 -1
BITMAP
7F80
0080
0880
0900
FFC0
0000
0400
FFC0
1200
2100
1E00
ENDCHAR
STARTCHAR uniACFC
ENCODING 44284
BBX 11 11 1 -1
BITMAP
FC80
0480
0480
0480
2480
24E0
2480
2880
2080
FE80
0080
ENDCHAR
STARTCHAR uniACFD
ENCODING 44285
BBX 11 11 1 -1
BITMAP
FC80
0480
2480
28E0
2080
FE80
0080
0000
7F80
0080
0080
ENDCHAR
STARTCHAR uniACFE
ENCODING 44286
BBX 11 11 1 -1
BITMAP
FC80
0480
2480
28E0
2080
FE80
0080
0000
F780
1080
1080
ENDCHAR
STARTCHAR uniACFF
ENCODING 44287
BBX 11 11 1 -1
BITMAP
FC80
0480
2480
28E0
2080
FE80
0080
0000
7900
0900
0EC0
ENDCHAR
STARTCHAR uniAD00
ENCODING 44288
BBX 11 11 1 -1
BITMAP
FC80
0480
2480
2880
20E0
FE80
0080
0080
4000
4000
7F80
ENDCHAR
STARTCHAR uniAD01
ENCODING 44289
BBX 11 11 1 -1
BITMAP
FC80
0480
2480
28E0
2080
FE80
0080
0000
4F80
4200
7D80
ENDCHAR
STARTCHAR uniAD02
ENCODING 44290
BBX 11 11 1 -1
BITMAP
FC80
0480
2480
28E0
2080
FE80
0000
0200
4FC0
4480
7B00
ENDCHAR
STARTCHAR uniAD03
ENCODING 44291
BBX 11 11 1 -1
BITMAP
FC80
0480
2480
28E0
2080
FE80
0000
7F80
4000
4000
7F80
ENDCHAR
STARTCHAR uniAD04
ENCODING 44292
BBX 11 11 1 -1
BITMAP
FC80
0480
2480
28E0
FE80
0080
7F80
0080
7F80
4000
7F80
ENDCHAR
STARTCHAR uniAD05
ENCODING 44293
BBX 11 11 1 -1
BITMAP
FC80
0480
2480
28E0
FE80
0080
7F80
0880
7880
4080
7C80
ENDCHAR
STARTCHAR uniAD06
ENCODING 44294
BBX 11 11 1 -1
BITMAP
FC80
0480
2480
28E0
FE80
0080
7B80
0A80
7A80
4280
7F80
ENDCHAR
STARTCHAR uniAD07
ENCODING 44295
BBX 11 11 1 -1
BITMAP
FC80
0480
2480
28E0
FE80
0080
7A80
0A80
7B80
4280
7F80
ENDCHAR
STARTCHAR uniAD08
ENCODING 44296
BBX 11 11 1 -1
BITMAP
FC80
0480
2480
28E0
FE80
0080
7900
0900
7900
4280
7C40
ENDCHAR
STARTCHAR uniAD09
ENCODING 44297
BBX 11 11 1 -1
BITMAP
FC80
0480
2480
28E0
FE80
0080
7B80
0A00
7B80
4200
7F80
ENDCHAR
STARTCHAR uniAD0A
ENCODING 44298
BBX 11 11 1 -1
BITMAP
FC80
0480
2480
28E0
FE80
0080
7FC0
0A80
7A80
4280
7FC0
ENDCHAR
STARTCHAR uniAD0B
ENCODING 44299
BBX 11 11 1 -1
BITMAP
FC80
0480
2480
28E0
FE80
0080
7200
1FC0
7300
4480
7B00
ENDCHAR
STARTCHAR uniAD0C
ENCODING 44300
BBX 11 11 1 -1
BITMAP
FC80
0480
2480
28E0
2080
FE80
0080
0000
7F80
4080
7F80
ENDCHAR
STARTCHAR uniAD0D
ENCODING 44301
BBX 11 11 1 -1
BITMAP
FC80
0480
2480
28E0
2080
FE80
0000
4080
7F80
4080
7F80
ENDCHAR
STARTCHAR uniAD0E
ENCODING 44302
BBX 11 11 1 -1
BITMAP
FC80
0480
2480
28E0
2080
FE80
0000
4900
7900
4A80
7C40
ENDCHAR
STARTCHAR uniAD0F
ENCODING 44303
BBX 11 11 1 -1
BITMAP
FC80
0480
2480
28E0
2080
FE80
0080
0800
0800
3600
C180
ENDCHAR
STARTCHAR uniAD10
ENCODING 44304
BBX 11 11 1 -1
BITMAP
FC80
0480
2480
28E0
2080
FE80
0000
1100
1100
2A80
C440
ENDCHAR
STARTCHAR uniAD11
ENCODING 44305
BBX 11 11 1 -1
BITMAP
FC80
0480
2480
28E0
2080
FE80
0080
3F00
4080
4080
3F00
ENDCHAR
STARTCHAR uniAD12
ENCODING 44306
BBX 11 11 1 -1
BITMAP
FC80
0480
2480
28E0
2080
FE80
0000
0000
7F80
0C00
7380
ENDCHAR
STARTCHAR uniAD13
ENCODING 44307
BBX 11 11 1 -1
BITMAP
FC80
0480
2480
28E0
FE80
0080
1E00
0000
7F80
0C00
7380
ENDCHAR
STARTCHAR uniAD14
ENCODING 44308
BBX 11 11 1 -1
BITMAP
FC80
0480
2480
28E0
FE80
0080
0000
7F80
0080
7F80
0080
ENDCHAR
STARTCHAR uniAD15
ENCODING 44309
BBX 11 11 1 -1
BITMAP
FC80
0480
2480
28E0
FE80
0080
7F80
4000
7F80
4000
7F80
ENDCHAR
STARTCHAR uniAD16
ENCODING 44310
BBX 11 11 1 -1
BITMAP
FC80
0480
2480
28E0
2080
FE80
0000
7F80
1200
1200
7F80
ENDCHAR
STARTCHAR uniAD17
ENCODING 44311
BBX 11 11 1 -1
BITMAP
FC80
0480
2480
28E0
FE80
0080
0400
7FC0
1100
2080
1F00
ENDCHAR
STARTCHAR uniAD18
ENCODING 44312
BBX 9 11 1 -1
BITMAP
FA80
0A80
0A80
0A80
4A80
4B80
4A80
5280
4280
FE80
0280
ENDCHAR
STARTCHAR uniAD19
ENCODING 44313
BBX 9 11 1 -1
BITMAP
FA80
0A80
4A80
5380
4280
FE80
0280
0000
7F80
0080
0080
ENDCHAR
STARTCHAR uniAD1A
ENCODING 44314
BBX 9 11 1 -1
BITMAP
FA80
0A80
4A80
5380
4280
FE80
0080
0000
F780
1080
1080
ENDCHAR
STARTCHAR uniAD1B
ENCODING 44315
BBX 9 11 1 -1
BITMAP
FA80
0A80
4A80
5380
4280
FE80
0080
0000
F200
1200
1D80
ENDCHAR
STARTCHAR uniAD1C
ENCODING 44316
BBX 9 11 1 -1
BITMAP
FA80
0A80
4A80
5380
4280
FE80
0280
0080
4000
4000
7F80
ENDCHAR
STARTCHAR uniAD1D
ENCODING 44317
BBX 9 11 1 -1
BITMAP
FA80
0A80
4A80
5380
4280
FE80
0080
0000
4F80
4200
7D80
ENDCHAR
STARTCHAR uniAD1E
ENCODING 44318
BBX 10 11 1 -1
BITMAP
FA80
0A80
4A80
5380
4280
FE80
0000
0200
4FC0
4480
7B00
ENDCHAR
STARTCHAR uniAD1F
ENCODING 44319
BBX 9 11 1 -1
BITMAP
FA80
0A80
4A80
5380
4280
FE80
0000
7F80
4000
4000
7F80
ENDCHAR
STARTCHAR uniAD20
ENCODING 44320
BBX 9 11 1 -1
BITMAP
FA80
0A80
4B80
5280
FE80
0080
7F80
0080
7F80
4000
7F80
ENDCHAR
STARTCHAR uniAD21
ENCODING 44321
BBX 9 11 1 -1
BITMAP
FA80
0A80
4B80
5280
FE80
0080
7F80
0880
7880
4080
7C80
ENDCHAR
STARTCHAR uniAD22
ENCODING 44322
BBX 9 11 1 -1
BITMAP
FA80
0A80
4B80
5280
FE80
0080
7B80
0A80
7A80
4280
7F80
ENDCHAR
STARTCHAR uniAD23
ENCODING 44323
BBX 9 11 1 -1
BITMAP
FA80
0A80
4B80
5280
FE80
0080
7A80
0A80
7B80
4280
7F80
ENDCHAR
STARTCHAR uniAD24
ENCODING 44324
BBX 10 11 1 -1
BITMAP
FA80
0A80
4B80
5280
FE80
0080
7900
0900
7900
4280
7C40
ENDCHAR
STARTCHAR uniAD25
ENCODING 44325
BBX 9 11 1 -1
BITMAP
FA80
0A80
4B80
5280
FE80
0080
7B80
0A00
7B80
4200
7F80
ENDCHAR
STARTCHAR uniAD26
ENCODING 44326
BBX 10 11 1 -1
BITMAP
FA80
0A80
4B80
5280
FE80
0080
7FC0
0A80
7A80
4280
7FC0
ENDCHAR
STARTCHAR uniAD27
ENCODING 44327
BBX 10 11 1 -1
BITMAP
FA80
0A80
4B80
5280
FE80
0080
7200
1FC0
7300
4480
7B00
ENDCHAR
STARTCHAR uniAD28
ENCODING 44328
BBX 9 11 1 -1
BITMAP
FA80
0A80
4A80
5380
4280
FE80
0080
0000
7F80
4080
7F80
ENDCHAR
STARTCHAR uniAD29
ENCODING 44329
BBX 9 11 1 -1
BITMAP
FA80
0A80
4A80
5380
4280
FE80
0000
4080
7F80
4080
7F80
ENDCHAR
STARTCHAR uniAD2A
ENCODING 44330
BBX 10 11 1 -1
BITMAP
FA80
0A80
4A80
5380
4280
FE80
0000
4900
7900
4A80
7C40
ENDCHAR
STARTCHAR uniAD2B
ENCODING 44331
BBX 10 11 1 -1
BITMAP
FA80
0A80
4A80
5380
4280
FE80
0080
0400
0400
1B00
60C0
ENDCHAR
STARTCHAR uniAD2C
ENCODING 44332
BBX 10 11 1 -1
BITMAP
FA80
0A80
4A80
5380
4280
FE80
0000
1100
1100
2A80
C440
ENDCHAR
STARTCHAR uniAD2D
ENCODING 44333
BBX 9 11 1 -1
BITMAP
FA80
0A80
4A80
5380
4280
FE80
0080
3F00
4080
4080
3F00
ENDCHAR
STARTCHAR uniAD2E
ENCODING 44334
BBX 9 11 1 -1
BITMAP
FA80
0A80
4A80
5380
4280
FE80
0000
0000
7F80
0C00
7380
ENDCHAR
STARTCHAR uniAD2F
ENCODING 44335
BBX 9 11 1 -1
BITMAP
FA80
0A80
4B80
5280
FE80
0080
1E00
0000
7F80
0C00
7380
ENDCHAR
STARTCHAR uniAD30
ENCODING 44336
BBX 9 11 1 -1
BITMAP
FA80
0A80
4B80
5280
FE80
0080
0000
7F80
0080
7F80
0080
ENDCHAR
STARTCHAR uniAD31
ENCODING 44337
BBX 9 11 1 -1
BITMAP
FA80
0A80
4B80
5280
FE80
0080
7F80
4000
7F80
4000
7F80
ENDCHAR
STARTCHAR uniAD32
ENCODING 44338
BBX 9 11 1 -1
BITMAP
FA80
0A80
4A80
5380
4280
FE80
0000
7F80
1200
1200
7F80
ENDCHAR
STARTCHAR uniAD33
ENCODING 44339
BBX 10 11 1 -1
BITMAP
FA80
0A80
4B80
5280
FE80
0080
0400
7FC0
1100
2080
1F00
ENDCHAR
STARTCHAR uniAD34
ENCODING 44340
BBX 9 11 1 -1
BITMAP
FC80
0480
0480
0480
2480
2480
2480
2880
2080
FE80
0080
ENDCHAR
STARTCHAR uniAD35
ENCODING 44341
BBX 9 11 1 -1
BITMAP
FC80
0480
2480
2880
2080
FE80
0080
0000
7F80
0080
0080
ENDCHAR
STARTCHAR uniAD36
ENCODING 44342
BBX 9 11 1 -1
BITMAP
FC80
0480
2480
2880
2080
FE80
0080
0000
F780
1080
1080
ENDCHAR
STARTCHAR uniAD37
ENCODING 44343
BBX 10 11 1 -1
BITMAP
FC80
0480
2480
2880
2080
FE80
0080
0000
7900
0900
0EC0
ENDCHAR
STARTCHAR uniAD38
ENCODING 44344
BBX 9 11 1 -1
BITMAP
FC80
0480
2480
2480
2880
FE80
0080
0080
4000
4000
7F80
ENDCHAR
STARTCHAR uniAD39
ENCODING 44345
BBX 9 11 1 -1
BITMAP
FC80
0480
2480
2880
2080
FE80
0080
0000
4F80
4200
7D80
ENDCHAR
STARTCHAR uniAD3A
ENCODING 44346
BBX 10 11 1 -1
BITMAP
FC80
0480
2480
2880
2080
FE80
0000
0200
4FC0
4480
7B00
ENDCHAR
STARTCHAR uniAD3B
ENCODING 44347
BBX 9 11 1 -1
BITMAP
FC80
0480
2480
2880
2080
FE80
0000
7F80
4000
4000
7F80
ENDCHAR
STARTCHAR uniAD3C
ENCODING 44348
BBX 9 11 1 -1
BITMAP
FC80
0480
2480
2880
FE80
0000
7F80
0080
7F80
4000
7F80
ENDCHAR
STARTCHAR uniAD3D
ENCODING 44349
BBX 9 11 1 -1
BITMAP
FC80
0480
2480
2880
FE80
0000
7F80
0880
7880
4080
7C80
ENDCHAR
STARTCHAR uniAD3E
ENCODING 44350
BBX 9 11 1 -1
BITMAP
FC80
0480
2480
2880
FE80
0000
7B80
0A80
7A80
4280
7F80
ENDCHAR
STARTCHAR uniAD3F
ENCODING 44351
BBX 9 11 1 -1
BITMAP
FC80
0480
2480
2880
FE80
0000
7A80
0A80
7B80
4280
7F80
ENDCHAR
STARTCHAR uniAD40
ENCODING 44352
BBX 10 11 1 -1
BITMAP
FC80
0480
2480
2880
FE80
0000
7900
0900
7900
4280
7C40
ENDCHAR
STARTCHAR uniAD41
ENCODING 44353
BBX 9 11 1 -1
BITMAP
FC80
0480
2480
2880
FE80
0000
7B80
0A00
7B80
4200
7F80
ENDCHAR
STARTCHAR uniAD42
ENCODING 44354
BBX 10 11 1 -1
BITMAP
FC80
0480
2480
2880
FE80
0000
7FC0
0A80
7A80
4280
7FC0
ENDCHAR
STARTCHAR uniAD43
ENCODING 44355
BBX 10 11 1 -1
BITMAP
FC80
0480
2480
2880
FE80
0000
7200
1FC0
7300
4480
7B00
ENDCHAR
STARTCHAR uniAD44
ENCODING 44356
BBX 9 11 1 -1
BITMAP
FC80
0480
2480
2880
2080
FE80
0080
0000
7F80
4080
7F80
ENDCHAR
STARTCHAR uniAD45
ENCODING 44357
BBX 9 11 1 -1
BITMAP
FC80
0480
2480
2880
2080
FE80
0000
4080
7F80
4080
7F80
ENDCHAR
STARTCHAR uniAD46
ENCODING 44358
BBX 10 11 1 -1
BITMAP
FC80
0480
2480
2880
2080
FE80
0000
4900
7900
4A80
7C40
ENDCHAR
STARTCHAR uniAD47
ENCODING 44359
BBX 9 11 1 -1
BITMAP
FC80
0480
2480
2880
2080
FE80
0080
0800
0800
3600
C180
ENDCHAR
STARTCHAR uniAD48
ENCODING 44360
BBX 10 11 1 -1
BITMAP
FC80
0480
2480
2880
2080
FE80
0000
1100
1100
2A80
C440
ENDCHAR
STARTCHAR uniAD49
ENCODING 44361
BBX 9 11 1 -1
BITMAP
FC80
0480
2480
2880
2080
FE80
0080
3F00
4080
4080
3F00
ENDCHAR
STARTCHAR uniAD4A
ENCODING 44362
BBX 9 11 1 -1
BITMAP
FC80
0480
2480
2880
2080
FE80
0000
0000
7F80
0C00
7380
ENDCHAR
STARTCHAR uniAD4B
ENCODING 44363
BBX 9 11 1 -1
BITMAP
FC80
0480
2480
2880
FE80
0000
1E00
0000
7F80
0C00
7380
ENDCHAR
STARTCHAR uniAD4C
ENCODING 44364
BBX 9 11 1 -1
BITMAP
FC80
0480
2480
2880
FE80
0000
0000
7F80
0080
7F80
0080
ENDCHAR
STARTCHAR uniAD4D
ENCODING 44365
BBX 9 11 1 -1
BITMAP
FC80
0480
2480
2880
FE80
0000
7F80
4000
7F80
4000
7F80
ENDCHAR
STARTCHAR uniAD4E
ENCODING 44366
BBX 9 11 1 -1
BITMAP
FC80
0480
2480
2880
2080
FE80
0000
7F80
1200
1200
7F80
ENDCHAR
STARTCHAR uniAD4F
ENCODING 44367
BBX 10 11 1 -1
BITMAP
FC80
0480
2480
2880
FE80
0000
0400
7FC0
1100
2080
1F00
ENDCHAR
STARTCHAR uniAD50
ENCODING 44368
BBX 10 10 1 0
BITMAP
7F80
0080
0080
0080
2480
2480
2480
2500
2400
FFC0
ENDCHAR
STARTCHAR uniAD51
ENCODING 44369
BBX 10 11 1 -1
BITMAP
7F80
0080
0080
2500
2400
FFC0
0000
7F80
0080
0080
0080
ENDCHAR
STARTCHAR uniAD52
ENCODING 44370
BBX 10 11 1 -1
BITMAP
7F80
0080
0080
2500
2400
FFC0
0000
7F80
0880
0880
0880
ENDCHAR
STARTCHAR uniAD53
ENCODING 44371
BBX 10 11 1 -1
BITMAP
7F80
0080
0080
2500
2400
FFC0
0000
7900
0900
0A80
0C40
ENDCHAR
STARTCHAR uniAD54
ENCODING 44372
BBX 10 11 1 -1
BITMAP
7F80
0080
0080
2500
2400
FFC0
0000
0000
4000
4000
7F80
ENDCHAR
STARTCHAR uniAD55
ENCODING 44373
BBX 10 11 1 -1
BITMAP
7F80
0080
0080
2500
2400
FFC0
0000
4F80
4200
4500
7880
ENDCHAR
STARTCHAR uniAD56
ENCODING 44374
BBX 10 11 1 -1
BITMAP
7F80
0080
0080
2500
2400
FFC0
0000
4200
4FC0
4480
7B00
ENDCHAR
STARTCHAR uniAD57
ENCODING 44375
BBX 10 11 1 -1
BITMAP
7F80
0080
0080
2500
2400
FFC0
0000
7F80
4000
4000
7F80
ENDCHAR
STARTCHAR uniAD58
ENCODING 44376
BBX 10 11 1 -1
BITMAP
7F80
0080
2480
2500
FFC0
0000
7F80
0080
7F80
4000
7F80
ENDCHAR
STARTCHAR uniAD59
ENCODING 44377
BBX 10 11 1 -1
BITMAP
7F80
0080
2480
2500
FFC0
0000
7F80
0880
7880
4080
7C80
ENDCHAR
STARTCHAR uniAD5A
ENCODING 44378
BBX 10 11 1 -1
BITMAP
7F80
0080
2480
2500
FFC0
0000
7B80
0A80
7A80
4280
7F80
ENDCHAR
STARTCHAR uniAD5B
ENCODING 44379
BBX 10 11 1 -1
BITMAP
7F80
0080
2480
2500
FFC0
0000
7A80
0A80
7B80
4280
7F80
ENDCHAR
STARTCHAR uniAD5C
ENCODING 44380
BBX 10 11 1 -1
BITMAP
7F80
0080
2480
2500
FFC0
0000
7900
0900
7900
4280
7C40
ENDCHAR
STARTCHAR uniAD5D
ENCODING 44381
BBX 10 11 1 -1
BITMAP
7F80
0080
2480
2500
FFC0
0000
7B80
0A00
7B80
4200
7F80
ENDCHAR
STARTCHAR uniAD5E
ENCODING 44382
BBX 10 11 1 -1
BITMAP
7F80
0080
2480
2500
FFC0
0000
7FC0
0A80
7A80
4280
7FC0
ENDCHAR
STARTCHAR uniAD5F
ENCODING 44383
BBX 10 11 1 -1
BITMAP
7F80
0080
2480
2500
FFC0
0000
7B00
0800
7FC0
4480
7B00
ENDCHAR
STARTCHAR uniAD60
ENCODING 44384
BBX 10 11 1 -1
BITMAP
7F80
0080
0080
2500
2400
FFC0
0000
7F80
4080
4080
7F80
ENDCHAR
STARTCHAR uniAD61
ENCODING 44385
BBX 10 11 1 -1
BITMAP
7F80
0080
0080
2500
2400
FFC0
0000
4080
7F80
4080
7F80
ENDCHAR
STARTCHAR uniAD62
ENCODING 44386
BBX 10 11 1 -1
BITMAP
7F80
0080
0080
2500
2400
FFC0
0000
4900
7900
4A80
7C40
ENDCHAR
STARTCHAR uniAD63
ENCODING 44387
BBX 10 11 1 -1
BITMAP
7F80
0080
0080
2500
2400
FFC0
0000
0400
0C00
1200
6180
ENDCHAR
STARTCHAR uniAD64
ENCODING 44388
BBX 10 11 1 -1
BITMAP
7F80
0080
0080
2500
2400
FFC0
0000
1100
1100
2A80
C440
ENDCHAR
STARTCHAR uniAD65
ENCODING 44389
BBX 10 11 1 -1
BITMAP
7F80
0080
0080
2500
2400
FFC0
0000
3F00
4080
4080
3F00
ENDCHAR
STARTCHAR uniAD66
ENCODING 44390
BBX 10 11 1 -1
BITMAP
7F80
0080
0080
2500
2400
FFC0
0000
7F80
0C00
1200
6180
ENDCHAR
STARTCHAR uniAD67
ENCODING 44391
BBX 10 11 1 -1
BITMAP
7F80
0080
2480
2500
FFC0
0000
1E00
0000
7F80
0C00
7380
ENDCHAR
STARTCHAR uniAD68
ENCODING 44392
BBX 10 11 1 -1
BITMAP
7F80
0080
2480
2500
FFC0
0000
0000
7F80
0080
7F80
0080
ENDCHAR
STARTCHAR uniAD69
ENCODING 44393
BBX 10 11 1 -1
BITMAP
7F80
0080
2480
2500
FFC0
0000
7F80
4000
7F80
4000
7F80
ENDCHAR
STARTCHAR uniAD6A
ENCODING 44394
BBX 10 11 1 -1
BITMAP
7F80
0080
0080
2500
2400
FFC0
0000
7F80
1200
1200
7F80
ENDCHAR
STARTCHAR uniAD6B
ENCODING 44395
BBX 10 11 1 -1
BITMAP
7F80
0080
2480
2500
FFC0
0000
0400
FFC0
1200
2100
1E00
ENDCHAR
STARTCHAR uniAD6C
ENCODING 44396
BBX 10 11 1 -1
BITMAP
7F80
0080
0080
0080
0080
0100
FFC0
0400
0400
0400
0400
ENDCHAR
STARTCHAR uniAD6D
ENCODING 44397
BBX 10 11 1 -1
BITMAP
7F80
0080
0080
0100
FFC0
0400
0400
7F80
0080
0080
0080
ENDCHAR
STARTCHAR uniAD6E
ENCODING 44398
BBX 10 11 1 -1
BITMAP
7F80
0080
0080
0100
FFC0
0400
0400
7F80
0880
0880
0880
ENDCHAR
STARTCHAR uniAD6F
ENCODING 44399
BBX 10 11 1 -1
BITMAP
7F80
0080
0080
0100
FFC0
0400
0400
7900
0900
0A80
0C40
ENDCHAR
STARTCHAR uniAD70
ENCODING 44400
BBX 10 11 1 -1
BITMAP
7F80
0080
0080
0080
0100
FFC0
0400
0400
4400
4000
7F80
ENDCHAR
STARTCHAR uniAD71
ENCODING 44401
BBX 10 11 1 -1
BITMAP
7F80
0080
0080
0100
FFC0
0400
0400
4F80
4200
4500
7880
ENDCHAR
STARTCHAR uniAD72
ENCODING 44402
BBX 10 11 1 -1
BITMAP
7F80
0080
0080
0100
FFC0
0400
0400
4200
4FC0
4480
7B00
ENDCHAR
STARTCHAR uniAD73
ENCODING 44403
BBX 10 11 1 -1
BITMAP
7F80
0080
0080
0100
FFC0
0400
0400
7F80
4000
4000
7F80
ENDCHAR
STARTCHAR uniAD74
ENCODING 44404
BBX 10 11 1 -1
BITMAP
7F80
0080
0080
0100
FFC0
0400
7F80
0080
7F80
4000
7F80
ENDCHAR
STARTCHAR uniAD75
ENCODING 44405
BBX 10 11 1 -1
BITMAP
7F80
0080
0080
0100
FFC0
0400
7F80
0880
7880
4080
7C80
ENDCHAR
STARTCHAR uniAD76
ENCODING 44406
BBX 10 11 1 -1
BITMAP
7F80
0080
0080
0100
FFC0
0400
7F80
0A80
7A80
4280
7F80
ENDCHAR
STARTCHAR uniAD77
ENCODING 44407
BBX 10 11 1 -1
BITMAP
7F80
0080
0080
0100
FFC0
0400
7E80
0A80
7B80
4280
7F80
ENDCHAR
STARTCHAR uniAD78
ENCODING 44408
BBX 10 11 1 -1
BITMAP
7F80
0080
0080
0100
FFC0
0400
7D00
0900
7900
4280
7C40
ENDCHAR
STARTCHAR uniAD79
ENCODING 44409
BBX 10 11 1 -1
BITMAP
7F80
0080
0080
0100
FFC0
0400
7F80
0A00
7B80
4200
7F80
ENDCHAR
STARTCHAR uniAD7A
ENCODING 44410
BBX 10 11 1 -1
BITMAP
7F80
0080
0080
0100
FFC0
0400
7FC0
0A80
7A80
4280
7FC0
ENDCHAR
STARTCHAR uniAD7B
ENCODING 44411
BBX 10 11 1 -1
BITMAP
7F80
0080
0080
0100
FFC0
0400
7F00
0800
7FC0
4480
7B00
ENDCHAR
STARTCHAR uniAD7C
ENCODING 44412
BBX 10 11 1 -1
BITMAP
7F80
0080
0080
0100
FFC0
0400
0400
7F80
4080
4080
7F80
ENDCHAR
STARTCHAR uniAD7D
ENCODING 44413
BBX 10 11 1 -1
BITMAP
7F80
0080
0080
0100
FFC0
0400
0400
4080
7F80
4080
7F80
ENDCHAR
STARTCHAR uniAD7E
ENCODING 44414
BBX 10 11 1 -1
BITMAP
7F80
0080
0080
0100
FFC0
0400
0400
4900
7900
4A80
7C40
ENDCHAR
STARTCHAR uniAD7F
ENCODING 44415
BBX 10 11 1 -1
BITMAP
7F80
0080
0080
0100
FFC0
0400
0400
0000
0C00
1200
6180
ENDCHAR
STARTCHAR uniAD80
ENCODING 44416
BBX 10 11 1 -1
BITMAP
7F80
0080
0080
0100
FFC0
0400
0400
1100
1100
2A80
C440
ENDCHAR
STARTCHAR uniAD81
ENCODING 44417
BBX 10 11 1 -1
BITMAP
7F80
0080
0080
0100
FFC0
0400
0400
3F00
4080
4080
3F00
ENDCHAR
STARTCHAR uniAD82
ENCODING 44418
BBX 10 11 1 -1
BITMAP
7F80
0080
0080
0100
FFC0
0400
0400
7F80
0C00
1200
6180
ENDCHAR
STARTCHAR uniAD83
ENCODING 44419
BBX 10 11 1 -1
BITMAP
7F80
0080
0080
0100
FFC0
0400
1E00
0000
7F80
0C00
7380
ENDCHAR
STARTCHAR uniAD84
ENCODING 44420
BBX 10 11 1 -1
BITMAP
7F80
0080
0080
0100
FFC0
0400
0400
7F80
0080
7F80
0080
ENDCHAR
STARTCHAR uniAD85
ENCODING 44421
BBX 10 11 1 -1
BITMAP
7F80
0080
0080
0100
FFC0
0400
7F80
4000
7F80
4000
7F80
ENDCHAR
STARTCHAR uniAD86
ENCODING 44422
BBX 10 11 1 -1
BITMAP
7F80
0080
0080
0100
FFC0
0400
0400
7F80
1200
1200
7F80
ENDCHAR
STARTCHAR uniAD87
ENCODING 44423
BBX 10 11 1 -1
BITMAP
7F80
0080
0080
0100
FFC0
0400
1E00
0000
FFC0
2100
1E00
ENDCHAR
STARTCHAR uniAD88
ENCODING 44424
BBX 9 11 1 -1
BITMAP
FC80
0480
0480
0480
0880
FE80
1080
1780
1080
2080
0080
ENDCHAR
STARTCHAR uniAD89
ENCODING 44425
BBX 9 11 1 -1
BITMAP
7C80
0780
0480
0880
FE80
1080
1080
0000
7F80
0080
0080
ENDCHAR
STARTCHAR uniAD8A
ENCODING 44426
BBX 9 11 1 -1
BITMAP
7C80
0780
0480
0880
FE80
1080
1080
0000
F780
1080
1080
ENDCHAR
STARTCHAR uniAD8B
ENCODING 44427
BBX 9 11 1 -1
BITMAP
7C80
0780
0480
0880
FE80
1080
1080
0000
F200
1200
1D80
ENDCHAR
STARTCHAR uniAD8C
ENCODING 44428
BBX 9 11 1 -1
BITMAP
FC80
0480
0480
0880
FE80
1080
1380
1080
4080
4000
7F80
ENDCHAR
STARTCHAR uniAD8D
ENCODING 44429
BBX 9 11 1 -1
BITMAP
7C80
0780
0480
0880
FE80
1080
1080
0000
4F80
4200
7D80
ENDCHAR
STARTCHAR uniAD8E
ENCODING 44430
BBX 10 11 1 -1
BITMAP
7C80
0780
0480
0880
FE80
1080
1000
0200
4FC0
4480
7B00
ENDCHAR
STARTCHAR uniAD8F
ENCODING 44431
BBX 9 11 1 -1
BITMAP
7C80
0780
0480
0880
FE80
1080
1000
7F80
4000
4000
7F80
ENDCHAR
STARTCHAR uniAD90
ENCODING 44432
BBX 9 11 1 -1
BITMAP
7C80
0780
0480
0880
FE80
1080
7F80
0080
7F80
4000
7F80
ENDCHAR
STARTCHAR uniAD91
ENCODING 44433
BBX 9 11 1 -1
BITMAP
7C80
0780
0480
0880
FE80
1080
7F80
0880
7880
4080
7C80
ENDCHAR
STARTCHAR uniAD92
ENCODING 44434
BBX 9 11 1 -1
BITMAP
7C80
0780
0480
0880
FE80
1080
7B80
0A80
7A80
4280
7F80
ENDCHAR
STARTCHAR uniAD93
ENCODING 44435
BBX 9 11 1 -1
BITMAP
7C80
0780
0480
0880
FE80
1080
7A80
0A80
7B80
4280
7F80
ENDCHAR
STARTCHAR uniAD94
ENCODING 44436
BBX 10 11 1 -1
BITMAP
7C80
0780
0480
0880
FE80
1080
7900
0900
7900
4280
7C40
ENDCHAR
STARTCHAR uniAD95
ENCODING 44437
BBX 9 11 1 -1
BITMAP
7C80
0780
0480
0880
FE80
1080
7B80
0A00
7B80
4200
7F80
ENDCHAR
STARTCHAR uniAD96
ENCODING 44438
BBX 10 11 1 -1
BITMAP
7C80
0780
0480
0880
FE80
1080
7FC0
0A80
7A80
4280
7FC0
ENDCHAR
STARTCHAR uniAD97
ENCODING 44439
BBX 10 11 1 -1
BITMAP
7C80
0780
0480
0880
FE80
1080
7200
1FC0
7300
4480
7B00
ENDCHAR
STARTCHAR uniAD98
ENCODING 44440
BBX 9 11 1 -1
BITMAP
7C80
0780
0480
0880
FE80
1080
1080
0000
7F80
4080
7F80
ENDCHAR
STARTCHAR uniAD99
ENCODING 44441
BBX 9 11 1 -1
BITMAP
7C80
0780
0480
0880
FE80
1080
1000
4080
7F80
4080
7F80
ENDCHAR
STARTCHAR uniAD9A
ENCODING 44442
BBX 10 11 1 -1
BITMAP
7C80
0780
0480
0880
FE80
1080
1000
4900
7900
4A80
7C40
ENDCHAR
STARTCHAR uniAD9B
ENCODING 44443
BBX 9 11 1 -1
BITMAP
7C80
0780
0480
0880
FE80
1080
1080
0000
0800
3600
C180
ENDCHAR
STARTCHAR uniAD9C
ENCODING 44444
BBX 10 11 1 -1
BITMAP
7C80
0780
0480
0880
FE80
1080
1000
1100
1100
2A80
C440
ENDCHAR
STARTCHAR uniAD9D
ENCODING 44445
BBX 9 11 1 -1
BITMAP
7C80
0780
0480
0880
FE80
1080
1080
3F00
4080
4080
3F00
ENDCHAR
STARTCHAR uniAD9E
ENCODING 44446
BBX 9 11 1 -1
BITMAP
7C80
0780
0480
0880
FE80
1080
1000
0000
7F80
0C00
7380
ENDCHAR
STARTCHAR uniAD9F
ENCODING 44447
BBX 9 11 1 -1
BITMAP
7C80
0780
0480
0880
FE80
1080
1E00
0000
7F80
0C00
7380
ENDCHAR
STARTCHAR uniADA0
ENCODING 44448
BBX 9 11 1 -1
BITMAP
7C80
0780
0480
0880
FE80
1080
0000
7F80
0080
7F80
0080
ENDCHAR
STARTCHAR uniADA1
ENCODING 44449
BBX 9 11 1 -1
BITMAP
7C80
0780
0480
0880
FE80
1080
7F80
4000
7F80
4000
7F80
ENDCHAR
STARTCHAR uniADA2
ENCODING 44450
BBX 9 11 1 -1
BITMAP
7C80
0780
0480
0880
FE80
1080
1000
7F80
1200
1200
7F80
ENDCHAR
STARTCHAR uniADA3
ENCODING 44451
BBX 10 11 1 -1
BITMAP
7C80
0780
0480
0880
FE80
1080
0400
7FC0
1100
2080
1F00
ENDCHAR
STARTCHAR uniADA4
ENCODING 44452
BBX 9 11 1 -1
BITMAP
FA80
0A80
0A80
0A80
1280
FA80
2280
2E80
2280
4280
0280
ENDCHAR
STARTCHAR uniADA5
ENCODING 44453
BBX 9 11 1 -1
BITMAP
FA80
0A80
0A80
1280
FA80
2E80
2280
0000
7F80
0080
0080
ENDCHAR
STARTCHAR uniADA6
ENCODING 44454
BBX 9 11 1 -1
BITMAP
FA80
0A80
0A80
1280
FA80
2E80
2280
0000
F780
1080
1080
ENDCHAR
STARTCHAR uniADA7
ENCODING 44455
BBX 9 11 1 -1
BITMAP
FA80
0A80
0A80
1280
FA80
2E80
2280
0000
F200
1200
1D80
ENDCHAR
STARTCHAR uniADA8
ENCODING 44456
BBX 9 11 1 -1
BITMAP
FA80
0A80
0A80
1280
FA80
2280
2E80
2280
4000
4000
7F80
ENDCHAR
STARTCHAR uniADA9
ENCODING 44457
BBX 9 11 1 -1
BITMAP
FA80
0A80
0A80
1280
FA80
2E80
2280
0000
4F80
4200
7D80
ENDCHAR
STARTCHAR uniADAA
ENCODING 44458
BBX 10 11 1 -1
BITMAP
FA80
0A80
0A80
1280
FA80
2E80
2280
0200
4FC0
4480
7B00
ENDCHAR
STARTCHAR uniADAB
ENCODING 44459
BBX 9 11 1 -1
BITMAP
FA80
0A80
0A80
1280
FA80
2E80
2280
7F80
4000
4000
7F80
ENDCHAR
STARTCHAR uniADAC
ENCODING 44460
BBX 9 11 1 -1
BITMAP
FA80
0E80
0A80
1280
FA80
2280
7F80
0080
7F80
4000
7F80
ENDCHAR
STARTCHAR uniADAD
ENCODING 44461
BBX 9 11 1 -1
BITMAP
FA80
0E80
0A80
1280
FA80
2280
7F80
0880
7880
4080
7C80
ENDCHAR
STARTCHAR uniADAE
ENCODING 44462
BBX 9 11 1 -1
BITMAP
FA80
0E80
0A80
1280
FA80
2280
7B80
0A80
7A80
4280
7F80
ENDCHAR
STARTCHAR uniADAF
ENCODING 44463
BBX 9 11 1 -1
BITMAP
FA80
0E80
0A80
1280
FA80
2280
7A80
0A80
7B80
4280
7F80
ENDCHAR
STARTCHAR uniADB0
ENCODING 44464
BBX 10 11 1 -1
BITMAP
FA80
0E80
0A80
1280
FA80
2280
7900
0900
7900
4280
7C40
ENDCHAR
STARTCHAR uniADB1
ENCODING 44465
BBX 9 11 1 -1
BITMAP
FA80
0E80
0A80
1280
FA80
2280
7B80
0A00
7B80
4200
7F80
ENDCHAR
STARTCHAR uniADB2
ENCODING 44466
BBX 10 11 1 -1
BITMAP
FA80
0E80
0A80
1280
FA80
2280
7FC0
0A80
7A80
4280
7FC0
ENDCHAR
STARTCHAR uniADB3
ENCODING 44467
BBX 10 11 1 -1
BITMAP
FA80
0E80
0A80
1280
FA80
2280
7200
1FC0
7300
4480
7B00
ENDCHAR
STARTCHAR uniADB4
ENCODING 44468
BBX 9 11 1 -1
BITMAP
FA80
0A80
0A80
1280
FA80
2E80
2280
0000
7F80
4080
7F80
ENDCHAR
STARTCHAR uniADB5
ENCODING 44469
BBX 9 11 1 -1
BITMAP
FA80
0A80
0A80
1280
FA80
2E80
2280
4080
7F80
4080
7F80
ENDCHAR
STARTCHAR uniADB6
ENCODING 44470
BBX 10 11 1 -1
BITMAP
FA80
0A80
0A80
1280
FA80
2E80
2280
4900
7900
4A80
7C40
ENDCHAR
STARTCHAR uniADB7
ENCODING 44471
BBX 10 11 1 -1
BITMAP
FA80
0A80
0A80
1280
FA80
2E80
2280
0400
0400
1B00
60C0
ENDCHAR
STARTCHAR uniADB8
ENCODING 44472
BBX 10 11 1 -1
BITMAP
FA80
0A80
0A80
1280
FA80
2E80
2280
1100
1100
2A80
C440
ENDCHAR
STARTCHAR uniADB9
ENCODING 44473
BBX 9 11 1 -1
BITMAP
FA80
0A80
0A80
1280
FA80
2E80
2280
3F00
4080
4080
3F00
ENDCHAR
STARTCHAR uniADBA
ENCODING 44474
BBX 9 11 1 -1
BITMAP
FA80
0A80
0A80
1280
FA80
2E80
2280
0000
7F80
0C00
7380
ENDCHAR
STARTCHAR uniADBB
ENCODING 44475
BBX 9 11 1 -1
BITMAP
FA80
0E80
0A80
1280
FA80
2280
1E00
0000
7F80
0C00
7380
ENDCHAR
STARTCHAR uniADBC
ENCODING 44476
BBX 9 11 1 -1
BITMAP
FA80
0E80
0A80
1280
FA80
2280
0000
7F80
0080
7F80
0080
ENDCHAR
STARTCHAR uniADBD
ENCODING 44477
BBX 9 11 1 -1
BITMAP
FA80
0E80
0A80
1280
FA80
2280
7F80
4000
7F80
4000
7F80
ENDCHAR
STARTCHAR uniADBE
ENCODING 44478
BBX 9 11 1 -1
BITMAP
FA80
0A80
0A80
1280
FA80
2E80
2280
7F80
1200
1200
7F80
ENDCHAR
STARTCHAR uniADBF
ENCODING 44479
BBX 10 11 1 -1
BITMAP
FA80
0E80
0A80
1280
FA80
2280
0400
7FC0
1100
2080
1F00
ENDCHAR
STARTCHAR uniADC0
ENCODING 44480
BBX 9 11 1 -1
BITMAP
FC80
0480
0480
0480
0880
FE80
1080
1080
1080
2080
0080
ENDCHAR
STARTCHAR uniADC1
ENCODING 44481
BBX 9 11 1 -1
BITMAP
7C80
0480
0480
0880
FE80
1080
1080
0000
7F80
0080
0080
ENDCHAR
STARTCHAR uniADC2
ENCODING 44482
BBX 9 11 1 -1
BITMAP
7C80
0480
0480
0880
FE80
1080
1080
0000
F780
1080
1080
ENDCHAR
STARTCHAR uniADC3
ENCODING 44483
BBX 9 11 1 -1
BITMAP
7C80
0480
0480
0880
FE80
1080
1080
0000
F200
1200
1D80
ENDCHAR
STARTCHAR uniADC4
ENCODING 44484
BBX 9 11 1 -1
BITMAP
FC80
0480
0480
0480
0880
FE80
1080
1080
4000
4000
7F80
ENDCHAR
STARTCHAR uniADC5
ENCODING 44485
BBX 9 11 1 -1
BITMAP
7C80
0480
0480
0880
FE80
1080
1080
0000
4F80
4200
7D80
ENDCHAR
STARTCHAR uniADC6
ENCODING 44486
BBX 10 11 1 -1
BITMAP
7C80
0480
0480
0880
FE80
1080
1080
0200
4FC0
4480
7B00
ENDCHAR
STARTCHAR uniADC7
ENCODING 44487
BBX 9 11 1 -1
BITMAP
7C80
0480
0480
0880
FE80
1080
1080
7F80
4000
4000
7F80
ENDCHAR
STARTCHAR uniADC8
ENCODING 44488
BBX 9 11 1 -1
BITMAP
7C80
0480
0480
0880
FE80
1080
7F80
0080
7F80
4000
7F80
ENDCHAR
STARTCHAR uniADC9
ENCODING 44489
BBX 9 11 1 -1
BITMAP
7C80
0480
0480
0880
FE80
1080
7F80
0880
7880
4080
7C80
ENDCHAR
STARTCHAR uniADCA
ENCODING 44490
BBX 9 11 1 -1
BITMAP
7C80
0480
0480
0880
FE80
1080
7B80
0A80
7A80
4280
7F80
ENDCHAR
STARTCHAR uniADCB
ENCODING 44491
BBX 9 11 1 -1
BITMAP
7C80
0480
0480
0880
FE80
1080
7A80
0A80
7B80
4280
7F80
ENDCHAR
STARTCHAR uniADCC
ENCODING 44492
BBX 10 11 1 -1
BITMAP
7C80
0480
0480
0880
FE80
1080
7900
0900
7900
4280
7C40
ENDCHAR
STARTCHAR uniADCD
ENCODING 44493
BBX 9 11 1 -1
BITMAP
7C80
0480
0480
0880
FE80
1080
7B80
0A00
7B80
4200
7F80
ENDCHAR
STARTCHAR uniADCE
ENCODING 44494
BBX 10 11 1 -1
BITMAP
7C80
0480
0480
0880
FE80
1080
7FC0
0A80
7A80
4280
7FC0
ENDCHAR
STARTCHAR uniADCF
ENCODING 44495
BBX 10 11 1 -1
BITMAP
7C80
0480
0480
0880
FE80
1080
7200
1FC0
7300
4480
7B00
ENDCHAR
STARTCHAR uniADD0
ENCODING 44496
BBX 9 11 1 -1
BITMAP
7C80
0480
0480
0880
FE80
1080
1080
0000
7F80
4080
7F80
ENDCHAR
STARTCHAR uniADD1
ENCODING 44497
BBX 9 11 1 -1
BITMAP
7C80
0480
0480
0880
FE80
1080
1080
4080
7F80
4080
7F80
ENDCHAR
STARTCHAR uniADD2
ENCODING 44498
BBX 10 11 1 -1
BITMAP
7C80
0480
0480
0880
FE80
1080
1080
4900
7900
4A80
7C40
ENDCHAR
STARTCHAR uniADD3
ENCODING 44499
BBX 9 11 1 -1
BITMAP
7C80
0480
0480
0880
FE80
1080
1080
0000
0800
3600
C180
ENDCHAR
STARTCHAR uniADD4
ENCODING 44500
BBX 10 11 1 -1
BITMAP
7C80
0480
0480
0880
FE80
1080
1080
1100
1100
2A80
C440
ENDCHAR
STARTCHAR uniADD5
ENCODING 44501
BBX 9 11 1 -1
BITMAP
7C80
0480
0480
0880
FE80
1080
1080
3F00
4080
4080
3F00
ENDCHAR
STARTCHAR uniADD6
ENCODING 44502
BBX 9 11 1 -1
BITMAP
7C80
0480
0480
0880
FE80
1080
1080
0000
7F80
0C00
7380
ENDCHAR
STARTCHAR uniADD7
ENCODING 44503
BBX 9 11 1 -1
BITMAP
7C80
0480
0480
0880
FE80
1080
1E00
0000
7F80
0C00
7380
ENDCHAR
STARTCHAR uniADD8
ENCODING 44504
BBX 9 11 1 -1
BITMAP
7C80
0480
0480
0880
FE80
1080
0000
7F80
0080
7F80
0080
ENDCHAR
STARTCHAR uniADD9
ENCODING 44505
BBX 9 11 1 -1
BITMAP
7C80
0480
0480
0880
FE80
1080
7F80
4000
7F80
4000
7F80
ENDCHAR
STARTCHAR uniADDA
ENCODING 44506
BBX 9 11 1 -1
BITMAP
7C80
0480
0480
0880
FE80
1080
1080
7F80
1200
1200
7F80
ENDCHAR
STARTCHAR uniADDB
ENCODING 44507
BBX 10 11 1 -1
BITMAP
7C80
0480
0480
0880
FE80
1080
0400
7FC0
1100
2080
1F00
ENDCHAR
STARTCHAR uniADDC
ENCODING 44508
BBX 10 11 1 -1
BITMAP
7F80
0080
0080
0080
0080
0100
FFC0
2100
2100
2100
2100
ENDCHAR
STARTCHAR uniADDD
ENCODING 44509
BBX 10 11 1 -1
BITMAP
7F80
0080
0080
0100
FFC0
2100
2100
7F80
0080
0080
0080
ENDCHAR
STARTCHAR uniADDE
ENCODING 44510
BBX 10 11 1 -1
BITMAP
7F80
0080
0080
0100
FFC0
2100
2100
7F80
0880
0880
0880
ENDCHAR
STARTCHAR uniADDF
ENCODING 44511
BBX 10 11 1 -1
BITMAP
7F80
0080
0080
0100
FFC0
2100
2100
7900
0900
0A80
0C40
ENDCHAR
STARTCHAR uniADE0
ENCODING 44512
BBX 10 11 1 -1
BITMAP
7F80
0080
0080
0080
0100
FFC0
1100
1100
4000
4000
7F80
ENDCHAR
STARTCHAR uniADE1
ENCODING 44513
BBX 10 11 1 -1
BITMAP
7F80
0080
0080
0100
FFC0
2100
2100
4F80
4200
4500
7880
ENDCHAR
STARTCHAR uniADE2
ENCODING 44514
BBX 10 11 1 -1
BITMAP
7F80
0080
0080
0100
FFC0
2100
2100
4200
4FC0
4480
7B00
ENDCHAR
STARTCHAR uniADE3
ENCODING 44515
BBX 10 11 1 -1
BITMAP
7F80
0080
0080
0100
FFC0
2100
2100
7F80
4000
4000
7F80
ENDCHAR
STARTCHAR uniADE4
ENCODING 44516
BBX 10 11 1 -1
BITMAP
7F80
0080
0080
0100
FFC0
2100
7F80
0080
7F80
4000
7F80
ENDCHAR
STARTCHAR uniADE5
ENCODING 44517
BBX 10 11 1 -1
BITMAP
7F80
0080
0080
0100
FFC0
2100
7F80
0880
7880
4080
7C80
ENDCHAR
STARTCHAR uniADE6
ENCODING 44518
BBX 10 11 1 -1
BITMAP
7F80
0080
0080
0100
FFC0
2100
7B80
0A80
7A80
4280
7F80
ENDCHAR
STARTCHAR uniADE7
ENCODING 44519
BBX 10 11 1 -1
BITMAP
7F80
0080
0080
0100
FFC0
2100
7B80
0A80
7B80
4280
7F80
ENDCHAR
STARTCHAR uniADE8
ENCODING 44520
BBX 10 11 1 -1
BITMAP
7F80
0080
0080
0100
FFC0
2100
7900
0900
7900
4280
7C40
ENDCHAR
STARTCHAR uniADE9
ENCODING 44521
BBX 10 11 1 -1
BITMAP
7F80
0080
0080
0100
FFC0
2100
7B80
0A00
7B80
4200
7F80
ENDCHAR
STARTCHAR uniADEA
ENCODING 44522
BBX 10 11 1 -1
BITMAP
7F80
0080
0080
0100
FFC0
2100
7FC0
0A80
7A80
4280
7FC0
ENDCHAR
STARTCHAR uniADEB
ENCODING 44523
BBX 10 11 1 -1
BITMAP
7F80
0080
0080
0100
FFC0
2100
7B00
0800
7FC0
4480
7B00
ENDCHAR
STARTCHAR uniADEC
ENCODING 44524
BBX 10 11 1 -1
BITMAP
7F80
0080
0080
0100
FFC0
2100
2100
7F80
4080
4080
7F80
ENDCHAR
STARTCHAR uniADED
ENCODING 44525
BBX 10 11 1 -1
BITMAP
7F80
0080
0080
0100
FFC0
1200
1200
4080
7F80
4080
7F80
ENDCHAR
STARTCHAR uniADEE
ENCODING 44526
BBX 10 11 1 -1
BITMAP
7F80
0080
0080
0100
FFC0
1200
1200
4900
7900
4A80
7C40
ENDCHAR
STARTCHAR uniADEF
ENCODING 44527
BBX 10 11 1 -1
BITMAP
7F80
0080
0080
0100
FFC0
2100
2100
0400
0C00
1200
6180
ENDCHAR
STARTCHAR uniADF0
ENCODING 44528
BBX 10 11 1 -1
BITMAP
7F80
0080
0080
0100
FFC0
2100
2100
1100
1100
2A80
C440
ENDCHAR
STARTCHAR uniADF1
ENCODING 44529
BBX 10 11 1 -1
BITMAP
7F80
0080
0080
0100
FFC0
2100
2100
3F00
4080
4080
3F00
ENDCHAR
STARTCHAR uniADF2
ENCODING 44530
BBX 10 11 1 -1
BITMAP
7F80
0080
0080
0100
FFC0
2100
2100
7F80
0C00
1200
6180
ENDCHAR
STARTCHAR uniADF3
ENCODING 44531
BBX 10 11 1 -1
BITMAP
7F80
0080
0080
0100
FFC0
2100
3F00
0000
7F80
0C00
7380
ENDCHAR
STARTCHAR uniADF4
ENCODING 44532
BBX 10 11 1 -1
BITMAP
7F80
0080
0080
0100
FFC0
2100
2100
7F80
0080
7F80
0080
ENDCHAR
STARTCHAR uniADF5
ENCODING 44533
BBX 10 11 1 -1
BITMAP
7F80
0080
0080
0100
FFC0
2100
7F80
4000
7F80
4000
7F80
ENDCHAR
STARTCHAR uniADF6
ENCODING 44534
BBX 10 11 1 -1
BITMAP
7F80
0080
0080
0100
FFC0
2100
2100
7F80
1200
1200
7F80
ENDCHAR
STARTCHAR uniADF7
ENCODING 44535
BBX 10 11 1 -1
BITMAP
7F80
0080
0080
0100
FFC0
2100
3F00
0000
FFC0
2100
1E00
ENDCHAR
STARTCHAR uniADF8
ENCODING 44536
BBX 10 10 1 0
BITMAP
7F80
0080
0080
0080
0080
0080
0080
0080
0100
FFC0
ENDCHAR
STARTCHAR uniADF9
ENCODING 44537
BBX 10 11 1 -1
BITMAP
7F80
0080
0080
0100
FFC0
0000
0000
7F80
0080
0080
0080
ENDCHAR
STARTCHAR uniADFA
ENCODING 44538
BBX 10 11 1 -1
BITMAP
7F80
0080
0080
0100
FFC0
0000
0000
7F80
0880
0880
0880
ENDCHAR
STARTCHAR uniADFB
ENCODING 44539
BBX 10 11 1 -1
BITMAP
7F80
0080
0080
0100
FFC0
0000
0000
7900
0900
0A80
0C40
ENDCHAR
STARTCHAR uniADFC
ENCODING 44540
BBX 10 11 1 -1
BITMAP
7F80
0080
0080
0080
0100
FFC0
0000
0000
4000
4000
7F80
ENDCHAR
STARTCHAR uniADFD
ENCODING 44541
BBX 10 11 1 -1
BITMAP
7F80
0080
0080
0100
FFC0
0000
0000
4F80
4200
4500
7880
ENDCHAR
STARTCHAR uniADFE
ENCODING 44542
BBX 10 11 1 -1
BITMAP
7F80
0080
0080
0100
FFC0
0000
0000
4200
4FC0
4480
7B00
ENDCHAR
STARTCHAR uniADFF
ENCODING 44543
BBX 10 11 1 -1
BITMAP
7F80
0080
0080
0100
FFC0
0000
0000
7F80
4000
4000
7F80
ENDCHAR
STARTCHAR uniAE00
ENCODING 44544
BBX 10 11 1 -1
BITMAP
7F80
0080
0080
0100
FFC0
0000
7F80
0080
7F80
4000
7F80
ENDCHAR
STARTCHAR uniAE01
ENCODING 44545
BBX 10 11 1 -1
BITMAP
7F80
0080
0080
0100
FFC0
0000
7F80
0880
7880
4080
7C80
ENDCHAR
STARTCHAR uniAE02
ENCODING 44546
BBX 10 11 1 -1
BITMAP
7F80
0080
0080
0100
FFC0
0000
7B80
0A80
7A80
4280
7F80
ENDCHAR
STARTCHAR uniAE03
ENCODING 44547
BBX 10 11 1 -1
BITMAP
7F80
0080
0080
0100
FFC0
0000
7A80
0A80
7B80
4280
7F80
ENDCHAR
STARTCHAR uniAE04
ENCODING 44548
BBX 10 11 1 -1
BITMAP
7F80
0080
0080
0100
FFC0
0000
7900
0900
7900
4280
7C40
ENDCHAR
STARTCHAR uniAE05
ENCODING 44549
BBX 10 11 1 -1
BITMAP
7F80
0080
0080
0100
FFC0
0000
7B80
0A00
7B80
4200
7F80
ENDCHAR
STARTCHAR uniAE06
ENCODING 44550
BBX 10 11 1 -1
BITMAP
7F80
0080
0080
0100
FFC0
0000
7FC0
0A80
7A80
4280
7FC0
ENDCHAR
STARTCHAR uniAE07
ENCODING 44551
BBX 10 11 1 -1
BITMAP
7F80
0080
0080
0100
FFC0
0000
7B00
0800
7FC0
4480
7B00
ENDCHAR
STARTCHAR uniAE08
ENCODING 44552
BBX 10 11 1 -1
BITMAP
7F80
0080
0080
0100
FFC0
0000
0000
7F80
4080
4080
7F80
ENDCHAR
STARTCHAR uniAE09
ENCODING 44553
BBX 10 11 1 -1
BITMAP
7F80
0080
0080
0100
FFC0
0000
0000
4080
7F80
4080
7F80
ENDCHAR
STARTCHAR uniAE0A
ENCODING 44554
BBX 10 11 1 -1
BITMAP
7F80
0080
0080
0100
FFC0
0000
0000
4900
7900
4A80
7C40
ENDCHAR
STARTCHAR uniAE0B
ENCODING 44555
BBX 10 11 1 -1
BITMAP
7F80
0080
0080
0100
FFC0
0000
0000
0400
0C00
1200
6180
ENDCHAR
STARTCHAR uniAE0C
ENCODING 44556
BBX 10 11 1 -1
BITMAP
7F80
0080
0080
0100
FFC0
0000
0000
1100
1100
2A80
C440
ENDCHAR
STARTCHAR uniAE0D
ENCODING 44557
BBX 10 11 1 -1
BITMAP
7F80
0080
0080
0100
FFC0
0000
0000
3F00
4080
4080
3F00
ENDCHAR
STARTCHAR uniAE0E
ENCODING 44558
BBX 10 11 1 -1
BITMAP
7F80
0080
0080
0100
FFC0
0000
0000
7F80
0C00
1200
6180
ENDCHAR
STARTCHAR uniAE0F
ENCODING 44559
BBX 10 11 1 -1
BITMAP
7F80
0080
0080
0100
FFC0
0000
1E00
0000
7F80
0C00
7380
ENDCHAR
STARTCHAR uniAE10
ENCODING 44560
BBX 10 11 1 -1
BITMAP
7F80
0080
0080
0100
FFC0
0000
0000
7F80
0080
7F80
0080
ENDCHAR
STARTCHAR uniAE11
ENCODING 44561
BBX 10 11 1 -1
BITMAP
7F80
0080
0080
0100
FFC0
0000
7F80
4000
7F80
4000
7F80
ENDCHAR
STARTCHAR uniAE12
ENCODING 44562
BBX 10 11 1 -1
BITMAP
7F80
0080
0080
0100
FFC0
0000
0000
7F80
1200
1200
7F80
ENDCHAR
STARTCHAR uniAE13
ENCODING 44563
BBX 10 11 1 -1
BITMAP
7F80
0080
0080
0100
FFC0
0000
1E00
0000
FFC0
2100
1E00
ENDCHAR
STARTCHAR uniAE14
ENCODING 44564
BBX 9 11 1 -1
BITMAP
FC80
0480
0480
0480
0480
0480
0480
0880
FF80
0080
0080
ENDCHAR
STARTCHAR uniAE15
ENCODING 44565
BBX 9 11 1 -1
BITMAP
7C80
0480
0480
0880
FF80
0080
0080
0000
7F80
0080
0080
ENDCHAR
STARTCHAR uniAE16
ENCODING 44566
BBX 9 11 1 -1
BITMAP
7C80
0480
0480
0880
FF80
0080
0080
0000
F780
1080
1080
ENDCHAR
STARTCHAR uniAE17
ENCODING 44567
BBX 9 11 1 -1
BITMAP
7C80
0480
0480
0880
FF80
0080
0080
0000
F200
1200
1D80
ENDCHAR
STARTCHAR uniAE18
ENCODING 44568
BBX 9 11 1 -1
BITMAP
FC80
0480
0480
0480
0880
FF80
0080
0080
4000
4000
7F80
ENDCHAR
STARTCHAR uniAE19
ENCODING 44569
BBX 9 11 1 -1
BITMAP
7C80
0480
0480
0880
FF80
0080
0080
0000
4F80
4200
7D80
ENDCHAR
STARTCHAR uniAE1A
ENCODING 44570
BBX 10 11 1 -1
BITMAP
7C80
0480
0480
0880
FF80
0080
0080
0200
4FC0
4480
7B00
ENDCHAR
STARTCHAR uniAE1B
ENCODING 44571
BBX 9 11 1 -1
BITMAP
7C80
0480
0480
0880
FF80
0080
0080
7F80
4000
4000
7F80
ENDCHAR
STARTCHAR uniAE1C
ENCODING 44572
BBX 9 11 1 -1
BITMAP
7C80
0480
0480
0880
FF80
0080
7F80
0080
7F80
4000
7F80
ENDCHAR
STARTCHAR uniAE1D
ENCODING 44573
BBX 9 11 1 -1
BITMAP
7C80
0480
0480
0880
FF80
0080
7F80
0880
7880
4080
7C80
ENDCHAR
STARTCHAR uniAE1E
ENCODING 44574
BBX 9 11 1 -1
BITMAP
7C80
0480
0480
0880
FF80
0080
7B80
0A80
7A80
4280
7F80
ENDCHAR
STARTCHAR uniAE1F
ENCODING 44575
BBX 9 11 1 -1
BITMAP
7C80
0480
0480
0880
FF80
0080
7A80
0A80
7B80
4280
7F80
ENDCHAR
STARTCHAR uniAE20
ENCODING 44576
BBX 10 11 1 -1
BITMAP
7C80
0480
0480
0880
FF80
0080
7900
0900
7900
4280
7C40
ENDCHAR
STARTCHAR uniAE21
ENCODING 44577
BBX 9 11 1 -1
BITMAP
7C80
0480
0480
0880
FF80
0080
7B80
0A00
7B80
4200
7F80
ENDCHAR
STARTCHAR uniAE22
ENCODING 44578
BBX 10 11 1 -1
BITMAP
7C80
0480
0480
0880
FF80
0080
7FC0
0A80
7A80
4280
7FC0
ENDCHAR
STARTCHAR uniAE23
ENCODING 44579
BBX 10 11 1 -1
BITMAP
7C80
0480
0480
0880
FF80
0080
7200
1FC0
7300
4480
7B00
ENDCHAR
STARTCHAR uniAE24
ENCODING 44580
BBX 9 11 1 -1
BITMAP
7C80
0480
0480
0880
FF80
0080
0080
0000
7F80
4080
7F80
ENDCHAR
STARTCHAR uniAE25
ENCODING 44581
BBX 9 11 1 -1
BITMAP
7C80
0480
0480
0880
FF80
0080
0000
4080
7F80
4080
7F80
ENDCHAR
STARTCHAR uniAE26
ENCODING 44582
BBX 10 11 1 -1
BITMAP
7C80
0480
0480
0880
FF80
0080
0000
4900
7900
4A80
7C40
ENDCHAR
STARTCHAR uniAE27
ENCODING 44583
BBX 9 11 1 -1
BITMAP
7C80
0480
0480
0880
FF80
0080
0080
0000
0800
3600
C180
ENDCHAR
STARTCHAR uniAE28
ENCODING 44584
BBX 10 11 1 -1
BITMAP
7C80
0480
0480
0880
FF80
0080
0080
1100
1100
2A80
C440
ENDCHAR
STARTCHAR uniAE29
ENCODING 44585
BBX 9 11 1 -1
BITMAP
7C80
0480
0480
0880
FF80
0080
0080
3F00
4080
4080
3F00
ENDCHAR
STARTCHAR uniAE2A
ENCODING 44586
BBX 9 11 1 -1
BITMAP
7C80
0480
0480
0880
FF80
0080
0080
0000
7F80
0C00
7380
ENDCHAR
STARTCHAR uniAE2B
ENCODING 44587
BBX 9 11 1 -1
BITMAP
7C80
0480
0480
0880
FF80
0080
1E00
0000
7F80
0C00
7380
ENDCHAR
STARTCHAR uniAE2C
ENCODING 44588
BBX 9 11 1 -1
BITMAP
7C80
0480
0480
0880
FF80
0080
0000
7F80
0080
7F80
0080
ENDCHAR
STARTCHAR uniAE2D
ENCODING 44589
BBX 9 11 1 -1
BITMAP
7C80
0480
0480
0880
FF80
0080
7F80
4000
7F80
4000
7F80
ENDCHAR
STARTCHAR uniAE2E
ENCODING 44590
BBX 9 11 1 -1
BITMAP
7C80
0480
0480
0880
FF80
0080
0080
7F80
1200
1200
7F80
ENDCHAR
STARTCHAR uniAE2F
ENCODING 44591
BBX 10 11 1 -1
BITMAP
7C80
0480
0480
0880
FF80
0080
0400
7FC0
1100
2080
1F00
ENDCHAR
STARTCHAR uniAE30
ENCODING 44592
BBX 9 11 1 -1
BITMAP
FC80
0480
0480
0480
0480
0880
0880
1080
2080
C080
0080
ENDCHAR
STARTCHAR uniAE31
ENCODING 44593
BBX 9 11 1 -1
BITMAP
FC80
0480
0480
0880
1080
E080
0000
7F80
0080
0080
0080
ENDCHAR
STARTCHAR uniAE32
ENCODING 44594
BBX 9 11 1 -1
BITMAP
FC80
0480
0480
0880
1080
E080
0000
F780
1080
1080
1080
ENDCHAR
STARTCHAR uniAE33
ENCODING 44595
BBX 9 11 1 -1
BITMAP
FC80
0480
0480
0880
1080
E080
0080
F200
1200
1500
1880
ENDCHAR
STARTCHAR uniAE34
ENCODING 44596
BBX 9 11 1 -1
BITMAP
FC80
0480
0480
0480
0880
1080
E080
0080
4000
4000
7F80
ENDCHAR
STARTCHAR uniAE35
ENCODING 44597
BBX 9 11 1 -1
BITMAP
FC80
0480
0480
0880
1080
E080
0000
4F80
4200
4500
7880
ENDCHAR
STARTCHAR uniAE36
ENCODING 44598
BBX 10 11 1 -1
BITMAP
FC80
0480
0480
0880
1080
E080
0200
4FC0
4300
4480
7B00
ENDCHAR
STARTCHAR uniAE37
ENCODING 44599
BBX 9 11 1 -1
BITMAP
FC80
0480
0480
0880
1080
E080
0000
7F80
4000
4000
7F80
ENDCHAR
STARTCHAR uniAE38
ENCODING 44600
BBX 9 11 1 -1
BITMAP
FC80
0480
0480
0880
F080
0080
7F80
0080
7F80
4000
7F80
ENDCHAR
STARTCHAR uniAE39
ENCODING 44601
BBX 9 11 1 -1
BITMAP
FC80
0480
0480
0880
F080
0080
7F80
0880
7880
4080
7C80
ENDCHAR
STARTCHAR uniAE3A
ENCODING 44602
BBX 9 11 1 -1
BITMAP
FC80
0480
0480
0880
F080
0080
7B80
0A80
7A80
4280
7F80
ENDCHAR
STARTCHAR uniAE3B
ENCODING 44603
BBX 9 11 1 -1
BITMAP
FC80
0480
0480
0880
F080
0080
7A80
0A80
7B80
4280
7F80
ENDCHAR
STARTCHAR uniAE3C
ENCODING 44604
BBX 10 11 1 -1
BITMAP
FC80
0480
0480
0880
F080
0080
7900
0900
7900
4280
7C40
ENDCHAR
STARTCHAR uniAE3D
ENCODING 44605
BBX 9 11 1 -1
BITMAP
FC80
0480
0480
0880
F080
0080
7B80
0A00
7B80
4200
7F80
ENDCHAR
STARTCHAR uniAE3E
ENCODING 44606
BBX 10 11 1 -1
BITMAP
FC80
0480
0480
0880
F080
0080
7FC0
0A80
7A80
4280
7FC0
ENDCHAR
STARTCHAR uniAE3F
ENCODING 44607
BBX 10 11 1 -1
BITMAP
FC80
0480
0480
0880
F080
0080
7200
1FC0
7300
4480
7B00
ENDCHAR
STARTCHAR uniAE40
ENCODING 44608
BBX 9 11 1 -1
BITMAP
FC80
0480
0480
0880
1080
E080
0000
7F80
4080
4080
7F80
ENDCHAR
STARTCHAR uniAE41
ENCODING 44609
BBX 9 11 1 -1
BITMAP
FC80
0480
0480
0880
1080
E080
0000
4080
7F80
4080
7F80
ENDCHAR
STARTCHAR uniAE42
ENCODING 44610
BBX 10 11 1 -1
BITMAP
FC80
0480
0480
0880
1080
E080
0000
4900
7900
4A80
7C40
ENDCHAR
STARTCHAR uniAE43
ENCODING 44611
BBX 10 11 1 -1
BITMAP
FC80
0480
0480
0880
1080
E080
0080
0400
0400
1B00
60C0
ENDCHAR
STARTCHAR uniAE44
ENCODING 44612
BBX 10 11 1 -1
BITMAP
FC80
0480
0480
0880
1080
E080
0000
1100
1100
2A80
C440
ENDCHAR
STARTCHAR uniAE45
ENCODING 44613
BBX 9 11 1 -1
BITMAP
FC80
0480
0480
0880
1080
E080
0080
3F00
4080
4080
3F00
ENDCHAR
STARTCHAR uniAE46
ENCODING 44614
BBX 9 11 1 -1
BITMAP
FC80
0480
0480
0880
1080
E080
0000
7F80
0C00
1200
6180
ENDCHAR
STARTCHAR uniAE47
ENCODING 44615
BBX 9 11 1 -1
BITMAP
FC80
0480
0480
0880
F080
0080
1E00
0000
7F80
0C00
7380
ENDCHAR
STARTCHAR uniAE48
ENCODING 44616
BBX 9 11 1 -1
BITMAP
FC80
0480
0480
0880
F080
0080
0000
7F80
0080
7F80
0080
ENDCHAR
STARTCHAR uniAE49
ENCODING 44617
BBX 9 11 1 -1
BITMAP
FC80
0480
0480
0880
F080
0080
7F80
4000
7F80
4000
7F80
ENDCHAR
STARTCHAR uniAE4A
ENCODING 44618
BBX 9 11 1 -1
BITMAP
FC80
0480
0480
0880
1080
E080
0000
7F80
1200
1200
7F80
ENDCHAR
STARTCHAR uniAE4B
ENCODING 44619
BBX 10 11 1 -1
BITMAP
FC80
0480
0480
0880
F080
0080
0400
7FC0
1100
2080
1F00
ENDCHAR
STARTCHAR uniAE4C
ENCODING 44620
BBX 11 11 1 -1
BITMAP
FC80
2480
2480
2480
2480
24E0
2480
2480
4880
9080
0080
ENDCHAR
STARTCHAR uniAE4D
ENCODING 44621
BBX 11 11 1 -1
BITMAP
FC80
2480
24E0
2480
4880
9080
0000
7F80
0080
0080
0080
ENDCHAR
STARTCHAR uniAE4E
ENCODING 44622
BBX 11 11 1 -1
BITMAP
FC80
2480
24E0
2480
4880
9080
0000
F780
1080
1080
1080
ENDCHAR
STARTCHAR uniAE4F
ENCODING 44623
BBX 11 11 1 -1
BITMAP
FC80
2480
24E0
2480
4880
9080
0080
F200
1200
1500
1880
ENDCHAR
STARTCHAR uniAE50
ENCODING 44624
BBX 11 11 1 -1
BITMAP
FC80
2480
2480
24E0
4480
8880
1080
0080
4000
4000
7F80
ENDCHAR
STARTCHAR uniAE51
ENCODING 44625
BBX 11 11 1 -1
BITMAP
FC80
2480
24E0
2480
4880
9080
0000
4F80
4200
4500
7880
ENDCHAR
STARTCHAR uniAE52
ENCODING 44626
BBX 11 11 1 -1
BITMAP
FC80
2480
24E0
2480
4880
9080
0200
4FC0
4300
4480
7B00
ENDCHAR
STARTCHAR uniAE53
ENCODING 44627
BBX 11 11 1 -1
BITMAP
FC80
2480
24E0
2480
4880
9080
0000
7F80
4000
4000
7F80
ENDCHAR
STARTCHAR uniAE54
ENCODING 44628
BBX 11 11 1 -1
BITMAP
FC80
2480
24E0
4880
9080
0080
7F80
0080
7F80
4000
7F80
ENDCHAR
STARTCHAR uniAE55
ENCODING 44629
BBX 11 11 1 -1
BITMAP
FC80
2480
24E0
4880
9080
0080
7F80
0880
7880
4080
7C80
ENDCHAR
STARTCHAR uniAE56
ENCODING 44630
BBX 11 11 1 -1
BITMAP
FC80
2480
24E0
4880
9080
0080
7B80
0A80
7A80
4280
7F80
ENDCHAR
STARTCHAR uniAE57
ENCODING 44631
BBX 11 11 1 -1
BITMAP
FC80
2480
24E0
4880
9080
0080
7A80
0A80
7B80
4280
7F80
ENDCHAR
STARTCHAR uniAE58
ENCODING 44632
BBX 11 11 1 -1
BITMAP
FC80
2480
24E0
4880
9080
0080
7900
0900
7900
4280
7C40
ENDCHAR
STARTCHAR uniAE59
ENCODING 44633
BBX 11 11 1 -1
BITMAP
FC80
2480
24E0
4880
9080
0080
7B80
0A00
7B80
4200
7F80
ENDCHAR
STARTCHAR uniAE5A
ENCODING 44634
BBX 11 11 1 -1
BITMAP
FC80
2480
24E0
4880
9080
0080
7FC0
0A80
7A80
4280
7FC0
ENDCHAR
STARTCHAR uniAE5B
ENCODING 44635
BBX 11 11 1 -1
BITMAP
FC80
2480
24E0
4880
9080
0080
7200
1FC0
7300
4480
7B00
ENDCHAR
STARTCHAR uniAE5C
ENCODING 44636
BBX 11 11 1 -1
BITMAP
FC80
2480
24E0
2480
4880
9080
0000
7F80
4080
4080
7F80
ENDCHAR
STARTCHAR uniAE5D
ENCODING 44637
BBX 11 11 1 -1
BITMAP
FC80
2480
2480
24E0
4880
9080
0000
4080
7F80
4080
7F80
ENDCHAR
STARTCHAR uniAE5E
ENCODING 44638
BBX 11 11 1 -1
BITMAP
FC80
2480
24E0
2480
4880
9080
0000
4900
7900
4A80
7C40
ENDCHAR
STARTCHAR uniAE5F
ENCODING 44639
BBX 11 11 1 -1
BITMAP
FC80
2480
24E0
2480
4880
9080
0080
0400
0400
1B00
60C0
ENDCHAR
STARTCHAR uniAE60
ENCODING 44640
BBX 11 11 1 -1
BITMAP
FC80
2480
24E0
2480
4880
9080
0000
1100
1100
2A80
C440
ENDCHAR
STARTCHAR uniAE61
ENCODING 44641
BBX 11 11 1 -1
BITMAP
FC80
2480
24E0
2480
4880
9080
0080
3F00
4080
4080
3F00
ENDCHAR
STARTCHAR uniAE62
ENCODING 44642
BBX 11 11 1 -1
BITMAP
FC80
2480
24E0
2480
4880
9080
0000
7F80
0C00
1200
6180
ENDCHAR
STARTCHAR uniAE63
ENCODING 44643
BBX 11 11 1 -1
BITMAP
FC80
2480
24E0
4880
9080
0080
1E00
0000
7F80
0C00
7380
ENDCHAR
STARTCHAR uniAE64
ENCODING 44644
BBX 11 11 1 -1
BITMAP
FC80
2480
24E0
4880
9080
0080
0000
7F80
0080
7F80
0080
ENDCHAR
STARTCHAR uniAE65
ENCODING 44645
BBX 11 11 1 -1
BITMAP
FC80
2480
24E0
4880
9080
0080
7F80
4000
7F80
4000
7F80
ENDCHAR
STARTCHAR uniAE66
ENCODING 44646
BBX 11 11 1 -1
BITMAP
FC80
2480
24E0
2480
4880
9080
0000
7F80
1200
1200
7F80
ENDCHAR
STARTCHAR uniAE67
ENCODING 44647
BBX 11 11 1 -1
BITMAP
FC80
2480
24E0
4880
9080
0080
0400
7FC0
1100
2080
1F00
ENDCHAR
STARTCHAR uniAE68
ENCODING 44648
BBX 9 11 1 -1
BITMAP
DA80
4A80
4A80
4A80
4A80
4B80
4A80
4A80
4A80
9280
0280
ENDCHAR
STARTCHAR uniAE69
ENCODING 44649
BBX 9 11 1 -1
BITMAP
DA80
4A80
4B80
4A80
4A80
9280
0000
7F80
0080
0080
0080
ENDCHAR
STARTCHAR uniAE6A
ENCODING 44650
BBX 9 11 1 -1
BITMAP
DA80
4A80
4B80
4A80
4A80
9280
0000
F780
1080
1080
1080
ENDCHAR
STARTCHAR uniAE6B
ENCODING 44651
BBX 9 11 1 -1
BITMAP
DA80
4A80
4B80
4A80
4A80
9280
0080
F200
1200
1500
1880
ENDCHAR
STARTCHAR uniAE6C
ENCODING 44652
BBX 9 11 1 -1
BITMAP
DA80
4A80
4A80
4B80
4A80
9280
0280
0080
4000
4000
7F80
ENDCHAR
STARTCHAR uniAE6D
ENCODING 44653
BBX 9 11 1 -1
BITMAP
DA80
4A80
4B80
4A80
4A80
9280
0000
4F80
4200
4500
7880
ENDCHAR
STARTCHAR uniAE6E
ENCODING 44654
BBX 10 11 1 -1
BITMAP
DA80
4A80
4B80
4A80
4A80
9280
0200
4FC0
4300
4480
7B00
ENDCHAR
STARTCHAR uniAE6F
ENCODING 44655
BBX 9 11 1 -1
BITMAP
DA80
4A80
4B80
4A80
4A80
9280
0000
7F80
4000
4000
7F80
ENDCHAR
STARTCHAR uniAE70
ENCODING 44656
BBX 9 11 1 -1
BITMAP
DA80
4A80
4B80
4A80
9280
0280
7F80
0080
7F80
4000
7F80
ENDCHAR
STARTCHAR uniAE71
ENCODING 44657
BBX 9 11 1 -1
BITMAP
DA80
4A80
4B80
4A80
9280
0280
7F80
0880
7880
4080
7C80
ENDCHAR
STARTCHAR uniAE72
ENCODING 44658
BBX 9 11 1 -1
BITMAP
DA80
4A80
4B80
4A80
9280
0280
7B80
0A80
7A80
4280
7F80
ENDCHAR
STARTCHAR uniAE73
ENCODING 44659
BBX 9 11 1 -1
BITMAP
DA80
4A80
4B80
4A80
9280
0280
7A80
0A80
7B80
4280
7F80
ENDCHAR
STARTCHAR uniAE74
ENCODING 44660
BBX 10 11 1 -1
BITMAP
DA80
4A80
4B80
4A80
9280
0280
7900
0900
7900
4280
7C40
ENDCHAR
STARTCHAR uniAE75
ENCODING 44661
BBX 9 11 1 -1
BITMAP
DA80
4A80
4B80
4A80
9280
0280
7B80
0A00
7B80
4200
7F80
ENDCHAR
STARTCHAR uniAE76
ENCODING 44662
BBX 10 11 1 -1
BITMAP
DA80
4A80
4B80
4A80
9280
0280
7FC0
0A80
7A80
4280
7FC0
ENDCHAR
STARTCHAR uniAE77
ENCODING 44663
BBX 10 11 1 -1
BITMAP
DA80
4A80
4B80
4A80
9280
0280
7200
1FC0
7300
4480
7B00
ENDCHAR
STARTCHAR uniAE78
ENCODING 44664
BBX 9 11 1 -1
BITMAP
DA80
4A80
4B80
4A80
4A80
9280
0000
7F80
4080
4080
7F80
ENDCHAR
STARTCHAR uniAE79
ENCODING 44665
BBX 9 11 1 -1
BITMAP
DA80
4A80
4B80
4A80
4A80
9280
0000
4080
7F80
4080
7F80
ENDCHAR
STARTCHAR uniAE7A
ENCODING 44666
BBX 10 11 1 -1
BITMAP
DA80
4A80
4B80
4A80
4A80
9280
0000
4900
7900
4A80
7C40
ENDCHAR
STARTCHAR uniAE7B
ENCODING 44667
BBX 9 11 1 -1
BITMAP
DA80
4A80
4B80
4A80
4A80
9280
0080
0800
0800
3600
C180
ENDCHAR
STARTCHAR uniAE7C
ENCODING 44668
BBX 10 11 1 -1
BITMAP
DA80
4A80
4B80
4A80
4A80
9280
0000
1100
1100
2A80
C440
ENDCHAR
STARTCHAR uniAE7D
ENCODING 44669
BBX 9 11 1 -1
BITMAP
DA80
4A80
4B80
4A80
4A80
9280
0080
3F00
4080
4080
3F00
ENDCHAR
STARTCHAR uniAE7E
ENCODING 44670
BBX 9 11 1 -1
BITMAP
DA80
4A80
4B80
4A80
4A80
9280
0000
7F80
0C00
1200
6180
ENDCHAR
STARTCHAR uniAE7F
ENCODING 44671
BBX 9 11 1 -1
BITMAP
DA80
4A80
4B80
4A80
9280
0280
1E00
0000
7F80
0C00
7380
ENDCHAR
STARTCHAR uniAE80
ENCODING 44672
BBX 9 11 1 -1
BITMAP
DA80
4A80
4B80
4A80
9280
0280
0000
7F80
0080
7F80
0080
ENDCHAR
STARTCHAR uniAE81
ENCODING 44673
BBX 9 11 1 -1
BITMAP
DA80
4A80
4B80
4A80
9280
0280
7F80
4000
7F80
4000
7F80
ENDCHAR
STARTCHAR uniAE82
ENCODING 44674
BBX 9 11 1 -1
BITMAP
DA80
4A80
4B80
4A80
4A80
9280
0000
7F80
1200
1200
7F80
ENDCHAR
STARTCHAR uniAE83
ENCODING 44675
BBX 10 11 1 -1
BITMAP
DA80
4A80
4B80
4A80
9280
0280
0800
FFC0
2100
4080
3F00
ENDCHAR
STARTCHAR uniAE84
ENCODING 44676
BBX 11 11 1 -1
BITMAP
FC80
2480
2480
24E0
2480
2480
2480
24E0
4880
9080
0080
ENDCHAR
STARTCHAR uniAE85
ENCODING 44677
BBX 11 11 1 -1
BITMAP
FC80
24E0
2480
2480
48E0
9080
0000
7F80
0080
0080
0080
ENDCHAR
STARTCHAR uniAE86
ENCODING 44678
BBX 11 11 1 -1
BITMAP
FC80
24E0
2480
2480
48E0
9080
0000
F780
1080
1080
1080
ENDCHAR
STARTCHAR uniAE87
ENCODING 44679
BBX 11 11 1 -1
BITMAP
FC80
24E0
2480
2480
48E0
9080
0080
F200
1200
1500
1880
ENDCHAR
STARTCHAR uniAE88
ENCODING 44680
BBX 11 11 1 -1
BITMAP
FC80
2480
24E0
2480
4480
88E0
1080
0080
4000
4000
7F80
ENDCHAR
STARTCHAR uniAE89
ENCODING 44681
BBX 11 11 1 -1
BITMAP
FC80
24E0
2480
2480
48E0
9080
0000
4F80
4200
4500
7880
ENDCHAR
STARTCHAR uniAE8A
ENCODING 44682
BBX 11 11 1 -1
BITMAP
FC80
24E0
2480
2480
48E0
9080
0200
4FC0
4300
4480
7B00
ENDCHAR
STARTCHAR uniAE8B
ENCODING 44683
BBX 11 11 1 -1
BITMAP
FC80
24E0
2480
2480
48E0
9080
0000
7F80
4000
4000
7F80
ENDCHAR
STARTCHAR uniAE8C
ENCODING 44684
BBX 11 11 1 -1
BITMAP
FC80
24E0
2480
4880
90E0
0080
7F80
0080
7F80
4000
7F80
ENDCHAR
STARTCHAR uniAE8D
ENCODING 44685
BBX 11 11 1 -1
BITMAP
FC80
24E0
2480
4880
90E0
0080
7F80
0880
7880
4080
7C80
ENDCHAR
STARTCHAR uniAE8E
ENCODING 44686
BBX 11 11 1 -1
BITMAP
FC80
24E0
2480
4880
90E0
0080
7B80
0A80
7A80
4280
7F80
ENDCHAR
STARTCHAR uniAE8F
ENCODING 44687
BBX 11 11 1 -1
BITMAP
FC80
24E0
2480
4880
90E0
0080
7A80
0A80
7B80
4280
7F80
ENDCHAR
STARTCHAR uniAE90
ENCODING 44688
BBX 11 11 1 -1
BITMAP
FC80
24E0
2480
4880
90E0
0080
7900
0900
7900
4280
7C40
ENDCHAR
STARTCHAR uniAE91
ENCODING 44689
BBX 11 11 1 -1
BITMAP
FC80
24E0
2480
4880
90E0
0080
7B80
0A00
7B80
4200
7F80
ENDCHAR
STARTCHAR uniAE92
ENCODING 44690
BBX 11 11 1 -1
BITMAP
FC80
24E0
2480
4880
90E0
0080
7FC0
0A80
7A80
4280
7FC0
ENDCHAR
STARTCHAR uniAE93
ENCODING 44691
BBX 11 11 1 -1
BITMAP
FC80
24E0
2480
4880
90E0
0080
7200
1FC0
7300
4480
7B00
ENDCHAR
STARTCHAR uniAE94
ENCODING 44692
BBX 11 11 1 -1
BITMAP
FC80
24E0
2480
2480
48E0
9080
0000
7F80
4080
4080
7F80
ENDCHAR
STARTCHAR uniAE95
ENCODING 44693
BBX 11 11 1 -1
BITMAP
FC80
24E0
2480
2480
48E0
9080
0000
4080
7F80
4080
7F80
ENDCHAR
STARTCHAR uniAE96
ENCODING 44694
BBX 11 11 1 -1
BITMAP
FC80
24E0
2480
2480
48E0
9080
0000
4900
7900
4A80
7C40
ENDCHAR
STARTCHAR uniAE97
ENCODING 44695
BBX 11 11 1 -1
BITMAP
FC80
24E0
2480
2480
48E0
9080
0080
0400
0400
1B00
60C0
ENDCHAR
STARTCHAR uniAE98
ENCODING 44696
BBX 11 11 1 -1
BITMAP
FC80
24E0
2480
2480
48E0
9080
0000
1100
1100
2A80
C440
ENDCHAR
STARTCHAR uniAE99
ENCODING 44697
BBX 11 11 1 -1
BITMAP
FC80
24E0
2480
2480
48E0
9080
0080
3F00
4080
4080
3F00
ENDCHAR
STARTCHAR uniAE9A
ENCODING 44698
BBX 11 11 1 -1
BITMAP
FC80
24E0
2480
2480
48E0
9080
0000
7F80
0C00
1200
6180
ENDCHAR
STARTCHAR uniAE9B
ENCODING 44699
BBX 11 11 1 -1
BITMAP
FC80
24E0
2480
4880
90E0
0080
1E00
0000
7F80
0C00
7380
ENDCHAR
STARTCHAR uniAE9C
ENCODING 44700
BBX 11 11 1 -1
BITMAP
FC80
24E0
2480
4880
90E0
0080
0000
7F80
0080
7F80
0080
ENDCHAR
STARTCHAR uniAE9D
ENCODING 44701
BBX 11 11 1 -1
BITMAP
FC80
24E0
2480
4880
90E0
0080
7F80
4000
7F80
4000
7F80
ENDCHAR
STARTCHAR uniAE9E
ENCODING 44702
BBX 11 11 1 -1
BITMAP
FC80
24E0
2480
2480
48E0
9080
0000
7F80
1200
1200
7F80
ENDCHAR
STARTCHAR uniAE9F
ENCODING 44703
BBX 11 11 1 -1
BITMAP
FC80
24E0
2480
4880
90E0
0080
0400
7FC0
1100
2080
1F00
ENDCHAR
STARTCHAR uniAEA0
ENCODING 44704
BBX 9 11 1 -1
BITMAP
DA80
4A80
4A80
4B80
4A80
4A80
4A80
4B80
4A80
9280
0280
ENDCHAR
STARTCHAR uniAEA1
ENCODING 44705
BBX 9 11 1 -1
BITMAP
DA80
4B80
4A80
4A80
4B80
9280
0000
7F80
0080
0080
0080
ENDCHAR
STARTCHAR uniAEA2
ENCODING 44706
BBX 9 11 1 -1
BITMAP
DA80
4B80
4A80
4A80
4B80
9280
0000
F780
1080
1080
1080
ENDCHAR
STARTCHAR uniAEA3
ENCODING 44707
BBX 9 11 1 -1
BITMAP
DA80
4B80
4A80
4A80
4B80
9280
0080
F200
1200
1500
1880
ENDCHAR
STARTCHAR uniAEA4
ENCODING 44708
BBX 9 11 1 -1
BITMAP
DA80
4B80
4A80
4A80
4B80
9280
0280
0080
4000
4000
7F80
ENDCHAR
STARTCHAR uniAEA5
ENCODING 44709
BBX 9 11 1 -1
BITMAP
DA80
4B80
4A80
4A80
4B80
9280
0000
4F80
4200
4500
7880
ENDCHAR
STARTCHAR uniAEA6
ENCODING 44710
BBX 10 11 1 -1
BITMAP
DA80
4B80
4A80
4A80
4B80
9280
0200
4FC0
4300
4480
7B00
ENDCHAR
STARTCHAR uniAEA7
ENCODING 44711
BBX 9 11 1 -1
BITMAP
DA80
4B80
4A80
4A80
4B80
9280
0000
7F80
4000
4000
7F80
ENDCHAR
STARTCHAR uniAEA8
ENCODING 44712
BBX 9 11 1 -1
BITMAP
DA80
4B80
4A80
4A80
9380
0280
7F80
0080
7F80
4000
7F80
ENDCHAR
STARTCHAR uniAEA9
ENCODING 44713
BBX 9 11 1 -1
BITMAP
DA80
4B80
4A80
4A80
9380
0280
7F80
0880
7880
4080
7C80
ENDCHAR
STARTCHAR uniAEAA
ENCODING 44714
BBX 9 11 1 -1
BITMAP
DA80
4B80
4A80
4A80
9380
0280
7B80
0A80
7A80
4280
7F80
ENDCHAR
STARTCHAR uniAEAB
ENCODING 44715
BBX 9 11 1 -1
BITMAP
DA80
4B80
4A80
4A80
9380
0280
7A80
0A80
7B80
4280
7F80
ENDCHAR
STARTCHAR uniAEAC
ENCODING 44716
BBX 10 11 1 -1
BITMAP
DA80
4B80
4A80
4A80
9380
0280
7900
0900
7900
4280
7C40
ENDCHAR
STARTCHAR uniAEAD
ENCODING 44717
BBX 9 11 1 -1
BITMAP
DA80
4B80
4A80
4A80
9380
0280
7B80
0A00
7B80
4200
7F80
ENDCHAR
STARTCHAR uniAEAE
ENCODING 44718
BBX 10 11 1 -1
BITMAP
DA80
4B80
4A80
4A80
9380
0280
7FC0
0A80
7A80
4280
7FC0
ENDCHAR
STARTCHAR uniAEAF
ENCODING 44719
BBX 10 11 1 -1
BITMAP
DA80
4B80
4A80
4A80
9380
0280
7200
1FC0
7300
4480
7B00
ENDCHAR
STARTCHAR uniAEB0
ENCODING 44720
BBX 9 11 1 -1
BITMAP
DA80
4B80
4A80
4A80
4B80
9280
0000
7F80
4080
4080
7F80
ENDCHAR
STARTCHAR uniAEB1
ENCODING 44721
BBX 9 11 1 -1
BITMAP
DA80
4B80
4A80
4A80
4B80
9280
0000
4080
7F80
4080
7F80
ENDCHAR
STARTCHAR uniAEB2
ENCODING 44722
BBX 10 11 1 -1
BITMAP
DA80
4B80
4A80
4A80
4B80
9280
0000
4900
7900
4A80
7C40
ENDCHAR
STARTCHAR uniAEB3
ENCODING 44723
BBX 9 11 1 -1
BITMAP
DA80
4B80
4A80
4A80
4B80
9280
0080
0800
0800
3600
C180
ENDCHAR
STARTCHAR uniAEB4
ENCODING 44724
BBX 10 11 1 -1
BITMAP
DA80
4B80
4A80
4A80
4B80
9280
0000
1100
1100
2A80
C440
ENDCHAR
STARTCHAR uniAEB5
ENCODING 44725
BBX 9 11 1 -1
BITMAP
DA80
4B80
4A80
4A80
4B80
9280
0080
3F00
4080
4080
3F00
ENDCHAR
STARTCHAR uniAEB6
ENCODING 44726
BBX 9 11 1 -1
BITMAP
DA80
4B80
4A80
4A80
4B80
9280
0000
7F80
0C00
1200
6180
ENDCHAR
STARTCHAR uniAEB7
ENCODING 44727
BBX 9 11 1 -1
BITMAP
DA80
4B80
4A80
4A80
9380
0280
1E00
0000
7F80
0C00
7380
ENDCHAR
STARTCHAR uniAEB8
ENCODING 44728
BBX 9 11 1 -1
BITMAP
DA80
4B80
4A80
4A80
9380
0280
0000
7F80
0080
7F80
0080
ENDCHAR
STARTCHAR uniAEB9
ENCODING 44729
BBX 9 11 1 -1
BITMAP
DA80
4B80
4A80
4A80
9380
0280
7F80
4000
7F80
4000
7F80
ENDCHAR
STARTCHAR uniAEBA
ENCODING 44730
BBX 9 11 1 -1
BITMAP
DA80
4B80
4A80
4A80
4B80
9280
0000
7F80
1200
1200
7F80
ENDCHAR
STARTCHAR uniAEBB
ENCODING 44731
BBX 10 11 1 -1
BITMAP
DA80
4B80
4A80
4A80
9380
0280
0800
FFC0
2100
4080
3F00
ENDCHAR
STARTCHAR uniAEBC
ENCODING 44732
BBX 9 11 1 -1
BITMAP
FC80
2480
2480
2480
2780
2480
2480
2480
4880
9080
0080
ENDCHAR
STARTCHAR uniAEBD
ENCODING 44733
BBX 9 11 1 -1
BITMAP
FC80
2480
2780
2480
4880
9080
0000
7F80
0080
0080
0080
ENDCHAR
STARTCHAR uniAEBE
ENCODING 44734
BBX 9 11 1 -1
BITMAP
FC80
2480
2780
2480
4880
9080
0000
F780
1080
1080
1080
ENDCHAR
STARTCHAR uniAEBF
ENCODING 44735
BBX 9 11 1 -1
BITMAP
FC80
2480
2780
2480
4880
9080
0080
F200
1200
1500
1880
ENDCHAR
STARTCHAR uniAEC0
ENCODING 44736
BBX 9 11 1 -1
BITMAP
FC80
2480
2480
2780
4480
8880
1080
0080
4000
4000
7F80
ENDCHAR
STARTCHAR uniAEC1
ENCODING 44737
BBX 9 11 1 -1
BITMAP
FC80
2480
2780
2480
4880
9080
0000
4F80
4200
4500
7880
ENDCHAR
STARTCHAR uniAEC2
ENCODING 44738
BBX 10 11 1 -1
BITMAP
FC80
2480
2780
2480
4880
9080
0200
4FC0
4300
4480
7B00
ENDCHAR
STARTCHAR uniAEC3
ENCODING 44739
BBX 9 11 1 -1
BITMAP
FC80
2480
2780
2480
4880
9080
0000
7F80
4000
4000
7F80
ENDCHAR
STARTCHAR uniAEC4
ENCODING 44740
BBX 9 11 1 -1
BITMAP
FC80
2480
2780
4880
9080
0080
7F80
0080
7F80
4000
7F80
ENDCHAR
STARTCHAR uniAEC5
ENCODING 44741
BBX 9 11 1 -1
BITMAP
FC80
2480
2780
4880
9080
0080
7F80
0880
7880
4080
7C80
ENDCHAR
STARTCHAR uniAEC6
ENCODING 44742
BBX 9 11 1 -1
BITMAP
FC80
2480
2780
4880
9080
0080
7B80
0A80
7A80
4280
7F80
ENDCHAR
STARTCHAR uniAEC7
ENCODING 44743
BBX 9 11 1 -1
BITMAP
FC80
2480
2780
4880
9080
0080
7A80
0A80
7B80
4280
7F80
ENDCHAR
STARTCHAR uniAEC8
ENCODING 44744
BBX 10 11 1 -1
BITMAP
FC80
2480
2780
4880
9080
0080
7900
0900
7900
4280
7C40
ENDCHAR
STARTCHAR uniAEC9
ENCODING 44745
BBX 9 11 1 -1
BITMAP
FC80
2480
2780
4880
9080
0080
7B80
0A00
7B80
4200
7F80
ENDCHAR
STARTCHAR uniAECA
ENCODING 44746
BBX 10 11 1 -1
BITMAP
FC80
2480
2780
4880
9080
0080
7FC0
0A80
7A80
4280
7FC0
ENDCHAR
STARTCHAR uniAECB
ENCODING 44747
BBX 10 11 1 -1
BITMAP
FC80
2480
2780
4880
9080
0080
7200
1FC0
7300
4480
7B00
ENDCHAR
STARTCHAR uniAECC
ENCODING 44748
BBX 9 11 1 -1
BITMAP
FC80
2480
2780
2480
4880
9080
0000
7F80
4080
4080
7F80
ENDCHAR
STARTCHAR uniAECD
ENCODING 44749
BBX 9 11 1 -1
BITMAP
FC80
2480
2780
2480
4880
9080
0000
4080
7F80
4080
7F80
ENDCHAR
STARTCHAR uniAECE
ENCODING 44750
BBX 10 11 1 -1
BITMAP
FC80
2480
2780
2480
4880
9080
0000
4900
7900
4A80
7C40
ENDCHAR
STARTCHAR uniAECF
ENCODING 44751
BBX 10 11 1 -1
BITMAP
FC80
2480
2780
2480
4880
9080
0080
0400
0400
1B00
60C0
ENDCHAR
STARTCHAR uniAED0
ENCODING 44752
BBX 10 11 1 -1
BITMAP
FC80
2480
2780
2480
4880
9080
0000
1100
1100
2A80
C440
ENDCHAR
STARTCHAR uniAED1
ENCODING 44753
BBX 9 11 1 -1
BITMAP
FC80
2480
2780
2480
4880
9080
0080
3F00
4080
4080
3F00
ENDCHAR
STARTCHAR uniAED2
ENCODING 44754
BBX 9 11 1 -1
BITMAP
FC80
2480
2780
2480
4880
9080
0000
7F80
0C00
1200
6180
ENDCHAR
STARTCHAR uniAED3
ENCODING 44755
BBX 9 11 1 -1
BITMAP
FC80
2480
2780
4880
9080
0080
1E00
0000
7F80
0C00
7380
ENDCHAR
STARTCHAR uniAED4
ENCODING 44756
BBX 9 11 1 -1
BITMAP
FC80
2480
2780
4880
9080
0080
0000
7F80
0080
7F80
0080
ENDCHAR
STARTCHAR uniAED5
ENCODING 44757
BBX 9 11 1 -1
BITMAP
FC80
2480
2780
4880
9080
0080
7F80
4000
7F80
4000
7F80
ENDCHAR
STARTCHAR uniAED6
ENCODING 44758
BBX 9 11 1 -1
BITMAP
FC80
2480
2780
2480
4880
9080
0000
7F80
1200
1200
7F80
ENDCHAR
STARTCHAR uniAED7
ENCODING 44759
BBX 10 11 1 -1
BITMAP
FC80
2480
2780
4880
9080
0080
0400
7FC0
1100
2080
1F00
ENDCHAR
STARTCHAR uniAED8
ENCODING 44760
BBX 9 11 1 -1
BITMAP
DA80
4A80
4A80
4A80
4E80
4A80
4A80
4A80
4A80
9280
0280
ENDCHAR
STARTCHAR uniAED9
ENCODING 44761
BBX 9 11 1 -1
BITMAP
DA80
4A80
4E80
4A80
4A80
9280
0000
7F80
0080
0080
0080
ENDCHAR
STARTCHAR uniAEDA
ENCODING 44762
BBX 9 11 1 -1
BITMAP
DA80
4A80
4E80
4A80
4A80
9280
0000
F780
1080
1080
1080
ENDCHAR
STARTCHAR uniAEDB
ENCODING 44763
BBX 9 11 1 -1
BITMAP
DA80
4A80
4E80
4A80
4A80
9280
0080
F200
1200
1500
1880
ENDCHAR
STARTCHAR uniAEDC
ENCODING 44764
BBX 9 11 1 -1
BITMAP
DA80
4A80
4E80
4A80
4A80
9280
0280
0280
4000
4000
7F80
ENDCHAR
STARTCHAR uniAEDD
ENCODING 44765
BBX 9 11 1 -1
BITMAP
DA80
4A80
4E80
4A80
4A80
9280
0000
4F80
4200
4500
7880
ENDCHAR
STARTCHAR uniAEDE
ENCODING 44766
BBX 10 11 1 -1
BITMAP
DA80
4A80
4E80
4A80
4A80
9280
0200
4FC0
4300
4480
7B00
ENDCHAR
STARTCHAR uniAEDF
ENCODING 44767
BBX 9 11 1 -1
BITMAP
DA80
4A80
4E80
4A80
4A80
9280
0000
7F80
4000
4000
7F80
ENDCHAR
STARTCHAR uniAEE0
ENCODING 44768
BBX 9 11 1 -1
BITMAP
DA80
4A80
4E80
4A80
9280
0280
7F80
0080
7F80
4000
7F80
ENDCHAR
STARTCHAR uniAEE1
ENCODING 44769
BBX 9 11 1 -1
BITMAP
DA80
4A80
4E80
4A80
9280
0280
7F80
0880
7880
4080
7C80
ENDCHAR
STARTCHAR uniAEE2
ENCODING 44770
BBX 9 11 1 -1
BITMAP
DA80
4A80
4E80
4A80
9280
0280
7B80
0A80
7A80
4280
7F80
ENDCHAR
STARTCHAR uniAEE3
ENCODING 44771
BBX 9 11 1 -1
BITMAP
DA80
4A80
4E80
4A80
9280
0280
7A80
0A80
7B80
4280
7F80
ENDCHAR
STARTCHAR uniAEE4
ENCODING 44772
BBX 10 11 1 -1
BITMAP
DA80
4A80
4E80
4A80
9280
0280
7900
0900
7900
4280
7C40
ENDCHAR
STARTCHAR uniAEE5
ENCODING 44773
BBX 9 11 1 -1
BITMAP
DA80
4A80
4E80
4A80
9280
0280
7B80
0A00
7B80
4200
7F80
ENDCHAR
STARTCHAR uniAEE6
ENCODING 44774
BBX 10 11 1 -1
BITMAP
DA80
4A80
4E80
4A80
9280
0280
7FC0
0A80
7A80
4280
7FC0
ENDCHAR
STARTCHAR uniAEE7
ENCODING 44775
BBX 10 11 1 -1
BITMAP
DA80
4A80
4E80
4A80
9280
0280
7200
1FC0
7300
4480
7B00
ENDCHAR
STARTCHAR uniAEE8
ENCODING 44776
BBX 9 11 1 -1
BITMAP
DA80
4A80
4E80
4A80
4A80
9280
0000
7F80
4080
4080
7F80
ENDCHAR
STARTCHAR uniAEE9
ENCODING 44777
BBX 9 11 1 -1
BITMAP
DA80
4A80
4E80
4A80
4A80
9280
0000
4080
7F80
4080
7F80
ENDCHAR
STARTCHAR uniAEEA
ENCODING 44778
BBX 10 11 1 -1
BITMAP
DA80
4A80
4E80
4A80
4A80
9280
0000
4900
7900
4A80
7C40
ENDCHAR
STARTCHAR uniAEEB
ENCODING 44779
BBX 9 11 1 -1
BITMAP
DA80
4A80
4E80
4A80
4A80
9280
0080
0800
0800
3600
C180
ENDCHAR
STARTCHAR uniAEEC
ENCODING 44780
BBX 10 11 1 -1
BITMAP
DA80
4A80
4E80
4A80
4A80
9280
0000
1100
1100
2A80
C440
ENDCHAR
STARTCHAR uniAEED
ENCODING 44781
BBX 9 11 1 -1
BITMAP
DA80
4A80
4E80
4A80
4A80
9280
0080
3F00
4080
4080
3F00
ENDCHAR
STARTCHAR uniAEEE
ENCODING 44782
BBX 9 11 1 -1
BITMAP
DA80
4A80
4E80
4A80
4A80
9280
0000
7F80
0C00
1200
6180
ENDCHAR
STARTCHAR uniAEEF
ENCODING 44783
BBX 9 11 1 -1
BITMAP
DA80
4A80
4E80
4A80
9280
0280
1E00
0000
7F80
0C00
7380
ENDCHAR
STARTCHAR uniAEF0
ENCODING 44784
BBX 9 11 1 -1
BITMAP
DA80
4A80
4E80
4A80
9280
0280
0000
7F80
0080
7F80
0080
ENDCHAR
STARTCHAR uniAEF1
ENCODING 44785
BBX 9 11 1 -1
BITMAP
DA80
4A80
4E80
4A80
9280
0280
7F80
4000
7F80
4000
7F80
ENDCHAR
STARTCHAR uniAEF2
ENCODING 44786
BBX 9 11 1 -1
BITMAP
DA80
4A80
4E80
4A80
4A80
9280
0000
7F80
1200
1200
7F80
ENDCHAR
STARTCHAR uniAEF3
ENCODING 44787
BBX 10 11 1 -1
BITMAP
DA80
4A80
4E80
4A80
9280
0280
0800
FFC0
2100
4080
3F00
ENDCHAR
STARTCHAR uniAEF4
ENCODING 44788
BBX 9 11 1 -1
BITMAP
FC80
2480
2780
2480
2480
2480
2780
2480
4880
9080
0080
ENDCHAR
STARTCHAR uniAEF5
ENCODING 44789
BBX 9 11 1 -1
BITMAP
FC80
2780
2480
2780
4880
9080
0000
7F80
0080
0080
0080
ENDCHAR
STARTCHAR uniAEF6
ENCODING 44790
BBX 9 11 1 -1
BITMAP
FC80
2780
2480
2780
4880
9080
0000
F780
1080
1080
1080
ENDCHAR
STARTCHAR uniAEF7
ENCODING 44791
BBX 9 11 1 -1
BITMAP
FC80
2780
2480
2780
4880
9080
0080
F200
1200
1500
1880
ENDCHAR
STARTCHAR uniAEF8
ENCODING 44792
BBX 9 11 1 -1
BITMAP
FC80
2780
2480
2480
4780
8880
1080
0080
4000
4000
7F80
ENDCHAR
STARTCHAR uniAEF9
ENCODING 44793
BBX 9 11 1 -1
BITMAP
FC80
2780
2480
2780
4880
9080
0000
4F80
4200
4500
7880
ENDCHAR
STARTCHAR uniAEFA
ENCODING 44794
BBX 10 11 1 -1
BITMAP
FC80
2780
2480
2780
4880
9080
0200
4FC0
4300
4480
7B00
ENDCHAR
STARTCHAR uniAEFB
ENCODING 44795
BBX 9 11 1 -1
BITMAP
FC80
2780
2480
2780
4880
9080
0000
7F80
4000
4000
7F80
ENDCHAR
STARTCHAR uniAEFC
ENCODING 44796
BBX 9 11 1 -1
BITMAP
FC80
2780
2480
4B80
9080
0080
7F80
0080
7F80
4000
7F80
ENDCHAR
STARTCHAR uniAEFD
ENCODING 44797
BBX 9 11 1 -1
BITMAP
FC80
2780
2480
4B80
9080
0080
7F80
0880
7880
4080
7C80
ENDCHAR
STARTCHAR uniAEFE
ENCODING 44798
BBX 9 11 1 -1
BITMAP
FC80
2780
2480
4B80
9080
0080
7B80
0A80
7A80
4280
7F80
ENDCHAR
STARTCHAR uniAEFF
ENCODING 44799
BBX 9 11 1 -1
BITMAP
FC80
2780
2480
4B80
9080
0080
7A80
0A80
7B80
4280
7F80
ENDCHAR
STARTCHAR uniAF00
ENCODING 44800
BBX 10 11 1 -1
BITMAP
FC80
2780
2480
4B80
9080
0080
7900
0900
7900
4280
7C40
ENDCHAR
STARTCHAR uniAF01
ENCODING 44801
BBX 9 11 1 -1
BITMAP
FC80
2780
2480
4B80
9080
0080
7B80
0A00
7B80
4200
7F80
ENDCHAR
STARTCHAR uniAF02
ENCODING 44802
BBX 10 11 1 -1
BITMAP
FC80
2780
2480
4B80
9080
0080
7FC0
0A80
7A80
4280
7FC0
ENDCHAR
STARTCHAR uniAF03
ENCODING 44803
BBX 10 11 1 -1
BITMAP
FC80
2780
2480
4B80
9080
0080
7200
1FC0
7300
4480
7B00
ENDCHAR
STARTCHAR uniAF04
ENCODING 44804
BBX 9 11 1 -1
BITMAP
FC80
2780
2480
2780
4880
9080
0000
7F80
4080
4080
7F80
ENDCHAR
STARTCHAR uniAF05
ENCODING 44805
BBX 9 11 1 -1
BITMAP
FC80
2780
2480
2780
4880
9080
0000
4080
7F80
4080
7F80
ENDCHAR
STARTCHAR uniAF06
ENCODING 44806
BBX 10 11 1 -1
BITMAP
FC80
2780
2480
2780
4880
9080
0000
4900
7900
4A80
7C40
ENDCHAR
STARTCHAR uniAF07
ENCODING 44807
BBX 10 11 1 -1
BITMAP
FC80
2780
2480
2780
4880
9080
0080
0400
0400
1B00
60C0
ENDCHAR
STARTCHAR uniAF08
ENCODING 44808
BBX 10 11 1 -1
BITMAP
FC80
2780
2480
2780
4880
9080
0000
1100
1100
2A80
C440
ENDCHAR
STARTCHAR uniAF09
ENCODING 44809
BBX 9 11 1 -1
BITMAP
FC80
2780
2480
2780
4880
9080
0080
3F00
4080
4080
3F00
ENDCHAR
STARTCHAR uniAF0A
ENCODING 44810
BBX 9 11 1 -1
BITMAP
FC80
2780
2480
2780
4880
9080
0000
7F80
0C00
1200
6180
ENDCHAR
STARTCHAR uniAF0B
ENCODING 44811
BBX 9 11 1 -1
BITMAP
FC80
2780
2480
4B80
9080
0080
1E00
0000
7F80
0C00
7380
ENDCHAR
STARTCHAR uniAF0C
ENCODING 44812
BBX 9 11 1 -1
BITMAP
FC80
2780
2480
4B80
9080
0080
0000
7F80
0080
7F80
0080
ENDCHAR
STARTCHAR uniAF0D
ENCODING 44813
BBX 9 11 1 -1
BITMAP
FC80
2780
2480
4B80
9080
0080
7F80
4000
7F80
4000
7F80
ENDCHAR
STARTCHAR uniAF0E
ENCODING 44814
BBX 9 11 1 -1
BITMAP
FC80
2780
2480
2780
4880
9080
0000
7F80
1200
1200
7F80
ENDCHAR
STARTCHAR uniAF0F
ENCODING 44815
BBX 10 11 1 -1
BITMAP
FC80
2780
2480
4B80
9080
0080
0400
7FC0
1100
2080
1F00
ENDCHAR
STARTCHAR uniAF10
ENCODING 44816
BBX 9 11 1 -1
BITMAP
DA80
4A80
4E80
4A80
4A80
4A80
4E80
4A80
4A80
9280
0280
ENDCHAR
STARTCHAR uniAF11
ENCODING 44817
BBX 9 11 1 -1
BITMAP
DA80
4E80
4A80
4E80
4A80
9280
0000
7F80
0080
0080
0080
ENDCHAR
STARTCHAR uniAF12
ENCODING 44818
BBX 9 11 1 -1
BITMAP
DA80
4E80
4A80
4E80
4A80
9280
0000
F780
1080
1080
1080
ENDCHAR
STARTCHAR uniAF13
ENCODING 44819
BBX 9 11 1 -1
BITMAP
DA80
4E80
4A80
4E80
4A80
9280
0080
F200
1200
1500
1880
ENDCHAR
STARTCHAR uniAF14
ENCODING 44820
BBX 9 11 1 -1
BITMAP
DA80
4E80
4A80
4A80
4E80
9280
0280
0280
4000
4000
7F80
ENDCHAR
STARTCHAR uniAF15
ENCODING 44821
BBX 9 11 1 -1
BITMAP
DA80
4E80
4A80
4E80
4A80
9280
0000
4F80
4200
4500
7880
ENDCHAR
STARTCHAR uniAF16
ENCODING 44822
BBX 10 11 1 -1
BITMAP
DA80
4E80
4A80
4E80
4A80
9280
0200
4FC0
4300
4480
7B00
ENDCHAR
STARTCHAR uniAF17
ENCODING 44823
BBX 9 11 1 -1
BITMAP
DA80
4E80
4A80
4E80
4A80
9280
0000
7F80
4000
4000
7F80
ENDCHAR
STARTCHAR uniAF18
ENCODING 44824
BBX 9 11 1 -1
BITMAP
DA80
4E80
4A80
4E80
9280
0280
7F80
0080
7F80
4000
7F80
ENDCHAR
STARTCHAR uniAF19
ENCODING 44825
BBX 9 11 1 -1
BITMAP
DA80
4E80
4A80
4E80
9280
0280
7F80
0880
7880
4080
7C80
ENDCHAR
STARTCHAR uniAF1A
ENCODING 44826
BBX 9 11 1 -1
BITMAP
DA80
4E80
4A80
4E80
9280
0280
7B80
0A80
7A80
4280
7F80
ENDCHAR
STARTCHAR uniAF1B
ENCODING 44827
BBX 9 11 1 -1
BITMAP
DA80
4E80
4A80
4E80
9280
0280
7A80
0A80
7B80
4280
7F80
ENDCHAR
STARTCHAR uniAF1C
ENCODING 44828
BBX 10 11 1 -1
BITMAP
DA80
4E80
4A80
4E80
9280
0280
7900
0900
7900
4280
7C40
ENDCHAR
STARTCHAR uniAF1D
ENCODING 44829
BBX 9 11 1 -1
BITMAP
DA80
4E80
4A80
4E80
9280
0280
7B80
0A00
7B80
4200
7F80
ENDCHAR
STARTCHAR uniAF1E
ENCODING 44830
BBX 10 11 1 -1
BITMAP
DA80
4E80
4A80
4E80
9280
0280
7FC0
0A80
7A80
4280
7FC0
ENDCHAR
STARTCHAR uniAF1F
ENCODING 44831
BBX 10 11 1 -1
BITMAP
DA80
4E80
4A80
4E80
9280
0280
7200
1FC0
7300
4480
7B00
ENDCHAR
STARTCHAR uniAF20
ENCODING 44832
BBX 9 11 1 -1
BITMAP
DA80
4E80
4A80
4E80
4A80
9280
0000
7F80
4080
4080
7F80
ENDCHAR
STARTCHAR uniAF21
ENCODING 44833
BBX 9 11 1 -1
BITMAP
DA80
4E80
4A80
4E80
4A80
9280
0000
4080
7F80
4080
7F80
ENDCHAR
STARTCHAR uniAF22
ENCODING 44834
BBX 10 11 1 -1
BITMAP
DA80
4E80
4A80
4E80
4A80
9280
0000
4900
7900
4A80
7C40
ENDCHAR
STARTCHAR uniAF23
ENCODING 44835
BBX 9 11 1 -1
BITMAP
DA80
4E80
4A80
4E80
4A80
9280
0080
0800
0800
3600
C180
ENDCHAR
STARTCHAR uniAF24
ENCODING 44836
BBX 10 11 1 -1
BITMAP
DA80
4E80
4A80
4E80
4A80
9280
0000
1100
1100
2A80
C440
ENDCHAR
STARTCHAR uniAF25
ENCODING 44837
BBX 9 11 1 -1
BITMAP
DA80
4E80
4A80
4E80
4A80
9280
0080
3F00
4080
4080
3F00
ENDCHAR
STARTCHAR uniAF26
ENCODING 44838
BBX 9 11 1 -1
BITMAP
DA80
4E80
4A80
4E80
4A80
9280
0000
7F80
0C00
1200
6180
ENDCHAR
STARTCHAR uniAF27
ENCODING 44839
BBX 9 11 1 -1
BITMAP
DA80
4E80
4A80
4E80
9280
0280
1E00
0000
7F80
0C00
7380
ENDCHAR
STARTCHAR uniAF28
ENCODING 44840
BBX 9 11 1 -1
BITMAP
DA80
4E80
4A80
4E80
9280
0280
0000
7F80
0080
7F80
0080
ENDCHAR
STARTCHAR uniAF29
ENCODING 44841
BBX 9 11 1 -1
BITMAP
DA80
4E80
4A80
4E80
9280
0280
7F80
4000
7F80
4000
7F80
ENDCHAR
STARTCHAR uniAF2A
ENCODING 44842
BBX 9 11 1 -1
BITMAP
DA80
4E80
4A80
4E80
4A80
9280
0000
7F80
1200
1200
7F80
ENDCHAR
STARTCHAR uniAF2B
ENCODING 44843
BBX 10 11 1 -1
BITMAP
DA80
4E80
4A80
4E80
9280
0280
0800
FFC0
2100
4080
3F00
ENDCHAR
STARTCHAR uniAF2C
ENCODING 44844
BBX 10 10 1 0
BITMAP
7780
1080
1080
1080
1080
1480
2480
2500
0400
FFC0
ENDCHAR
STARTCHAR uniAF2D
ENCODING 44845
BBX 10 11 1 -1
BITMAP
7780
1080
1080
2500
0400
FFC0
0000
7F80
0080
0080
0080
ENDCHAR
STARTCHAR uniAF2E
ENCODING 44846
BBX 10 11 1 -1
BITMAP
7780
1080
1080
2500
0400
FFC0
0000
7F80
0880
0880
0880
ENDCHAR
STARTCHAR uniAF2F
ENCODING 44847
BBX 10 11 1 -1
BITMAP
7780
1080
1080
2500
0400
FFC0
0000
7900
0900
0A80
0C40
ENDCHAR
STARTCHAR uniAF30
ENCODING 44848
BBX 10 11 1 -1
BITMAP
7780
1080
1080
2500
0400
FFC0
0000
0000
4000
4000
7F80
ENDCHAR
STARTCHAR uniAF31
ENCODING 44849
BBX 10 11 1 -1
BITMAP
7780
1080
1080
2500
0400
FFC0
0000
4F80
4200
4500
7880
ENDCHAR
STARTCHAR uniAF32
ENCODING 44850
BBX 10 11 1 -1
BITMAP
7780
1080
1080
2500
0400
FFC0
0000
4200
4FC0
4480
7B00
ENDCHAR
STARTCHAR uniAF33
ENCODING 44851
BBX 10 11 1 -1
BITMAP
7780
1080
1080
2500
0400
FFC0
0000
7F80
4000
4000
7F80
ENDCHAR
STARTCHAR uniAF34
ENCODING 44852
BBX 10 11 1 -1
BITMAP
7780
1080
1480
2500
FFC0
0000
7F80
0080
7F80
4000
7F80
ENDCHAR
STARTCHAR uniAF35
ENCODING 44853
BBX 10 11 1 -1
BITMAP
7780
1080
1480
2500
FFC0
0000
7F80
0880
7880
4080
7C80
ENDCHAR
STARTCHAR uniAF36
ENCODING 44854
BBX 10 11 1 -1
BITMAP
7780
1080
1480
2500
FFC0
0000
7B80
0A80
7A80
4280
7F80
ENDCHAR
STARTCHAR uniAF37
ENCODING 44855
BBX 10 11 1 -1
BITMAP
7780
1080
1480
2500
FFC0
0000
7A80
0A80
7B80
4280
7F80
ENDCHAR
STARTCHAR uniAF38
ENCODING 44856
BBX 10 11 1 -1
BITMAP
7780
1080
1480
2500
FFC0
0000
7900
0900
7900
4280
7C40
ENDCHAR
STARTCHAR uniAF39
ENCODING 44857
BBX 10 11 1 -1
BITMAP
7780
1080
1480
2500
FFC0
0000
7B80
0A00
7B80
4200
7F80
ENDCHAR
STARTCHAR uniAF3A
ENCODING 44858
BBX 10 11 1 -1
BITMAP
7780
1080
1480
2500
FFC0
0000
7FC0
0A80
7A80
4280
7FC0
ENDCHAR
STARTCHAR uniAF3B
ENCODING 44859
BBX 10 11 1 -1
BITMAP
7780
1080
1480
2500
FFC0
0000
7B00
0800
7FC0
4480
7B00
ENDCHAR
STARTCHAR uniAF3C
ENCODING 44860
BBX 10 11 1 -1
BITMAP
7780
1080
1080
2500
0400
FFC0
0000
7F80
4080
4080
7F80
ENDCHAR
STARTCHAR uniAF3D
ENCODING 44861
BBX 10 11 1 -1
BITMAP
7780
1080
1080
2500
0400
FFC0
0000
4080
7F80
4080
7F80
ENDCHAR
STARTCHAR uniAF3E
ENCODING 44862
BBX 10 11 1 -1
BITMAP
7780
1080
1080
2500
0400
FFC0
0000
4900
7900
4A80
7C40
ENDCHAR
STARTCHAR uniAF3F
ENCODING 44863
BBX 10 11 1 -1
BITMAP
7780
1080
1080
2500
0400
FFC0
0000
0400
0C00
1200
6180
ENDCHAR
STARTCHAR uniAF40
ENCODING 44864
BBX 10 11 1 -1
BITMAP
7780
1080
1080
2500
0400
FFC0
0000
1100
1100
2A80
C440
ENDCHAR
STARTCHAR uniAF41
ENCODING 44865
BBX 10 11 1 -1
BITMAP
7780
1080
1080
2500
0400
FFC0
0000
3F00
4080
4080
3F00
ENDCHAR
STARTCHAR uniAF42
ENCODING 44866
BBX 10 11 1 -1
BITMAP
7780
1080
1080
2500
0400
FFC0
0000
7F80
0C00
1200
6180
ENDCHAR
STARTCHAR uniAF43
ENCODING 44867
BBX 10 11 1 -1
BITMAP
7780
1080
1480
2500
FFC0
0000
1E00
0000
7F80
0C00
7380
ENDCHAR
STARTCHAR uniAF44
ENCODING 44868
BBX 10 11 1 -1
BITMAP
7780
1080
1480
2500
FFC0
0000
0000
7F80
0080
7F80
0080
ENDCHAR
STARTCHAR uniAF45
ENCODING 44869
BBX 10 11 1 -1
BITMAP
7780
1080
1480
2500
FFC0
0000
7F80
4000
7F80
4000
7F80
ENDCHAR
STARTCHAR uniAF46
ENCODING 44870
BBX 10 11 1 -1
BITMAP
7780
1080
1080
2500
0400
FFC0
0000
7F80
1200
1200
7F80
ENDCHAR
STARTCHAR uniAF47
ENCODING 44871
BBX 10 11 1 -1
BITMAP
7780
1080
1480
2500
FFC0
0000
0400
FFC0
1200
2100
1E00
ENDCHAR
STARTCHAR uniAF48
ENCODING 44872
BBX 11 11 1 -1
BITMAP
EE80
2280
2280
2280
2280
52E0
5280
9480
1080
FE80
0080
ENDCHAR
STARTCHAR uniAF49
ENCODING 44873
BBX 11 11 1 -1
BITMAP
EE80
2280
2280
54E0
1080
FE80
0080
0000
7F80
0080
0080
ENDCHAR
STARTCHAR uniAF4A
ENCODING 44874
BBX 11 11 1 -1
BITMAP
EE80
2280
2280
54E0
1080
FE80
0080
0000
F780
1080
1080
ENDCHAR
STARTCHAR uniAF4B
ENCODING 44875
BBX 11 11 1 -1
BITMAP
EE80
2280
2280
54E0
1080
FE80
0080
0000
7900
0900
0EC0
ENDCHAR
STARTCHAR uniAF4C
ENCODING 44876
BBX 11 11 1 -1
BITMAP
EE80
2280
2280
32E0
5480
1080
FE80
0080
4000
4000
7F80
ENDCHAR
STARTCHAR uniAF4D
ENCODING 44877
BBX 11 11 1 -1
BITMAP
EE80
2280
2280
54E0
1080
FE80
0080
0000
4F80
4200
7D80
ENDCHAR
STARTCHAR uniAF4E
ENCODING 44878
BBX 11 11 1 -1
BITMAP
EE80
2280
2280
54E0
1080
FE80
0000
0200
4FC0
4480
7B00
ENDCHAR
STARTCHAR uniAF4F
ENCODING 44879
BBX 11 11 1 -1
BITMAP
EE80
2280
2280
54E0
1080
FE80
0000
7F80
4000
4000
7F80
ENDCHAR
STARTCHAR uniAF50
ENCODING 44880
BBX 11 11 1 -1
BITMAP
EE80
2280
3280
54E0
FE80
0080
7F80
0080
7F80
4000
7F80
ENDCHAR
STARTCHAR uniAF51
ENCODING 44881
BBX 11 11 1 -1
BITMAP
EE80
2280
3280
54E0
FE80
0080
7F80
0880
7880
4080
7C80
ENDCHAR
STARTCHAR uniAF52
ENCODING 44882
BBX 11 11 1 -1
BITMAP
EE80
2280
3280
54E0
FE80
0080
7B80
0A80
7A80
4280
7F80
ENDCHAR
STARTCHAR uniAF53
ENCODING 44883
BBX 11 11 1 -1
BITMAP
EE80
2280
3280
54E0
FE80
0080
7A80
0A80
7B80
4280
7F80
ENDCHAR
STARTCHAR uniAF54
ENCODING 44884
BBX 11 11 1 -1
BITMAP
EE80
2280
3280
54E0
FE80
0080
7900
0900
7900
4280
7C40
ENDCHAR
STARTCHAR uniAF55
ENCODING 44885
BBX 11 11 1 -1
BITMAP
EE80
2280
3280
54E0
FE80
0080
7B80
0A00
7B80
4200
7F80
ENDCHAR
STARTCHAR uniAF56
ENCODING 44886
BBX 11 11 1 -1
BITMAP
EE80
2280
3280
54E0
FE80
0080
7FC0
0A80
7A80
4280
7FC0
ENDCHAR
STARTCHAR uniAF57
ENCODING 44887
BBX 11 11 1 -1
BITMAP
EE80
2280
3280
54E0
FE80
0080
7200
1FC0
7300
4480
7B00
ENDCHAR
STARTCHAR uniAF58
ENCODING 44888
BBX 11 11 1 -1
BITMAP
EE80
2280
2280
54E0
1080
FE80
0080
0000
7F80
4080
7F80
ENDCHAR
STARTCHAR uniAF59
ENCODING 44889
BBX 11 11 1 -1
BITMAP
EE80
2280
2280
54E0
1080
FE80
0000
4080
7F80
4080
7F80
ENDCHAR
STARTCHAR uniAF5A
ENCODING 44890
BBX 11 11 1 -1
BITMAP
EE80
2280
2280
54E0
1080
FE80
0000
4900
7900
4A80
7C40
ENDCHAR
STARTCHAR uniAF5B
ENCODING 44891
BBX 11 11 1 -1
BITMAP
EE80
2280
2280
54E0
1080
FE80
0080
0800
0800
3600
C180
ENDCHAR
STARTCHAR uniAF5C
ENCODING 44892
BBX 11 11 1 -1
BITMAP
EE80
2280
2280
54E0
1080
FE80
0000
1100
1100
2A80
C440
ENDCHAR
STARTCHAR uniAF5D
ENCODING 44893
BBX 11 11 1 -1
BITMAP
EE80
2280
2280
54E0
1080
FE80
0080
3F00
4080
4080
3F00
ENDCHAR
STARTCHAR uniAF5E
ENCODING 44894
BBX 11 11 1 -1
BITMAP
EE80
2280
2280
54E0
1080
FE80
0000
0000
7F80
0C00
7380
ENDCHAR
STARTCHAR uniAF5F
ENCODING 44895
BBX 11 11 1 -1
BITMAP
EE80
2280
3280
54E0
FE80
0080
1E00
0000
7F80
0C00
7380
ENDCHAR
STARTCHAR uniAF60
ENCODING 44896
BBX 11 11 1 -1
BITMAP
EE80
2280
3280
54E0
FE80
0080
0000
7F80
0080
7F80
0080
ENDCHAR
STARTCHAR uniAF61
ENCODING 44897
BBX 11 11 1 -1
BITMAP
EE80
2280
3280
54E0
FE80
0080
7F80
4000
7F80
4000
7F80
ENDCHAR
STARTCHAR uniAF62
ENCODING 44898
BBX 11 11 1 -1
BITMAP
EE80
2280
2280
54E0
1080
FE80
0000
7F80
1200
1200
7F80
ENDCHAR
STARTCHAR uniAF63
ENCODING 44899
BBX 11 11 1 -1
BITMAP
EE80
2280
3280
54E0
FE80
0080
0400
7FC0
1100
2080
1F00
ENDCHAR
STARTCHAR uniAF64
ENCODING 44900
BBX 9 11 1 -1
BITMAP
DA80
4A80
4A80
4A80
4A80
6B80
AA80
A280
2680
FA80
0280
ENDCHAR
STARTCHAR uniAF65
ENCODING 44901
BBX 9 11 1 -1
BITMAP
DA80
4A80
4A80
AB80
2280
FE80
0280
0000
7F80
0080
0080
ENDCHAR
STARTCHAR uniAF66
ENCODING 44902
BBX 9 11 1 -1
BITMAP
DA80
4A80
4A80
AB80
2280
FE80
0080
0000
F780
1080
1080
ENDCHAR
STARTCHAR uniAF67
ENCODING 44903
BBX 9 11 1 -1
BITMAP
DA80
4A80
4A80
AB80
2280
FE80
0080
0000
F200
1200
1D80
ENDCHAR
STARTCHAR uniAF68
ENCODING 44904
BBX 9 11 1 -1
BITMAP
DA80
4A80
4A80
AB80
2280
FE80
0280
0080
4000
4000
7F80
ENDCHAR
STARTCHAR uniAF69
ENCODING 44905
BBX 9 11 1 -1
BITMAP
DA80
4A80
4A80
AB80
2280
FE80
0080
0000
4F80
4200
7D80
ENDCHAR
STARTCHAR uniAF6A
ENCODING 44906
BBX 10 11 1 -1
BITMAP
DA80
4A80
4A80
AB80
2280
FE80
0000
0200
4FC0
4480
7B00
ENDCHAR
STARTCHAR uniAF6B
ENCODING 44907
BBX 9 11 1 -1
BITMAP
DA80
4A80
4A80
AB80
2280
FE80
0000
7F80
4000
4000
7F80
ENDCHAR
STARTCHAR uniAF6C
ENCODING 44908
BBX 9 11 1 -1
BITMAP
DA80
4A80
6B80
AA80
FE80
0080
7F80
0080
7F80
4000
7F80
ENDCHAR
STARTCHAR uniAF6D
ENCODING 44909
BBX 9 11 1 -1
BITMAP
DA80
4A80
6B80
AA80
FE80
0080
7F80
0880
7880
4080
7C80
ENDCHAR
STARTCHAR uniAF6E
ENCODING 44910
BBX 9 11 1 -1
BITMAP
DA80
4A80
6B80
AA80
FE80
0080
7B80
0A80
7A80
4280
7F80
ENDCHAR
STARTCHAR uniAF6F
ENCODING 44911
BBX 9 11 1 -1
BITMAP
DA80
4A80
6B80
AA80
FE80
0080
7A80
0A80
7B80
4280
7F80
ENDCHAR
STARTCHAR uniAF70
ENCODING 44912
BBX 10 11 1 -1
BITMAP
DA80
4A80
6B80
AA80
FE80
0080
7900
0900
7900
4280
7C40
ENDCHAR
STARTCHAR uniAF71
ENCODING 44913
BBX 9 11 1 -1
BITMAP
DA80
4A80
6B80
AA80
FE80
0080
7B80
0A00
7B80
4200
7F80
ENDCHAR
STARTCHAR uniAF72
ENCODING 44914
BBX 10 11 1 -1
BITMAP
DA80
4A80
6B80
AA80
FE80
0080
7FC0
0A80
7A80
4280
7FC0
ENDCHAR
STARTCHAR uniAF73
ENCODING 44915
BBX 10 11 1 -1
BITMAP
DA80
4A80
6B80
AA80
FE80
0080
7200
1FC0
7300
4480
7B00
ENDCHAR
STARTCHAR uniAF74
ENCODING 44916
BBX 9 11 1 -1
BITMAP
DA80
4A80
4A80
AB80
2280
FE80
0080
0000
7F80
4080
7F80
ENDCHAR
STARTCHAR uniAF75
ENCODING 44917
BBX 9 11 1 -1
BITMAP
DA80
4A80
4A80
AB80
2280
FE80
0000
4080
7F80
4080
7F80
ENDCHAR
STARTCHAR uniAF76
ENCODING 44918
BBX 10 11 1 -1
BITMAP
DA80
4A80
4A80
AB80
2280
FE80
0000
4900
7900
4A80
7C40
ENDCHAR
STARTCHAR uniAF77
ENCODING 44919
BBX 10 11 1 -1
BITMAP
DA80
4A80
4A80
AB80
2280
FE80
0080
0400
0400
1B00
60C0
ENDCHAR
STARTCHAR uniAF78
ENCODING 44920
BBX 10 11 1 -1
BITMAP
DA80
4A80
4A80
AB80
2280
FE80
0000
1100
1100
2A80
C440
ENDCHAR
STARTCHAR uniAF79
ENCODING 44921
BBX 9 11 1 -1
BITMAP
DA80
4A80
4A80
AB80
2280
FE80
0080
3F00
4080
4080
3F00
ENDCHAR
STARTCHAR uniAF7A
ENCODING 44922
BBX 9 11 1 -1
BITMAP
DA80
4A80
4A80
AB80
2280
FE80
0000
0000
7F80
0C00
7380
ENDCHAR
STARTCHAR uniAF7B
ENCODING 44923
BBX 9 11 1 -1
BITMAP
DA80
4A80
6B80
AA80
FE80
0080
1E00
0000
7F80
0C00
7380
ENDCHAR
STARTCHAR uniAF7C
ENCODING 44924
BBX 9 11 1 -1
BITMAP
DA80
4A80
6B80
AA80
FE80
0080
0000
7F80
0080
7F80
0080
ENDCHAR
STARTCHAR uniAF7D
ENCODING 44925
BBX 9 11 1 -1
BITMAP
DA80
4A80
6B80
AA80
FE80
0080
7F80
4000
7F80
4000
7F80
ENDCHAR
STARTCHAR uniAF7E
ENCODING 44926
BBX 9 11 1 -1
BITMAP
DA80
4A80
4A80
AB80
2280
FE80
0000
7F80
1200
1200
7F80
ENDCHAR
STARTCHAR uniAF7F
ENCODING 44927
BBX 10 11 1 -1
BITMAP
DA80
4A80
6B80
AA80
FE80
0080
0400
7FC0
1100
2080
1F00
ENDCHAR
STARTCHAR uniAF80
ENCODING 44928
BBX 9 11 1 -1
BITMAP
EE80
2280
2280
2280
2280
5280
5280
9480
1080
FE80
0080
ENDCHAR
STARTCHAR uniAF81
ENCODING 44929
BBX 9 11 1 -1
BITMAP
EE80
2280
2280
5480
1080
FE80
0080
0000
7F80
0080
0080
ENDCHAR
STARTCHAR uniAF82
ENCODING 44930
BBX 9 11 1 -1
BITMAP
EE80
2280
2280
5480
1080
FE80
0080
0000
F780
1080
1080
ENDCHAR
STARTCHAR uniAF83
ENCODING 44931
BBX 10 11 1 -1
BITMAP
EE80
2280
2280
5480
1080
FE80
0080
0000
7900
0900
0EC0
ENDCHAR
STARTCHAR uniAF84
ENCODING 44932
BBX 9 11 1 -1
BITMAP
EE80
2280
2280
3280
5480
1080
FE80
0080
4000
4000
7F80
ENDCHAR
STARTCHAR uniAF85
ENCODING 44933
BBX 9 11 1 -1
BITMAP
EE80
2280
2280
5480
1080
FE80
0080
0000
4F80
4200
7D80
ENDCHAR
STARTCHAR uniAF86
ENCODING 44934
BBX 10 11 1 -1
BITMAP
EE80
2280
2280
5480
1080
FE80
0000
0200
4FC0
4480
7B00
ENDCHAR
STARTCHAR uniAF87
ENCODING 44935
BBX 9 11 1 -1
BITMAP
EE80
2280
2280
5480
1080
FE80
0000
7F80
4000
4000
7F80
ENDCHAR
STARTCHAR uniAF88
ENCODING 44936
BBX 9 11 1 -1
BITMAP
EE80
2280
3280
5480
FE80
0080
7F80
0080
7F80
4000
7F80
ENDCHAR
STARTCHAR uniAF89
ENCODING 44937
BBX 9 11 1 -1
BITMAP
EE80
2280
3280
5480
FE80
0080
7F80
0880
7880
4080
7C80
ENDCHAR
STARTCHAR uniAF8A
ENCODING 44938
BBX 9 11 1 -1
BITMAP
EE80
2280
3280
5480
FE80
0080
7B80
0A80
7A80
4280
7F80
ENDCHAR
STARTCHAR uniAF8B
ENCODING 44939
BBX 9 11 1 -1
BITMAP
EE80
2280
3280
5480
FE80
0080
7A80
0A80
7B80
4280
7F80
ENDCHAR
STARTCHAR uniAF8C
ENCODING 44940
BBX 10 11 1 -1
BITMAP
EE80
2280
3280
5480
FE80
0080
7900
0900
7900
4280
7C40
ENDCHAR
STARTCHAR uniAF8D
ENCODING 44941
BBX 9 11 1 -1
BITMAP
EE80
2280
3280
5480
FE80
0080
7B80
0A00
7B80
4200
7F80
ENDCHAR
STARTCHAR uniAF8E
ENCODING 44942
BBX 10 11 1 -1
BITMAP
EE80
2280
3280
5480
FE80
0080
7FC0
0A80
7A80
4280
7FC0
ENDCHAR
STARTCHAR uniAF8F
ENCODING 44943
BBX 10 11 1 -1
BITMAP
EE80
2280
3280
5480
FE80
0080
7200
1FC0
7300
4480
7B00
ENDCHAR
STARTCHAR uniAF90
ENCODING 44944
BBX 9 11 1 -1
BITMAP
EE80
2280
2280
5480
1080
FE80
0080
0000
7F80
4080
7F80
ENDCHAR
STARTCHAR uniAF91
ENCODING 44945
BBX 9 11 1 -1
BITMAP
EE80
2280
2280
5480
1080
FE80
0000
4080
7F80
4080
7F80
ENDCHAR
STARTCHAR uniAF92
ENCODING 44946
BBX 10 11 1 -1
BITMAP
EE80
2280
2280
5480
1080
FE80
0000
4900
7900
4A80
7C40
ENDCHAR
STARTCHAR uniAF93
ENCODING 44947
BBX 9 11 1 -1
BITMAP
EE80
2280
2280
5480
1080
FE80
0080
0800
0800
3600
C180
ENDCHAR
STARTCHAR uniAF94
ENCODING 44948
BBX 10 11 1 -1
BITMAP
EE80
2280
2280
5480
1080
FE80
0000
1100
1100
2A80
C440
ENDCHAR
STARTCHAR uniAF95
ENCODING 44949
BBX 9 11 1 -1
BITMAP
EE80
2280
2280
5480
1080
FE80
0080
3F00
4080
4080
3F00
ENDCHAR
STARTCHAR uniAF96
ENCODING 44950
BBX 9 11 1 -1
BITMAP
EE80
2280
2280
5480
1080
FE80
0000
0000
7F80
0C00
7380
ENDCHAR
STARTCHAR uniAF97
ENCODING 44951
BBX 9 11 1 -1
BITMAP
EE80
2280
3280
5480
FE80
0080
1E00
0000
7F80
0C00
7380
ENDCHAR
STARTCHAR uniAF98
ENCODING 44952
BBX 9 11 1 -1
BITMAP
EE80
2280
3280
5480
FE80
0080
0000
7F80
0080
7F80
0080
ENDCHAR
STARTCHAR uniAF99
ENCODING 44953
BBX 9 11 1 -1
BITMAP
EE80
2280
3280
5480
FE80
0080
7F80
4000
7F80
4000
7F80
ENDCHAR
STARTCHAR uniAF9A
ENCODING 44954
BBX 9 11 1 -1
BITMAP
EE80
2280
2280
5480
1080
FE80
0000
7F80
1200
1200
7F80
ENDCHAR
STARTCHAR uniAF9B
ENCODING 44955
BBX 10 11 1 -1
BITMAP
EE80
2280
3280
5480
FE80
0080
0400
7FC0
1100
2080
1F00
ENDCHAR
STARTCHAR uniAF9C
ENCODING 44956
BBX 10 10 1 0
BITMAP
7780
1080
1080
1080
1080
1A80
2A80
2B00
0A00
FFC0
ENDCHAR
STARTCHAR uniAF9D
ENCODING 44957
BBX 10 11 1 -1
BITMAP
7780
1080
1080
2B00
0A00
FFC0
0000
7F80
0080
0080
0080
ENDCHAR
STARTCHAR uniAF9E
ENCODING 44958
BBX 10 11 1 -1
BITMAP
7780
1080
1080
2B00
0A00
FFC0
0000
7F80
0880
0880
0880
ENDCHAR
STARTCHAR uniAF9F
ENCODING 44959
BBX 10 11 1 -1
BITMAP
7780
1080
1080
2B00
0A00
FFC0
0000
7900
0900
0A80
0C40
ENDCHAR
STARTCHAR uniAFA0
ENCODING 44960
BBX 10 11 1 -1
BITMAP
7780
1080
1A80
2B00
0A00
FFC0
0000
0000
4000
4000
7F80
ENDCHAR
STARTCHAR uniAFA1
ENCODING 44961
BBX 10 11 1 -1
BITMAP
7780
1080
1080
2B00
0A00
FFC0
0000
4F80
4200
4500
7880
ENDCHAR
STARTCHAR uniAFA2
ENCODING 44962
BBX 10 11 1 -1
BITMAP
7780
1080
1080
2B00
0A00
FFC0
0000
4200
4FC0
4480
7B00
ENDCHAR
STARTCHAR uniAFA3
ENCODING 44963
BBX 10 11 1 -1
BITMAP
7780
1080
1080
2B00
0A00
FFC0
0000
7F80
4000
4000
7F80
ENDCHAR
STARTCHAR uniAFA4
ENCODING 44964
BBX 10 11 1 -1
BITMAP
7780
1080
1A80
2B00
FFC0
0000
7F80
0080
7F80
4000
7F80
ENDCHAR
STARTCHAR uniAFA5
ENCODING 44965
BBX 10 11 1 -1
BITMAP
7780
1080
1A80
2B00
FFC0
0000
7F80
0880
7880
4080
7C80
ENDCHAR
STARTCHAR uniAFA6
ENCODING 44966
BBX 10 11 1 -1
BITMAP
7780
1080
1A80
2B00
FFC0
0000
7B80
0A80
7A80
4280
7F80
ENDCHAR
STARTCHAR uniAFA7
ENCODING 44967
BBX 10 11 1 -1
BITMAP
7780
1080
1A80
2B00
FFC0
0000
7A80
0A80
7B80
4280
7F80
ENDCHAR
STARTCHAR uniAFA8
ENCODING 44968
BBX 10 11 1 -1
BITMAP
7780
1080
1A80
2B00
FFC0
0000
7900
0900
7900
4280
7C40
ENDCHAR
STARTCHAR uniAFA9
ENCODING 44969
BBX 10 11 1 -1
BITMAP
7780
1080
1A80
2B00
FFC0
0000
7B80
0A00
7B80
4200
7F80
ENDCHAR
STARTCHAR uniAFAA
ENCODING 44970
BBX 10 11 1 -1
BITMAP
7780
1080
1A80
2B00
FFC0
0000
7FC0
0A80
7A80
4280
7FC0
ENDCHAR
STARTCHAR uniAFAB
ENCODING 44971
BBX 10 11 1 -1
BITMAP
7780
1080
1A80
2B00
FFC0
0000
7B00
0800
7FC0
4480
7B00
ENDCHAR
STARTCHAR uniAFAC
ENCODING 44972
BBX 10 11 1 -1
BITMAP
7780
1080
1080
2B00
0A00
FFC0
0000
7F80
4080
4080
7F80
ENDCHAR
STARTCHAR uniAFAD
ENCODING 44973
BBX 10 11 1 -1
BITMAP
7780
1080
1080
2B00
0A00
FFC0
0000
4080
7F80
4080
7F80
ENDCHAR
STARTCHAR uniAFAE
ENCODING 44974
BBX 10 11 1 -1
BITMAP
7780
1080
1080
2B00
0A00
FFC0
0000
4900
7900
4A80
7C40
ENDCHAR
STARTCHAR uniAFAF
ENCODING 44975
BBX 10 11 1 -1
BITMAP
7780
1080
1080
2B00
0A00
FFC0
0000
0400
0C00
1200
6180
ENDCHAR
STARTCHAR uniAFB0
ENCODING 44976
BBX 10 11 1 -1
BITMAP
7780
1080
1080
2B00
0A00
FFC0
0000
1100
1100
2A80
C440
ENDCHAR
STARTCHAR uniAFB1
ENCODING 44977
BBX 10 11 1 -1
BITMAP
7780
1080
1080
2B00
0A00
FFC0
0000
3F00
4080
4080
3F00
ENDCHAR
STARTCHAR uniAFB2
ENCODING 44978
BBX 10 11 1 -1
BITMAP
7780
1080
1080
2B00
0A00
FFC0
0000
7F80
0C00
1200
6180
ENDCHAR
STARTCHAR uniAFB3
ENCODING 44979
BBX 10 11 1 -1
BITMAP
7780
1080
1A80
2B00
FFC0
0000
1E00
0000
7F80
0C00
7380
ENDCHAR
STARTCHAR uniAFB4
ENCODING 44980
BBX 10 11 1 -1
BITMAP
7780
1080
1A80
2B00
FFC0
0000
0000
7F80
0080
7F80
0080
ENDCHAR
STARTCHAR uniAFB5
ENCODING 44981
BBX 10 11 1 -1
BITMAP
7780
1080
1A80
2B00
FFC0
0000
7F80
4000
7F80
4000
7F80
ENDCHAR
STARTCHAR uniAFB6
ENCODING 44982
BBX 10 11 1 -1
BITMAP
7780
1080
1080
2B00
0A00
FFC0
0000
7F80
1200
1200
7F80
ENDCHAR
STARTCHAR uniAFB7
ENCODING 44983
BBX 10 11 1 -1
BITMAP
7780
1080
1A80
2B00
FFC0
0000
0400
FFC0
1200
2100
1E00
ENDCHAR
STARTCHAR uniAFB8
ENCODING 44984
BBX 10 11 1 -1
BITMAP
7780
1080
1080
1080
1080
2100
FFC0
0400
0400
0400
0400
ENDCHAR
STARTCHAR uniAFB9
ENCODING 44985
BBX 10 11 1 -1
BITMAP
7780
1080
1080
2100
FFC0
0400
0400
7F80
0080
0080
0080
ENDCHAR
STARTCHAR uniAFBA
ENCODING 44986
BBX 10 11 1 -1
BITMAP
7780
1080
1080
2100
FFC0
0400
0400
7F80
0880
0880
0880
ENDCHAR
STARTCHAR uniAFBB
ENCODING 44987
BBX 10 11 1 -1
BITMAP
7780
1080
1080
2100
FFC0
0400
0400
7900
0900
0A80
0C40
ENDCHAR
STARTCHAR uniAFBC
ENCODING 44988
BBX 10 11 1 -1
BITMAP
7780
1080
1080
1080
2100
FFC0
0400
0400
4000
4000
7F80
ENDCHAR
STARTCHAR uniAFBD
ENCODING 44989
BBX 10 11 1 -1
BITMAP
7780
1080
1080
2100
FFC0
0400
0400
4F80
4200
4500
7880
ENDCHAR
STARTCHAR uniAFBE
ENCODING 44990
BBX 10 11 1 -1
BITMAP
7780
1080
1080
2100
FFC0
0400
0400
4200
4FC0
4480
7B00
ENDCHAR
STARTCHAR uniAFBF
ENCODING 44991
BBX 10 11 1 -1
BITMAP
7780
1080
1080
2100
FFC0
0400
0400
7F80
4000
4000
7F80
ENDCHAR
STARTCHAR uniAFC0
ENCODING 44992
BBX 10 11 1 -1
BITMAP
7780
1080
1080
2100
FFC0
0400
7F80
0080
7F80
4000
7F80
ENDCHAR
STARTCHAR uniAFC1
ENCODING 44993
BBX 10 11 1 -1
BITMAP
7780
1080
1080
2100
FFC0
0400
7F80
0880
7880
4080
7C80
ENDCHAR
STARTCHAR uniAFC2
ENCODING 44994
BBX 10 11 1 -1
BITMAP
7780
1080
1080
2100
FFC0
0400
7F80
0A80
7A80
4280
7F80
ENDCHAR
STARTCHAR uniAFC3
ENCODING 44995
BBX 10 11 1 -1
BITMAP
7780
1080
1080
2100
FFC0
0400
7E80
0A80
7B80
4280
7F80
ENDCHAR
STARTCHAR uniAFC4
ENCODING 44996
BBX 10 11 1 -1
BITMAP
7780
1080
1080
2100
FFC0
0400
7D00
0900
7900
4280
7C40
ENDCHAR
STARTCHAR uniAFC5
ENCODING 44997
BBX 10 11 1 -1
BITMAP
7780
1080
1080
2100
FFC0
0400
7F80
0A00
7B80
4200
7F80
ENDCHAR
STARTCHAR uniAFC6
ENCODING 44998
BBX 10 11 1 -1
BITMAP
7780
1080
1080
2100
FFC0
0400
7FC0
0A80
7A80
4280
7FC0
ENDCHAR
STARTCHAR uniAFC7
ENCODING 44999
BBX 10 11 1 -1
BITMAP
7780
1080
1080
2100
FFC0
0400
7F00
0800
7FC0
4480
7B00
ENDCHAR
STARTCHAR uniAFC8
ENCODING 45000
BBX 10 11 1 -1
BITMAP
7780
1080
1080
2100
FFC0
0400
0400
7F80
4080
4080
7F80
ENDCHAR
STARTCHAR uniAFC9
ENCODING 45001
BBX 10 11 1 -1
BITMAP
7780
1080
1080
2100
FFC0
0400
0400
4080
7F80
4080
7F80
ENDCHAR
STARTCHAR uniAFCA
ENCODING 45002
BBX 10 11 1 -1
BITMAP
7780
1080
1080
2100
FFC0
0400
0400
4900
7900
4A80
7C40
ENDCHAR
STARTCHAR uniAFCB
ENCODING 45003
BBX 10 11 1 -1
BITMAP
7780
1080
1080
2100
FFC0
0400
0400
0000
0C00
1200
6180
ENDCHAR
STARTCHAR uniAFCC
ENCODING 45004
BBX 10 11 1 -1
BITMAP
7780
1080
1080
2100
FFC0
0400
0400
1100
1100
2A80
C440
ENDCHAR
STARTCHAR uniAFCD
ENCODING 45005
BBX 10 11 1 -1
BITMAP
7780
1080
1080
2100
FFC0
0400
0400
3F00
4080
4080
3F00
ENDCHAR
STARTCHAR uniAFCE
ENCODING 45006
BBX 10 11 1 -1
BITMAP
7780
1080
1080
2100
FFC0
0400
0400
7F80
0C00
1200
6180
ENDCHAR
STARTCHAR uniAFCF
ENCODING 45007
BBX 10 11 1 -1
BITMAP
7780
1080
1080
2100
FFC0
0400
1E00
0000
7F80
0C00
7380
ENDCHAR
STARTCHAR uniAFD0
ENCODING 45008
BBX 10 11 1 -1
BITMAP
7780
1080
1080
2100
FFC0
0400
0400
7F80
0080
7F80
0080
ENDCHAR
STARTCHAR uniAFD1
ENCODING 45009
BBX 10 11 1 -1
BITMAP
7780
1080
1080
2100
FFC0
0400
7F80
4000
7F80
4000
7F80
ENDCHAR
STARTCHAR uniAFD2
ENCODING 45010
BBX 10 11 1 -1
BITMAP
7780
1080
1080
2100
FFC0
0400
0400
7F80
1200
1200
7F80
ENDCHAR
STARTCHAR uniAFD3
ENCODING 45011
BBX 10 11 1 -1
BITMAP
7780
1080
1080
2100
FFC0
0400
1E00
0000
FFC0
2100
1E00
ENDCHAR
STARTCHAR uniAFD4
ENCODING 45012
BBX 9 11 1 -1
BITMAP
EE80
2280
2280
2280
4480
FE80
1080
1780
1080
2080
0080
ENDCHAR
STARTCHAR uniAFD5
ENCODING 45013
BBX 9 11 1 -1
BITMAP
EE80
2380
2280
4480
FE80
1080
1080
0000
7F80
0080
0080
ENDCHAR
STARTCHAR uniAFD6
ENCODING 45014
BBX 9 11 1 -1
BITMAP
EE80
2380
2280
4480
FE80
1080
1080
0000
F780
1080
1080
ENDCHAR
STARTCHAR uniAFD7
ENCODING 45015
BBX 9 11 1 -1
BITMAP
EE80
2380
2280
4480
FE80
1080
1080
0000
F200
1200
1D80
ENDCHAR
STARTCHAR uniAFD8
ENCODING 45016
BBX 9 11 1 -1
BITMAP
EE80
2280
2280
2280
4480
FE80
1080
1380
4080
4000
7F80
ENDCHAR
STARTCHAR uniAFD9
ENCODING 45017
BBX 9 11 1 -1
BITMAP
EE80
2380
2280
4480
FE80
1080
1080
0000
4F80
4200
7D80
ENDCHAR
STARTCHAR uniAFDA
ENCODING 45018
BBX 10 11 1 -1
BITMAP
EE80
2380
2280
4480
FE80
1080
1000
0200
4FC0
4480
7B00
ENDCHAR
STARTCHAR uniAFDB
ENCODING 45019
BBX 9 11 1 -1
BITMAP
EE80
2380
2280
4480
FE80
1080
1000
7F80
4000
4000
7F80
ENDCHAR
STARTCHAR uniAFDC
ENCODING 45020
BBX 9 11 1 -1
BITMAP
EE80
2380
2280
4480
FE80
1080
7F80
0080
7F80
4000
7F80
ENDCHAR
STARTCHAR uniAFDD
ENCODING 45021
BBX 9 11 1 -1
BITMAP
EE80
2380
2280
4480
FE80
1080
7F80
0880
7880
4080
7C80
ENDCHAR
STARTCHAR uniAFDE
ENCODING 45022
BBX 9 11 1 -1
BITMAP
EE80
2380
2280
4480
FE80
1080
7B80
0A80
7A80
4280
7F80
ENDCHAR
STARTCHAR uniAFDF
ENCODING 45023
BBX 9 11 1 -1
BITMAP
EE80
2380
2280
4480
FE80
1080
7A80
0A80
7B80
4280
7F80
ENDCHAR
STARTCHAR uniAFE0
ENCODING 45024
BBX 10 11 1 -1
BITMAP
EE80
2380
2280
4480
FE80
1080
7900
0900
7900
4280
7C40
ENDCHAR
STARTCHAR uniAFE1
ENCODING 45025
BBX 9 11 1 -1
BITMAP
EE80
2380
2280
4480
FE80
1080
7B80
0A00
7B80
4200
7F80
ENDCHAR
STARTCHAR uniAFE2
ENCODING 45026
BBX 10 11 1 -1
BITMAP
EE80
2380
2280
4480
FE80
1080
7FC0
0A80
7A80
4280
7FC0
ENDCHAR
STARTCHAR uniAFE3
ENCODING 45027
BBX 10 11 1 -1
BITMAP
EE80
2380
2280
4480
FE80
1080
7200
1FC0
7300
4480
7B00
ENDCHAR
STARTCHAR uniAFE4
ENCODING 45028
BBX 9 11 1 -1
BITMAP
EE80
2380
2280
4480
FE80
1080
1080
0000
7F80
4080
7F80
ENDCHAR
STARTCHAR uniAFE5
ENCODING 45029
BBX 9 11 1 -1
BITMAP
EE80
2380
2280
4480
FE80
1080
1000
4080
7F80
4080
7F80
ENDCHAR
STARTCHAR uniAFE6
ENCODING 45030
BBX 10 11 1 -1
BITMAP
EE80
2380
2280
4480
FE80
1080
1000
4900
7900
4A80
7C40
ENDCHAR
STARTCHAR uniAFE7
ENCODING 45031
BBX 9 11 1 -1
BITMAP
EE80
2380
2280
4480
FE80
1080
1080
0000
0800
3600
C180
ENDCHAR
STARTCHAR uniAFE8
ENCODING 45032
BBX 10 11 1 -1
BITMAP
EE80
2380
2280
4480
FE80
1080
1000
1100
1100
2A80
C440
ENDCHAR
STARTCHAR uniAFE9
ENCODING 45033
BBX 9 11 1 -1
BITMAP
EE80
2380
2280
4480
FE80
1080
1080
3F00
4080
4080
3F00
ENDCHAR
STARTCHAR uniAFEA
ENCODING 45034
BBX 9 11 1 -1
BITMAP
EE80
2380
2280
4480
FE80
1080
1000
0000
7F80
0C00
7380
ENDCHAR
STARTCHAR uniAFEB
ENCODING 45035
BBX 9 11 1 -1
BITMAP
EE80
2380
2280
4480
FE80
1080
1E00
0000
7F80
0C00
7380
ENDCHAR
STARTCHAR uniAFEC
ENCODING 45036
BBX 9 11 1 -1
BITMAP
EE80
2380
2280
4480
FE80
1080
0000
7F80
0080
7F80
0080
ENDCHAR
STARTCHAR uniAFED
ENCODING 45037
BBX 9 11 1 -1
BITMAP
EE80
2380
2280
4480
FE80
1080
7F80
4000
7F80
4000
7F80
ENDCHAR
STARTCHAR uniAFEE
ENCODING 45038
BBX 9 11 1 -1
BITMAP
EE80
2380
2280
4480
FE80
1080
1000
7F80
1200
1200
7F80
ENDCHAR
STARTCHAR uniAFEF
ENCODING 45039
BBX 10 11 1 -1
BITMAP
EE80
2380
2280
4480
FE80
1080
0400
7FC0
1100
2080
1F00
ENDCHAR
STARTCHAR uniAFF0
ENCODING 45040
BBX 9 11 1 -1
BITMAP
DA80
4A80
4A80
4A80
9280
FA80
2280
2E80
2280
4280
0280
ENDCHAR
STARTCHAR uniAFF1
ENCODING 45041
BBX 9 11 1 -1
BITMAP
DA80
4A80
4A80
9280
FA80
2E80
2280
0000
7F80
0080
0080
ENDCHAR
STARTCHAR uniAFF2
ENCODING 45042
BBX 9 11 1 -1
BITMAP
DA80
4A80
4A80
9280
FA80
2E80
2280
0000
F780
1080
1080
ENDCHAR
STARTCHAR uniAFF3
ENCODING 45043
BBX 9 11 1 -1
BITMAP
DA80
4A80
4A80
9280
FA80
2E80
2280
0000
F200
1200
1D80
ENDCHAR
STARTCHAR uniAFF4
ENCODING 45044
BBX 9 11 1 -1
BITMAP
DA80
4A80
4A80
8A80
FA80
2280
2E80
2280
4000
4000
7F80
ENDCHAR
STARTCHAR uniAFF5
ENCODING 45045
BBX 9 11 1 -1
BITMAP
DA80
4A80
4A80
9280
FA80
2E80
2280
0000
4F80
4200
7D80
ENDCHAR
STARTCHAR uniAFF6
ENCODING 45046
BBX 10 11 1 -1
BITMAP
DA80
4A80
4A80
9280
FA80
2E80
2280
0200
4FC0
4480
7B00
ENDCHAR
STARTCHAR uniAFF7
ENCODING 45047
BBX 9 11 1 -1
BITMAP
DA80
4A80
4A80
9280
FA80
2E80
2280
7F80
4000
4000
7F80
ENDCHAR
STARTCHAR uniAFF8
ENCODING 45048
BBX 9 11 1 -1
BITMAP
DA80
4E80
4A80
9280
FA80
2280
7F80
0080
7F80
4000
7F80
ENDCHAR
STARTCHAR uniAFF9
ENCODING 45049
BBX 9 11 1 -1
BITMAP
DA80
4E80
4A80
9280
FA80
2280
7F80
0880
7880
4080
7C80
ENDCHAR
STARTCHAR uniAFFA
ENCODING 45050
BBX 9 11 1 -1
BITMAP
DA80
4E80
4A80
9280
FA80
2280
7B80
0A80
7A80
4280
7F80
ENDCHAR
STARTCHAR uniAFFB
ENCODING 45051
BBX 9 11 1 -1
BITMAP
DA80
4E80
4A80
9280
FA80
2280
7A80
0A80
7B80
4280
7F80
ENDCHAR
STARTCHAR uniAFFC
ENCODING 45052
BBX 10 11 1 -1
BITMAP
DA80
4E80
4A80
9280
FA80
2280
7900
0900
7900
4280
7C40
ENDCHAR
STARTCHAR uniAFFD
ENCODING 45053
BBX 9 11 1 -1
BITMAP
DA80
4E80
4A80
9280
FA80
2280
7B80
0A00
7B80
4200
7F80
ENDCHAR
STARTCHAR uniAFFE
ENCODING 45054
BBX 10 11 1 -1
BITMAP
DA80
4E80
4A80
9280
FA80
2280
7FC0
0A80
7A80
4280
7FC0
ENDCHAR
STARTCHAR uniAFFF
ENCODING 45055
BBX 10 11 1 -1
BITMAP
DA80
4E80
4A80
9280
FA80
2280
7200
1FC0
7300
4480
7B00
ENDCHAR
STARTCHAR uniB000
ENCODING 45056
BBX 9 11 1 -1
BITMAP
DA80
4A80
4A80
9280
FA80
2E80
2280
0000
7F80
4080
7F80
ENDCHAR
STARTCHAR uniB001
ENCODING 45057
BBX 9 11 1 -1
BITMAP
DA80
4A80
4A80
9280
FA80
2E80
2280
4080
7F80
4080
7F80
ENDCHAR
STARTCHAR uniB002
ENCODING 45058
BBX 10 11 1 -1
BITMAP
DA80
4A80
4A80
9280
FA80
2E80
2280
4900
7900
4A80
7C40
ENDCHAR
STARTCHAR uniB003
ENCODING 45059
BBX 10 11 1 -1
BITMAP
DA80
4A80
4A80
9280
FA80
2E80
2280
0400
0400
1B00
60C0
ENDCHAR
STARTCHAR uniB004
ENCODING 45060
BBX 10 11 1 -1
BITMAP
DA80
4A80
4A80
9280
FA80
2E80
2280
1100
1100
2A80
C440
ENDCHAR
STARTCHAR uniB005
ENCODING 45061
BBX 9 11 1 -1
BITMAP
DA80
4A80
4A80
9280
FA80
2E80
2280
3F00
4080
4080
3F00
ENDCHAR
STARTCHAR uniB006
ENCODING 45062
BBX 9 11 1 -1
BITMAP
DA80
4A80
4A80
9280
FA80
2E80
2280
0000
7F80
0C00
7380
ENDCHAR
STARTCHAR uniB007
ENCODING 45063
BBX 9 11 1 -1
BITMAP
DA80
4E80
4A80
9280
FA80
2280
1E00
0000
7F80
0C00
7380
ENDCHAR
STARTCHAR uniB008
ENCODING 45064
BBX 9 11 1 -1
BITMAP
DA80
4E80
4A80
9280
FA80
2280
0000
7F80
0080
7F80
0080
ENDCHAR
STARTCHAR uniB009
ENCODING 45065
BBX 9 11 1 -1
BITMAP
DA80
4E80
4A80
9280
FA80
2280
7F80
4000
7F80
4000
7F80
ENDCHAR
STARTCHAR uniB00A
ENCODING 45066
BBX 9 11 1 -1
BITMAP
DA80
4A80
4A80
9280
FA80
2E80
2280
7F80
1200
1200
7F80
ENDCHAR
STARTCHAR uniB00B
ENCODING 45067
BBX 10 11 1 -1
BITMAP
DA80
4E80
4A80
9280
FA80
2280
0400
7FC0
1100
2080
1F00
ENDCHAR
STARTCHAR uniB00C
ENCODING 45068
BBX 9 11 1 -1
BITMAP
EE80
2280
2280
2280
4480
FE80
1080
1080
1080
1080
2080
ENDCHAR
STARTCHAR uniB00D
ENCODING 45069
BBX 9 11 1 -1
BITMAP
EE80
2280
2280
4480
FE80
1080
1080
0000
7F80
0080
0080
ENDCHAR
STARTCHAR uniB00E
ENCODING 45070
BBX 9 11 1 -1
BITMAP
EE80
2280
2280
4480
FE80
1080
1080
0000
F780
1080
1080
ENDCHAR
STARTCHAR uniB00F
ENCODING 45071
BBX 9 11 1 -1
BITMAP
EE80
2280
2280
4480
FE80
1080
1080
0000
F200
1200
1D80
ENDCHAR
STARTCHAR uniB010
ENCODING 45072
BBX 9 11 1 -1
BITMAP
EE80
2280
2280
2280
4480
FE80
1080
1080
4000
4000
7F80
ENDCHAR
STARTCHAR uniB011
ENCODING 45073
BBX 9 11 1 -1
BITMAP
EE80
2280
2280
4480
FE80
1080
1080
0000
4F80
4200
7D80
ENDCHAR
STARTCHAR uniB012
ENCODING 45074
BBX 10 11 1 -1
BITMAP
EE80
2280
2280
4480
FE80
1080
1080
0200
4FC0
4480
7B00
ENDCHAR
STARTCHAR uniB013
ENCODING 45075
BBX 9 11 1 -1
BITMAP
EE80
2280
2280
4480
FE80
1080
1080
7F80
4000
4000
7F80
ENDCHAR
STARTCHAR uniB014
ENCODING 45076
BBX 9 11 1 -1
BITMAP
EE80
2280
2280
4480
FE80
1080
7F80
0080
7F80
4000
7F80
ENDCHAR
STARTCHAR uniB015
ENCODING 45077
BBX 9 11 1 -1
BITMAP
EE80
2280
2280
4480
FE80
1080
7F80
0880
7880
4080
7C80
ENDCHAR
STARTCHAR uniB016
ENCODING 45078
BBX 9 11 1 -1
BITMAP
EE80
2280
2280
4480
FE80
1080
7B80
0A80
7A80
4280
7F80
ENDCHAR
STARTCHAR uniB017
ENCODING 45079
BBX 9 11 1 -1
BITMAP
EE80
2280
2280
4480
FE80
1080
7A80
0A80
7B80
4280
7F80
ENDCHAR
STARTCHAR uniB018
ENCODING 45080
BBX 10 11 1 -1
BITMAP
EE80
2280
2280
4480
FE80
1080
7900
0900
7900
4280
7C40
ENDCHAR
STARTCHAR uniB019
ENCODING 45081
BBX 9 11 1 -1
BITMAP
EE80
2280
2280
4480
FE80
1080
7B80
0A00
7B80
4200
7F80
ENDCHAR
STARTCHAR uniB01A
ENCODING 45082
BBX 10 11 1 -1
BITMAP
EE80
2280
2280
4480
FE80
1080
7FC0
0A80
7A80
4280
7FC0
ENDCHAR
STARTCHAR uniB01B
ENCODING 45083
BBX 10 11 1 -1
BITMAP
EE80
2280
2280
4480
FE80
1080
7200
1FC0
7300
4480
7B00
ENDCHAR
STARTCHAR uniB01C
ENCODING 45084
BBX 9 11 1 -1
BITMAP
EE80
2280
2280
4480
FE80
1080
1080
0000
7F80
4080
7F80
ENDCHAR
STARTCHAR uniB01D
ENCODING 45085
BBX 9 11 1 -1
BITMAP
EE80
2280
2280
4480
FE80
1080
1080
4080
7F80
4080
7F80
ENDCHAR
STARTCHAR uniB01E
ENCODING 45086
BBX 10 11 1 -1
BITMAP
EE80
2280
2280
4480
FE80
1080
1080
4900
7900
4A80
7C40
ENDCHAR
STARTCHAR uniB01F
ENCODING 45087
BBX 9 11 1 -1
BITMAP
EE80
2280
2280
4480
FE80
1080
1080
0000
0800
3600
C180
ENDCHAR
STARTCHAR uniB020
ENCODING 45088
BBX 10 11 1 -1
BITMAP
EE80
2280
2280
4480
FE80
1080
1080
1100
1100
2A80
C440
ENDCHAR
STARTCHAR uniB021
ENCODING 45089
BBX 9 11 1 -1
BITMAP
EE80
2280
2280
4480
FE80
1080
1080
3F00
4080
4080
3F00
ENDCHAR
STARTCHAR uniB022
ENCODING 45090
BBX 9 11 1 -1
BITMAP
EE80
2280
2280
4480
FE80
1080
1080
0000
7F80
0C00
7380
ENDCHAR
STARTCHAR uniB023
ENCODING 45091
BBX 9 11 1 -1
BITMAP
EE80
2280
2280
4480
FE80
1080
1E00
0000
7F80
0C00
7380
ENDCHAR
STARTCHAR uniB024
ENCODING 45092
BBX 9 11 1 -1
BITMAP
EE80
2280
2280
4480
FE80
1080
0000
7F80
0080
7F80
0080
ENDCHAR
STARTCHAR uniB025
ENCODING 45093
BBX 9 11 1 -1
BITMAP
EE80
2280
2280
4480
FE80
1080
7F80
4000
7F80
4000
7F80
ENDCHAR
STARTCHAR uniB026
ENCODING 45094
BBX 9 11 1 -1
BITMAP
EE80
2280
2280
4480
FE80
1080
1080
7F80
1200
1200
7F80
ENDCHAR
STARTCHAR uniB027
ENCODING 45095
BBX 10 11 1 -1
BITMAP
EE80
2280
2280
4480
FE80
1080
0400
7FC0
1100
2080
1F00
ENDCHAR
STARTCHAR uniB028
ENCODING 45096
BBX 10 11 1 -1
BITMAP
7780
1080
1080
1080
1080
2100
FFC0
2100
2100
2100
2100
ENDCHAR
STARTCHAR uniB029
ENCODING 45097
BBX 10 11 1 -1
BITMAP
7780
1080
1080
2100
FFC0
2100
2100
7F80
0080
0080
0080
ENDCHAR
STARTCHAR uniB02A
ENCODING 45098
BBX 10 11 1 -1
BITMAP
7780
1080
1080
2100
FFC0
2100
2100
7F80
0880
0880
0880
ENDCHAR
STARTCHAR uniB02B
ENCODING 45099
BBX 10 11 1 -1
BITMAP
7780
1080
1080
2100
FFC0
2100
2100
7900
0900
0A80
0C40
ENDCHAR
STARTCHAR uniB02C
ENCODING 45100
BBX 10 11 1 -1
BITMAP
7780
1080
1080
1080
2100
FFC0
1100
1100
4000
4000
7F80
ENDCHAR
STARTCHAR uniB02D
ENCODING 45101
BBX 10 11 1 -1
BITMAP
7780
1080
1080
2100
FFC0
2100
2100
4F80
4200
4500
7880
ENDCHAR
STARTCHAR uniB02E
ENCODING 45102
BBX 10 11 1 -1
BITMAP
7780
1080
1080
2100
FFC0
2100
2100
4200
4FC0
4480
7B00
ENDCHAR
STARTCHAR uniB02F
ENCODING 45103
BBX 10 11 1 -1
BITMAP
7780
1080
1080
2100
FFC0
2100
2100
7F80
4000
4000
7F80
ENDCHAR
STARTCHAR uniB030
ENCODING 45104
BBX 10 11 1 -1
BITMAP
7780
1080
1080
2100
FFC0
2100
7F80
0080
7F80
4000
7F80
ENDCHAR
STARTCHAR uniB031
ENCODING 45105
BBX 10 11 1 -1
BITMAP
7780
1080
1080
2100
FFC0
2100
7F80
0880
7880
4080
7C80
ENDCHAR
STARTCHAR uniB032
ENCODING 45106
BBX 10 11 1 -1
BITMAP
7780
1080
1080
2100
FFC0
2100
7B80
0A80
7A80
4280
7F80
ENDCHAR
STARTCHAR uniB033
ENCODING 45107
BBX 10 11 1 -1
BITMAP
7780
1080
1080
2100
FFC0
2100
7B80
0A80
7B80
4280
7F80
ENDCHAR
STARTCHAR uniB034
ENCODING 45108
BBX 10 11 1 -1
BITMAP
7780
1080
1080
2100
FFC0
2100
7900
0900
7900
4280
7C40
ENDCHAR
STARTCHAR uniB035
ENCODING 45109
BBX 10 11 1 -1
BITMAP
7780
1080
1080
2100
FFC0
2100
7B80
0A00
7B80
4200
7F80
ENDCHAR
STARTCHAR uniB036
ENCODING 45110
BBX 10 11 1 -1
BITMAP
7780
1080
1080
2100
FFC0
2100
7FC0
0A80
7A80
4280
7FC0
ENDCHAR
STARTCHAR uniB037
ENCODING 45111
BBX 10 11 1 -1
BITMAP
7780
1080
1080
2100
FFC0
2100
7B00
0800
7FC0
4480
7B00
ENDCHAR
STARTCHAR uniB038
ENCODING 45112
BBX 10 11 1 -1
BITMAP
7780
1080
1080
2100
FFC0
2100
2100
7F80
4080
4080
7F80
ENDCHAR
STARTCHAR uniB039
ENCODING 45113
BBX 10 11 1 -1
BITMAP
7780
1080
1080
2100
FFC0
1200
1200
4080
7F80
4080
7F80
ENDCHAR
STARTCHAR uniB03A
ENCODING 45114
BBX 10 11 1 -1
BITMAP
7780
1080
1080
2100
FFC0
1200
1200
4900
7900
4A80
7C40
ENDCHAR
STARTCHAR uniB03B
ENCODING 45115
BBX 10 11 1 -1
BITMAP
7780
1080
1080
2100
FFC0
2100
2100
0400
0C00
1200
6180
ENDCHAR
STARTCHAR uniB03C
ENCODING 45116
BBX 10 11 1 -1
BITMAP
7780
1080
1080
2100
FFC0
2100
2100
1100
1100
2A80
C440
ENDCHAR
STARTCHAR uniB03D
ENCODING 45117
BBX 10 11 1 -1
BITMAP
7780
1080
1080
2100
FFC0
2100
2100
3F00
4080
4080
3F00
ENDCHAR
STARTCHAR uniB03E
ENCODING 45118
BBX 10 11 1 -1
BITMAP
7780
1080
1080
2100
FFC0
2100
2100
7F80
0C00
1200
6180
ENDCHAR
STARTCHAR uniB03F
ENCODING 45119
BBX 10 11 1 -1
BITMAP
7780
1080
1080
2100
FFC0
2100
3F00
0000
7F80
0C00
7380
ENDCHAR
STARTCHAR uniB040
ENCODING 45120
BBX 10 11 1 -1
BITMAP
7780
1080
1080
2100
FFC0
2100
2100
7F80
0080
7F80
0080
ENDCHAR
STARTCHAR uniB041
ENCODING 45121
BBX 10 11 1 -1
BITMAP
7780
1080
1080
2100
FFC0
2100
7F80
4000
7F80
4000
7F80
ENDCHAR
STARTCHAR uniB042
ENCODING 45122
BBX 10 11 1 -1
BITMAP
7780
1080
1080
2100
FFC0
2100
2100
7F80
1200
1200
7F80
ENDCHAR
STARTCHAR uniB043
ENCODING 45123
BBX 10 11 1 -1
BITMAP
7780
1080
1080
2100
FFC0
2100
3F00
0000
FFC0
2100
1E00
ENDCHAR
STARTCHAR uniB044
ENCODING 45124
BBX 10 10 1 0
BITMAP
7780
1080
1080
1080
1080
1080
2080
2100
0000
FFC0
ENDCHAR
STARTCHAR uniB045
ENCODING 45125
BBX 10 11 1 -1
BITMAP
7780
1080
1080
2100
FFC0
0000
0000
7F80
0080
0080
0080
ENDCHAR
STARTCHAR uniB046
ENCODING 45126
BBX 10 11 1 -1
BITMAP
7780
1080
1080
2100
FFC0
0000
0000
7F80
0880
0880
0880
ENDCHAR
STARTCHAR uniB047
ENCODING 45127
BBX 10 11 1 -1
BITMAP
7780
1080
1080
2100
FFC0
0000
0000
7900
0900
0A80
0C40
ENDCHAR
STARTCHAR uniB048
ENCODING 45128
BBX 10 11 1 -1
BITMAP
7780
1080
1080
1080
2100
FFC0
0000
0000
4000
4000
7F80
ENDCHAR
STARTCHAR uniB049
ENCODING 45129
BBX 10 11 1 -1
BITMAP
7780
1080
1080
2100
FFC0
0000
0000
4F80
4200
4500
7880
ENDCHAR
STARTCHAR uniB04A
ENCODING 45130
BBX 10 11 1 -1
BITMAP
7780
1080
1080
2100
FFC0
0000
0000
4200
4FC0
4480
7B00
ENDCHAR
STARTCHAR uniB04B
ENCODING 45131
BBX 10 11 1 -1
BITMAP
7780
1080
1080
2100
FFC0
0000
0000
7F80
4000
4000
7F80
ENDCHAR
STARTCHAR uniB04C
ENCODING 45132
BBX 10 11 1 -1
BITMAP
7780
1080
1080
2100
FFC0
0000
7F80
0080
7F80
4000
7F80
ENDCHAR
STARTCHAR uniB04D
ENCODING 45133
BBX 10 11 1 -1
BITMAP
7780
1080
1080
2100
FFC0
0000
7F80
0880
7880
4080
7C80
ENDCHAR
STARTCHAR uniB04E
ENCODING 45134
BBX 10 11 1 -1
BITMAP
7780
1080
1080
2100
FFC0
0000
7B80
0A80
7A80
4280
7F80
ENDCHAR
STARTCHAR uniB04F
ENCODING 45135
BBX 10 11 1 -1
BITMAP
7780
1080
1080
2100
FFC0
0000
7A80
0A80
7B80
4280
7F80
ENDCHAR
STARTCHAR uniB050
ENCODING 45136
BBX 10 11 1 -1
BITMAP
7780
1080
1080
2100
FFC0
0000
7900
0900
7900
4280
7C40
ENDCHAR
STARTCHAR uniB051
ENCODING 45137
BBX 10 11 1 -1
BITMAP
7780
1080
1080
2100
FFC0
0000
7B80
0A00
7B80
4200
7F80
ENDCHAR
STARTCHAR uniB052
ENCODING 45138
BBX 10 11 1 -1
BITMAP
7780
1080
1080
2100
FFC0
0000
7FC0
0A80
7A80
4280
7FC0
ENDCHAR
STARTCHAR uniB053
ENCODING 45139
BBX 10 11 1 -1
BITMAP
7780
1080
1080
2100
FFC0
0000
7B00
0800
7FC0
4480
7B00
ENDCHAR
STARTCHAR uniB054
ENCODING 45140
BBX 10 11 1 -1
BITMAP
7780
1080
1080
2100
FFC0
0000
0000
7F80
4080
4080
7F80
ENDCHAR
STARTCHAR uniB055
ENCODING 45141
BBX 10 11 1 -1
BITMAP
7780
1080
1080
2100
FFC0
0000
0000
4080
7F80
4080
7F80
ENDCHAR
STARTCHAR uniB056
ENCODING 45142
BBX 10 11 1 -1
BITMAP
7780
1080
1080
2100
FFC0
0000
0000
4900
7900
4A80
7C40
ENDCHAR
STARTCHAR uniB057
ENCODING 45143
BBX 10 11 1 -1
BITMAP
7780
1080
1080
2100
FFC0
0000
0000
0400
0C00
1200
6180
ENDCHAR
STARTCHAR uniB058
ENCODING 45144
BBX 10 11 1 -1
BITMAP
7780
1080
1080
2100
FFC0
0000
0000
1100
1100
2A80
C440
ENDCHAR
STARTCHAR uniB059
ENCODING 45145
BBX 10 11 1 -1
BITMAP
7780
1080
1080
2100
FFC0
0000
0000
3F00
4080
4080
3F00
ENDCHAR
STARTCHAR uniB05A
ENCODING 45146
BBX 10 11 1 -1
BITMAP
7780
1080
1080
2100
FFC0
0000
0000
7F80
0C00
1200
6180
ENDCHAR
STARTCHAR uniB05B
ENCODING 45147
BBX 10 11 1 -1
BITMAP
7780
1080
1080
2100
FFC0
0000
1E00
0000
7F80
0C00
7380
ENDCHAR
STARTCHAR uniB05C
ENCODING 45148
BBX 10 11 1 -1
BITMAP
7780
1080
1080
2100
FFC0
0000
0000
7F80
0080
7F80
0080
ENDCHAR
STARTCHAR uniB05D
ENCODING 45149
BBX 10 11 1 -1
BITMAP
7780
1080
1080
2100
FFC0
0000
7F80
4000
7F80
4000
7F80
ENDCHAR
STARTCHAR uniB05E
ENCODING 45150
BBX 10 11 1 -1
BITMAP
7780
1080
1080
2100
FFC0
0000
0000
7F80
1200
1200
7F80
ENDCHAR
STARTCHAR uniB05F
ENCODING 45151
BBX 10 11 1 -1
BITMAP
7780
1080
1080
2100
FFC0
0000
1E00
0000
FFC0
2100
1E00
ENDCHAR
STARTCHAR uniB060
ENCODING 45152
BBX 9 11 1 -1
BITMAP
EE80
2280
2280
2280
2280
4280
4280
8480
FF80
0080
0080
ENDCHAR
STARTCHAR uniB061
ENCODING 45153
BBX 9 11 1 -1
BITMAP
EE80
2280
2280
4480
FF80
0080
0080
0000
7F80
0080
0080
ENDCHAR
STARTCHAR uniB062
ENCODING 45154
BBX 9 11 1 -1
BITMAP
EE80
2280
2280
4480
FF80
0080
0080
0000
F780
1080
1080
ENDCHAR
STARTCHAR uniB063
ENCODING 45155
BBX 9 11 1 -1
BITMAP
EE80
2280
2280
4480
FF80
0080
0080
0000
F200
1200
1D80
ENDCHAR
STARTCHAR uniB064
ENCODING 45156
BBX 9 11 1 -1
BITMAP
EE80
2280
2280
2280
4480
FF80
0080
0080
4000
4000
7F80
ENDCHAR
STARTCHAR uniB065
ENCODING 45157
BBX 9 11 1 -1
BITMAP
EE80
2280
2280
4480
FF80
0080
0080
0000
4F80
4200
7D80
ENDCHAR
STARTCHAR uniB066
ENCODING 45158
BBX 10 11 1 -1
BITMAP
EE80
2280
2280
4480
FF80
0080
0080
0200
4FC0
4480
7B00
ENDCHAR
STARTCHAR uniB067
ENCODING 45159
BBX 9 11 1 -1
BITMAP
EE80
2280
2280
4480
FF80
0080
0080
7F80
4000
4000
7F80
ENDCHAR
STARTCHAR uniB068
ENCODING 45160
BBX 9 11 1 -1
BITMAP
EE80
2280
2280
4480
FF80
0080
7F80
0080
7F80
4000
7F80
ENDCHAR
STARTCHAR uniB069
ENCODING 45161
BBX 9 11 1 -1
BITMAP
EE80
2280
2280
4480
FF80
0080
7F80
0880
7880
4080
7C80
ENDCHAR
STARTCHAR uniB06A
ENCODING 45162
BBX 9 11 1 -1
BITMAP
EE80
2280
2280
4480
FF80
0080
7B80
0A80
7A80
4280
7F80
ENDCHAR
STARTCHAR uniB06B
ENCODING 45163
BBX 9 11 1 -1
BITMAP
EE80
2280
2280
4480
FF80
0080
7A80
0A80
7B80
4280
7F80
ENDCHAR
STARTCHAR uniB06C
ENCODING 45164
BBX 10 11 1 -1
BITMAP
EE80
2280
2280
4480
FF80
0080
7900
0900
7900
4280
7C40
ENDCHAR
STARTCHAR uniB06D
ENCODING 45165
BBX 9 11 1 -1
BITMAP
EE80
2280
2280
4480
FF80
0080
7B80
0A00
7B80
4200
7F80
ENDCHAR
STARTCHAR uniB06E
ENCODING 45166
BBX 10 11 1 -1
BITMAP
EE80
2280
2280
4480
FF80
0080
7FC0
0A80
7A80
4280
7FC0
ENDCHAR
STARTCHAR uniB06F
ENCODING 45167
BBX 10 11 1 -1
BITMAP
EE80
2280
2280
4480
FF80
0080
7200
1FC0
7300
4480
7B00
ENDCHAR
STARTCHAR uniB070
ENCODING 45168
BBX 9 11 1 -1
BITMAP
EE80
2280
2280
4480
FF80
0080
0080
0000
7F80
4080
7F80
ENDCHAR
STARTCHAR uniB071
ENCODING 45169
BBX 9 11 1 -1
BITMAP
EE80
2280
2280
4480
FF80
0080
0000
4080
7F80
4080
7F80
ENDCHAR
STARTCHAR uniB072
ENCODING 45170
BBX 10 11 1 -1
BITMAP
EE80
2280
2280
4480
FF80
0080
0000
4900
7900
4A80
7C40
ENDCHAR
STARTCHAR uniB073
ENCODING 45171
BBX 9 11 1 -1
BITMAP
EE80
2280
2280
4480
FF80
0080
0080
0000
0800
3600
C180
ENDCHAR
STARTCHAR uniB074
ENCODING 45172
BBX 10 11 1 -1
BITMAP
EE80
2280
2280
4480
FF80
0080
0080
1100
1100
2A80
C440
ENDCHAR
STARTCHAR uniB075
ENCODING 45173
BBX 9 11 1 -1
BITMAP
EE80
2280
2280
4480
FF80
0080
0080
3F00
4080
4080
3F00
ENDCHAR
STARTCHAR uniB076
ENCODING 45174
BBX 9 11 1 -1
BITMAP
EE80
2280
2280
4480
FF80
0080
0080
0000
7F80
0C00
7380
ENDCHAR
STARTCHAR uniB077
ENCODING 45175
BBX 9 11 1 -1
BITMAP
EE80
2280
2280
4480
FF80
0080
1E00
0000
7F80
0C00
7380
ENDCHAR
STARTCHAR uniB078
ENCODING 45176
BBX 9 11 1 -1
BITMAP
EE80
2280
2280
4480
FF80
0080
0000
7F80
0080
7F80
0080
ENDCHAR
STARTCHAR uniB079
ENCODING 45177
BBX 9 11 1 -1
BITMAP
EE80
2280
2280
4480
FF80
0080
7F80
4000
7F80
4000
7F80
ENDCHAR
STARTCHAR uniB07A
ENCODING 45178
BBX 9 11 1 -1
BITMAP
EE80
2280
2280
4480
FF80
0080
0080
7F80
1200
1200
7F80
ENDCHAR
STARTCHAR uniB07B
ENCODING 45179
BBX 10 11 1 -1
BITMAP
EE80
2280
2280
4480
FF80
0080
0400
7FC0
1100
2080
1F00
ENDCHAR
STARTCHAR uniB07C
ENCODING 45180
BBX 9 11 1 -1
BITMAP
FC80
2480
2480
2480
2480
2480
2480
2480
4880
9080
0080
ENDCHAR
STARTCHAR uniB07D
ENCODING 45181
BBX 9 11 1 -1
BITMAP
FC80
2480
2480
2480
4880
9080
0000
7F80
0080
0080
0080
ENDCHAR
STARTCHAR uniB07E
ENCODING 45182
BBX 9 11 1 -1
BITMAP
FC80
2480
2480
2480
4880
9080
0000
F780
1080
1080
1080
ENDCHAR
STARTCHAR uniB07F
ENCODING 45183
BBX 9 11 1 -1
BITMAP
FC80
2480
2480
2480
4880
9080
0080
F200
1200
1500
1880
ENDCHAR
STARTCHAR uniB080
ENCODING 45184
BBX 9 11 1 -1
BITMAP
FC80
2480
2480
2480
4480
8880
1080
0080
4000
4000
7F80
ENDCHAR
STARTCHAR uniB081
ENCODING 45185
BBX 9 11 1 -1
BITMAP
FC80
2480
2480
2480
4880
9080
0000
4F80
4200
4500
7880
ENDCHAR
STARTCHAR uniB082
ENCODING 45186
BBX 10 11 1 -1
BITMAP
FC80
2480
2480
2480
4880
9080
0200
4FC0
4300
4480
7B00
ENDCHAR
STARTCHAR uniB083
ENCODING 45187
BBX 9 11 1 -1
BITMAP
FC80
2480
2480
2480
4880
9080
0000
7F80
4000
4000
7F80
ENDCHAR
STARTCHAR uniB084
ENCODING 45188
BBX 9 11 1 -1
BITMAP
FC80
2480
2480
4880
9080
0080
7F80
0080
7F80
4000
7F80
ENDCHAR
STARTCHAR uniB085
ENCODING 45189
BBX 9 11 1 -1
BITMAP
FC80
2480
2480
4880
9080
0080
7F80
0880
7880
4080
7C80
ENDCHAR
STARTCHAR uniB086
ENCODING 45190
BBX 9 11 1 -1
BITMAP
FC80
2480
2480
4880
9080
0080
7B80
0A80
7A80
4280
7F80
ENDCHAR
STARTCHAR uniB087
ENCODING 45191
BBX 9 11 1 -1
BITMAP
FC80
2480
2480
4880
9080
0080
7A80
0A80
7B80
4280
7F80
ENDCHAR
STARTCHAR uniB088
ENCODING 45192
BBX 10 11 1 -1
BITMAP
FC80
2480
2480
4880
9080
0080
7900
0900
7900
4280
7C40
ENDCHAR
STARTCHAR uniB089
ENCODING 45193
BBX 9 11 1 -1
BITMAP
FC80
2480
2480
4880
9080
0080
7B80
0A00
7B80
4200
7F80
ENDCHAR
STARTCHAR uniB08A
ENCODING 45194
BBX 10 11 1 -1
BITMAP
FC80
2480
2480
4880
9080
0080
7FC0
0A80
7A80
4280
7FC0
ENDCHAR
STARTCHAR uniB08B
ENCODING 45195
BBX 10 11 1 -1
BITMAP
FC80
2480
2480
4880
9080
0080
7200
1FC0
7300
4480
7B00
ENDCHAR
STARTCHAR uniB08C
ENCODING 45196
BBX 9 11 1 -1
BITMAP
FC80
2480
2480
2480
4880
9080
0000
7F80
4080
4080
7F80
ENDCHAR
STARTCHAR uniB08D
ENCODING 45197
BBX 9 11 1 -1
BITMAP
FC80
2480
2480
2480
4880
9080
0000
4080
7F80
4080
7F80
ENDCHAR
STARTCHAR uniB08E
ENCODING 45198
BBX 10 11 1 -1
BITMAP
FC80
2480
2480
2480
4880
9080
0000
4900
7900
4A80
7C40
ENDCHAR
STARTCHAR uniB08F
ENCODING 45199
BBX 10 11 1 -1
BITMAP
FC80
2480
2480
2480
4880
9080
0080
0400
0400
1B00
60C0
ENDCHAR
STARTCHAR uniB090
ENCODING 45200
BBX 10 11 1 -1
BITMAP
FC80
2480
2480
2480
4880
9080
0000
1100
1100
2A80
C440
ENDCHAR
STARTCHAR uniB091
ENCODING 45201
BBX 9 11 1 -1
BITMAP
FC80
2480
2480
2480
4880
9080
0080
3F00
4080
4080
3F00
ENDCHAR
STARTCHAR uniB092
ENCODING 45202
BBX 9 11 1 -1
BITMAP
FC80
2480
2480
2480
4880
9080
0000
7F80
0C00
1200
6180
ENDCHAR
STARTCHAR uniB093
ENCODING 45203
BBX 9 11 1 -1
BITMAP
FC80
2480
2480
4880
9080
0080
1E00
0000
7F80
0C00
7380
ENDCHAR
STARTCHAR uniB094
ENCODING 45204
BBX 9 11 1 -1
BITMAP
FC80
2480
2480
4880
9080
0080
0000
7F80
0080
7F80
0080
ENDCHAR
STARTCHAR uniB095
ENCODING 45205
BBX 9 11 1 -1
BITMAP
FC80
2480
2480
4880
9080
0080
7F80
4000
7F80
4000
7F80
ENDCHAR
STARTCHAR uniB096
ENCODING 45206
BBX 9 11 1 -1
BITMAP
FC80
2480
2480
2480
4880
9080
0000
7F80
1200
1200
7F80
ENDCHAR
STARTCHAR uniB097
ENCODING 45207
BBX 10 11 1 -1
BITMAP
FC80
2480
2480
4880
9080
0080
0400
7FC0
1100
2080
1F00
ENDCHAR
STARTCHAR uniB098
ENCODING 45208
BBX 11 11 1 -1
BITMAP
8080
8080
8080
8080
8080
80E0
8080
8080
8080
FE80
0080
ENDCHAR
STARTCHAR uniB099
ENCODING 45209
BBX 11 11 1 -1
BITMAP
8080
8080
80E0
8080
FE80
0080
0000
7F80
0080
0080
0080
ENDCHAR
STARTCHAR uniB09A
ENCODING 45210
BBX 11 11 1 -1
BITMAP
8080
8080
80E0
8080
FE80
0080
0000
F780
1080
1080
1080
ENDCHAR
STARTCHAR uniB09B
ENCODING 45211
BBX 11 11 1 -1
BITMAP
8080
8080
80E0
8080
FE80
0080
0080
F200
1200
1500
1880
ENDCHAR
STARTCHAR uniB09C
ENCODING 45212
BBX 11 11 1 -1
BITMAP
8080
8080
8080
80E0
8080
FE80
0080
0080
4000
4000
7F80
ENDCHAR
STARTCHAR uniB09D
ENCODING 45213
BBX 11 11 1 -1
BITMAP
8080
8080
80E0
8080
FE80
0080
0000
4F80
4200
4500
7880
ENDCHAR
STARTCHAR uniB09E
ENCODING 45214
BBX 11 11 1 -1
BITMAP
8080
8080
80E0
8080
FE80
0080
0200
4FC0
4300
4480
7B00
ENDCHAR
STARTCHAR uniB09F
ENCODING 45215
BBX 11 11 1 -1
BITMAP
8080
8080
80E0
8080
FE80
0080
0000
7F80
4000
4000
7F80
ENDCHAR
STARTCHAR uniB0A0
ENCODING 45216
BBX 11 11 1 -1
BITMAP
8080
8080
80E0
8080
FE80
0000
7F80
0080
7F80
4000
7F80
ENDCHAR
STARTCHAR uniB0A1
ENCODING 45217
BBX 11 11 1 -1
BITMAP
8080
8080
80E0
8080
FE80
0080
7F80
0880
7880
4080
7C80
ENDCHAR
STARTCHAR uniB0A2
ENCODING 45218
BBX 11 11 1 -1
BITMAP
8080
8080
80E0
8080
FE80
0080
7B80
0A80
7A80
4280
7F80
ENDCHAR
STARTCHAR uniB0A3
ENCODING 45219
BBX 11 11 1 -1
BITMAP
8080
8080
80E0
8080
FE80
0080
7A80
0A80
7B80
4280
7F80
ENDCHAR
STARTCHAR uniB0A4
ENCODING 45220
BBX 11 11 1 -1
BITMAP
8080
8080
80E0
8080
FE80
0080
7900
0900
7900
4280
7C40
ENDCHAR
STARTCHAR uniB0A5
ENCODING 45221
BBX 11 11 1 -1
BITMAP
8080
8080
80E0
8080
FE80
0080
7B80
0A00
7B80
4200
7F80
ENDCHAR
STARTCHAR uniB0A6
ENCODING 45222
BBX 11 11 1 -1
BITMAP
8080
8080
80E0
8080
FE80
0080
7FC0
0A80
7A80
4280
7FC0
ENDCHAR
STARTCHAR uniB0A7
ENCODING 45223
BBX 11 11 1 -1
BITMAP
8080
8080
80E0
8080
FE80
0080
7200
1FC0
7300
4480
7B00
ENDCHAR
STARTCHAR uniB0A8
ENCODING 45224
BBX 11 11 1 -1
BITMAP
8080
8080
80E0
8080
FE80
0080
0000
7F80
4080
4080
7F80
ENDCHAR
STARTCHAR uniB0A9
ENCODING 45225
BBX 11 11 1 -1
BITMAP
8080
8080
80E0
8080
FE80
0000
4080
4080
7F80
4080
7F80
ENDCHAR
STARTCHAR uniB0AA
ENCODING 45226
BBX 11 11 1 -1
BITMAP
8080
8080
80E0
8080
FE80
0080
0000
4900
7900
4A80
7C40
ENDCHAR
STARTCHAR uniB0AB
ENCODING 45227
BBX 11 11 1 -1
BITMAP
8080
8080
80E0
8080
FE80
0080
0080
0400
0400
1B00
60C0
ENDCHAR
STARTCHAR uniB0AC
ENCODING 45228
BBX 11 11 1 -1
BITMAP
8080
8080
80E0
8080
FE80
0080
0000
1100
1100
2A80
C440
ENDCHAR
STARTCHAR uniB0AD
ENCODING 45229
BBX 11 11 1 -1
BITMAP
8080
8080
80E0
8080
FE80
0080
0080
3F00
4080
4080
3F00
ENDCHAR
STARTCHAR uniB0AE
ENCODING 45230
BBX 11 11 1 -1
BITMAP
8080
8080
80E0
8080
FE80
0080
0000
7F80
0C00
1200
6180
ENDCHAR
STARTCHAR uniB0AF
ENCODING 45231
BBX 11 11 1 -1
BITMAP
8080
8080
80E0
8080
FE80
0080
1E00
0000
7F80
0C00
7380
ENDCHAR
STARTCHAR uniB0B0
ENCODING 45232
BBX 11 11 1 -1
BITMAP
8080
8080
80E0
8080
FE80
0080
0000
7F80
0080
7F80
0080
ENDCHAR
STARTCHAR uniB0B1
ENCODING 45233
BBX 11 11 1 -1
BITMAP
8080
8080
80E0
8080
FE80
0080
7F80
4000
7F80
4000
7F80
ENDCHAR
STARTCHAR uniB0B2
ENCODING 45234
BBX 11 11 1 -1
BITMAP
8080
8080
80E0
8080
FE80
0080
0000
7F80
1200
1200
7F80
ENDCHAR
STARTCHAR uniB0B3
ENCODING 45235
BBX 11 11 1 -1
BITMAP
8080
8080
80E0
8080
FE80
0080
0400
7FC0
1100
2080
1F00
ENDCHAR
STARTCHAR uniB0B4
ENCODING 45236
BBX 9 11 1 -1
BITMAP
8480
8480
8480
8480
8480
8780
8480
8480
8480
F480
0480
ENDCHAR
STARTCHAR uniB0B5
ENCODING 45237
BBX 9 11 1 -1
BITMAP
8480
8480
8780
8480
F480
0480
0000
7F80
0080
0080
0080
ENDCHAR
STARTCHAR uniB0B6
ENCODING 45238
BBX 9 11 1 -1
BITMAP
8480
8480
8780
8480
F480
0480
0000
F780
1080
1080
1080
ENDCHAR
STARTCHAR uniB0B7
ENCODING 45239
BBX 9 11 1 -1
BITMAP
8480
8480
8780
8480
F480
0480
0080
F200
1200
1500
1880
ENDCHAR
STARTCHAR uniB0B8
ENCODING 45240
BBX 9 11 1 -1
BITMAP
8480
8480
8480
8780
8480
FC80
0480
0080
4000
4000
7F80
ENDCHAR
STARTCHAR uniB0B9
ENCODING 45241
BBX 9 11 1 -1
BITMAP
8480
8480
8780
8480
F480
0480
0000
4F80
4200
4500
7880
ENDCHAR
STARTCHAR uniB0BA
ENCODING 45242
BBX 10 11 1 -1
BITMAP
8480
8480
8780
8480
F480
0480
0200
4FC0
4300
4480
7B00
ENDCHAR
STARTCHAR uniB0BB
ENCODING 45243
BBX 9 11 1 -1
BITMAP
8480
8480
8780
8480
F480
0480
0000
7F80
4000
4000
7F80
ENDCHAR
STARTCHAR uniB0BC
ENCODING 45244
BBX 9 11 1 -1
BITMAP
8480
8480
8780
8480
F480
0480
7F80
0080
7F80
4000
7F80
ENDCHAR
STARTCHAR uniB0BD
ENCODING 45245
BBX 9 11 1 -1
BITMAP
8480
8480
8780
8480
F480
0480
7F80
0880
7880
4080
7C80
ENDCHAR
STARTCHAR uniB0BE
ENCODING 45246
BBX 9 11 1 -1
BITMAP
8480
8480
8780
8480
F480
0480
7B80
0A80
7A80
4280
7F80
ENDCHAR
STARTCHAR uniB0BF
ENCODING 45247
BBX 9 11 1 -1
BITMAP
8480
8480
8780
8480
F480
0480
7A80
0A80
7B80
4280
7F80
ENDCHAR
STARTCHAR uniB0C0
ENCODING 45248
BBX 10 11 1 -1
BITMAP
8480
8480
8780
8480
F480
0480
7900
0900
7900
4280
7C40
ENDCHAR
STARTCHAR uniB0C1
ENCODING 45249
BBX 9 11 1 -1
BITMAP
8480
8480
8780
8480
F480
0480
7B80
0A00
7B80
4200
7F80
ENDCHAR
STARTCHAR uniB0C2
ENCODING 45250
BBX 10 11 1 -1
BITMAP
8480
8480
8780
8480
F480
0480
7FC0
0A80
7A80
4280
7FC0
ENDCHAR
STARTCHAR uniB0C3
ENCODING 45251
BBX 10 11 1 -1
BITMAP
8480
8480
8780
8480
F480
0480
7200
1FC0
7300
4480
7B00
ENDCHAR
STARTCHAR uniB0C4
ENCODING 45252
BBX 9 11 1 -1
BITMAP
8480
8480
8780
8480
F480
0480
0000
7F80
4080
4080
7F80
ENDCHAR
STARTCHAR uniB0C5
ENCODING 45253
BBX 9 11 1 -1
BITMAP
8480
8480
8780
8480
F480
0480
0000
4080
7F80
4080
7F80
ENDCHAR
STARTCHAR uniB0C6
ENCODING 45254
BBX 10 11 1 -1
BITMAP
8480
8480
8780
8480
F480
0480
0000
4900
7900
4A80
7C40
ENDCHAR
STARTCHAR uniB0C7
ENCODING 45255
BBX 9 11 1 -1
BITMAP
8480
8480
8780
8480
F480
0480
0080
0800
0800
3600
C180
ENDCHAR
STARTCHAR uniB0C8
ENCODING 45256
BBX 10 11 1 -1
BITMAP
8480
8480
8780
8480
F480
0480
0000
1100
1100
2A80
C440
ENDCHAR
STARTCHAR uniB0C9
ENCODING 45257
BBX 9 11 1 -1
BITMAP
8480
8480
8780
8480
F480
0480
0080
3F00
4080
4080
3F00
ENDCHAR
STARTCHAR uniB0CA
ENCODING 45258
BBX 9 11 1 -1
BITMAP
8480
8480
8780
8480
F480
0480
0000
7F80
0C00
1200
6180
ENDCHAR
STARTCHAR uniB0CB
ENCODING 45259
BBX 9 11 1 -1
BITMAP
8480
8480
8780
8480
F480
0480
1E00
0000
7F80
0C00
7380
ENDCHAR
STARTCHAR uniB0CC
ENCODING 45260
BBX 9 11 1 -1
BITMAP
8480
8480
8780
8480
F480
0480
0000
7F80
0080
7F80
0080
ENDCHAR
STARTCHAR uniB0CD
ENCODING 45261
BBX 9 11 1 -1
BITMAP
8480
8480
8780
8480
F480
0480
7F80
4000
7F80
4000
7F80
ENDCHAR
STARTCHAR uniB0CE
ENCODING 45262
BBX 9 11 1 -1
BITMAP
8480
8480
8780
8480
F480
0480
0000
7F80
1200
1200
7F80
ENDCHAR
STARTCHAR uniB0CF
ENCODING 45263
BBX 10 11 1 -1
BITMAP
8480
8480
8780
8480
F480
0480
0800
FFC0
2100
4080
3F00
ENDCHAR
STARTCHAR uniB0D0
ENCODING 45264
BBX 11 11 1 -1
BITMAP
8080
8080
8080
80E0
8080
8080
8080
80E0
8080
FE80
0080
ENDCHAR
STARTCHAR uniB0D1
ENCODING 45265
BBX 11 11 1 -1
BITMAP
8080
80E0
8080
8080
FEE0
0080
0000
7F80
0080
0080
0080
ENDCHAR
STARTCHAR uniB0D2
ENCODING 45266
BBX 11 11 1 -1
BITMAP
8080
80E0
8080
8080
FEE0
0080
0000
F780
1080
1080
1080
ENDCHAR
STARTCHAR uniB0D3
ENCODING 45267
BBX 11 11 1 -1
BITMAP
8080
80E0
8080
8080
FEE0
0080
0080
F200
1200
1500
1880
ENDCHAR
STARTCHAR uniB0D4
ENCODING 45268
BBX 11 11 1 -1
BITMAP
8080
8080
80E0
8080
8080
FEE0
0080
0080
4000
4000
7F80
ENDCHAR
STARTCHAR uniB0D5
ENCODING 45269
BBX 11 11 1 -1
BITMAP
8080
80E0
8080
8080
FEE0
0080
0000
4F80
4200
4500
7880
ENDCHAR
STARTCHAR uniB0D6
ENCODING 45270
BBX 11 11 1 -1
BITMAP
8080
80E0
8080
8080
FEE0
0080
0200
4FC0
4300
4480
7B00
ENDCHAR
STARTCHAR uniB0D7
ENCODING 45271
BBX 11 11 1 -1
BITMAP
8080
80E0
8080
8080
FEE0
0080
0000
7F80
4000
4000
7F80
ENDCHAR
STARTCHAR uniB0D8
ENCODING 45272
BBX 11 11 1 -1
BITMAP
8080
80E0
8080
8080
FEE0
0080
7F80
0080
7F80
4000
7F80
ENDCHAR
STARTCHAR uniB0D9
ENCODING 45273
BBX 11 11 1 -1
BITMAP
8080
80E0
8080
8080
FEE0
0080
7F80
0880
7880
4080
7C80
ENDCHAR
STARTCHAR uniB0DA
ENCODING 45274
BBX 11 11 1 -1
BITMAP
8080
80E0
8080
8080
FEE0
0080
7B80
0A80
7A80
4280
7F80
ENDCHAR
STARTCHAR uniB0DB
ENCODING 45275
BBX 11 11 1 -1
BITMAP
8080
80E0
8080
8080
FEE0
0080
7A80
0A80
7B80
4280
7F80
ENDCHAR
STARTCHAR uniB0DC
ENCODING 45276
BBX 11 11 1 -1
BITMAP
8080
80E0
8080
8080
FEE0
0080
7900
0900
7900
4280
7C40
ENDCHAR
STARTCHAR uniB0DD
ENCODING 45277
BBX 11 11 1 -1
BITMAP
8080
80E0
8080
8080
FEE0
0080
7B80
0A00
7B80
4200
7F80
ENDCHAR
STARTCHAR uniB0DE
ENCODING 45278
BBX 11 11 1 -1
BITMAP
8080
80E0
8080
8080
FEE0
0080
7FC0
0A80
7A80
4280
7FC0
ENDCHAR
STARTCHAR uniB0DF
ENCODING 45279
BBX 11 11 1 -1
BITMAP
8080
80E0
8080
8080
FEE0
0080
7200
1FC0
7300
4480
7B00
ENDCHAR
STARTCHAR uniB0E0
ENCODING 45280
BBX 11 11 1 -1
BITMAP
8080
80E0
8080
8080
FEE0
0080
0000
7F80
4080
4080
7F80
ENDCHAR
STARTCHAR uniB0E1
ENCODING 45281
BBX 11 11 1 -1
BITMAP
8080
80E0
8080
8080
FEE0
0080
0000
4080
7F80
4080
7F80
ENDCHAR
STARTCHAR uniB0E2
ENCODING 45282
BBX 11 11 1 -1
BITMAP
8080
80E0
8080
8080
FEE0
0080
0000
4900
7900
4A80
7C40
ENDCHAR
STARTCHAR uniB0E3
ENCODING 45283
BBX 11 11 1 -1
BITMAP
8080
80E0
8080
8080
FEE0
0080
0080
0400
0400
1B00
60C0
ENDCHAR
STARTCHAR uniB0E4
ENCODING 45284
BBX 11 11 1 -1
BITMAP
8080
80E0
8080
8080
FEE0
0080
0000
1100
1100
2A80
C440
ENDCHAR
STARTCHAR uniB0E5
ENCODING 45285
BBX 11 11 1 -1
BITMAP
8080
80E0
8080
8080
FEE0
0080
0080
3F00
4080
4080
3F00
ENDCHAR
STARTCHAR uniB0E6
ENCODING 45286
BBX 11 11 1 -1
BITMAP
8080
80E0
8080
8080
FEE0
0080
0000
7F80
0C00
1200
6180
ENDCHAR
STARTCHAR uniB0E7
ENCODING 45287
BBX 11 11 1 -1
BITMAP
8080
80E0
8080
8080
FEE0
0080
1E00
0000
7F80
0C00
7380
ENDCHAR
STARTCHAR uniB0E8
ENCODING 45288
BBX 11 11 1 -1
BITMAP
8080
80E0
8080
8080
FEE0
0080
0000
7F80
0080
7F80
0080
ENDCHAR
STARTCHAR uniB0E9
ENCODING 45289
BBX 11 11 1 -1
BITMAP
8080
80E0
8080
8080
FEE0
0080
7F80
4000
7F80
4000
7F80
ENDCHAR
STARTCHAR uniB0EA
ENCODING 45290
BBX 11 11 1 -1
BITMAP
8080
80E0
8080
8080
FEE0
0080
0000
7F80
1200
1200
7F80
ENDCHAR
STARTCHAR uniB0EB
ENCODING 45291
BBX 11 11 1 -1
BITMAP
8080
80E0
8080
8080
FEE0
0080
0400
7FC0
1100
2080
1F00
ENDCHAR
STARTCHAR uniB0EC
ENCODING 45292
BBX 9 11 1 -1
BITMAP
8480
8480
8480
8780
8480
8480
8480
8780
8480
F480
0480
ENDCHAR
STARTCHAR uniB0ED
ENCODING 45293
BBX 9 11 1 -1
BITMAP
8480
8780
8480
8480
F780
0480
0000
7F80
0080
0080
0080
ENDCHAR
STARTCHAR uniB0EE
ENCODING 45294
BBX 9 11 1 -1
BITMAP
8480
8780
8480
8480
F780
0480
0000
F780
1080
1080
1080
ENDCHAR
STARTCHAR uniB0EF
ENCODING 45295
BBX 9 11 1 -1
BITMAP
8480
8780
8480
8480
F780
0480
0080
F200
1200
1500
1880
ENDCHAR
STARTCHAR uniB0F0
ENCODING 45296
BBX 9 11 1 -1
BITMAP
8480
8780
8480
8480
8780
FC80
0480
0080
4000
4000
7F80
ENDCHAR
STARTCHAR uniB0F1
ENCODING 45297
BBX 9 11 1 -1
BITMAP
8480
8780
8480
8480
F780
0480
0000
4F80
4200
4500
7880
ENDCHAR
STARTCHAR uniB0F2
ENCODING 45298
BBX 10 11 1 -1
BITMAP
8480
8780
8480
8480
F780
0480
0200
4FC0
4300
4480
7B00
ENDCHAR
STARTCHAR uniB0F3
ENCODING 45299
BBX 9 11 1 -1
BITMAP
8480
8780
8480
8480
F780
0480
0000
7F80
4000
4000
7F80
ENDCHAR
STARTCHAR uniB0F4
ENCODING 45300
BBX 9 11 1 -1
BITMAP
8480
8780
8480
8480
F780
0480
7F80
0080
7F80
4000
7F80
ENDCHAR
STARTCHAR uniB0F5
ENCODING 45301
BBX 9 11 1 -1
BITMAP
8480
8780
8480
8480
F780
0480
7F80
0880
7880
4080
7C80
ENDCHAR
STARTCHAR uniB0F6
ENCODING 45302
BBX 9 11 1 -1
BITMAP
8480
8780
8480
8480
F780
0480
7B80
0A80
7A80
4280
7F80
ENDCHAR
STARTCHAR uniB0F7
ENCODING 45303
BBX 9 11 1 -1
BITMAP
8480
8780
8480
8480
F780
0480
7A80
0A80
7B80
4280
7F80
ENDCHAR
STARTCHAR uniB0F8
ENCODING 45304
BBX 10 11 1 -1
BITMAP
8480
8780
8480
8480
F780
0480
7900
0900
7900
4280
7C40
ENDCHAR
STARTCHAR uniB0F9
ENCODING 45305
BBX 9 11 1 -1
BITMAP
8480
8780
8480
8480
F780
0480
7B80
0A00
7B80
4200
7F80
ENDCHAR
STARTCHAR uniB0FA
ENCODING 45306
BBX 10 11 1 -1
BITMAP
8480
8780
8480
8480
F780
0480
7FC0
0A80
7A80
4280
7FC0
ENDCHAR
STARTCHAR uniB0FB
ENCODING 45307
BBX 10 11 1 -1
BITMAP
8480
8780
8480
8480
F780
0480
7200
1FC0
7300
4480
7B00
ENDCHAR
STARTCHAR uniB0FC
ENCODING 45308
BBX 9 11 1 -1
BITMAP
8480
8780
8480
8480
F780
0480
0000
7F80
4080
4080
7F80
ENDCHAR
STARTCHAR uniB0FD
ENCODING 45309
BBX 9 11 1 -1
BITMAP
8480
8780
8480
8480
F780
0480
0000
4080
7F80
4080
7F80
ENDCHAR
STARTCHAR uniB0FE
ENCODING 45310
BBX 10 11 1 -1
BITMAP
8480
8780
8480
8480
F780
0480
0000
4900
7900
4A80
7C40
ENDCHAR
STARTCHAR uniB0FF
ENCODING 45311
BBX 9 11 1 -1
BITMAP
8480
8780
8480
8480
F780
0480
0080
0800
0800
3600
C180
ENDCHAR
STARTCHAR uniB100
ENCODING 45312
BBX 10 11 1 -1
BITMAP
8480
8780
8480
8480
F780
0480
0000
1100
1100
2A80
C440
ENDCHAR
STARTCHAR uniB101
ENCODING 45313
BBX 9 11 1 -1
BITMAP
8480
8780
8480
8480
F780
0480
0080
3F00
4080
4080
3F00
ENDCHAR
STARTCHAR uniB102
ENCODING 45314
BBX 9 11 1 -1
BITMAP
8480
8780
8480
8480
F780
0480
0000
7F80
0C00
1200
6180
ENDCHAR
STARTCHAR uniB103
ENCODING 45315
BBX 9 11 1 -1
BITMAP
8480
8780
8480
8480
F780
0480
1E00
0000
7F80
0C00
7380
ENDCHAR
STARTCHAR uniB104
ENCODING 45316
BBX 9 11 1 -1
BITMAP
8480
8780
8480
8480
F780
0480
0000
7F80
0080
7F80
0080
ENDCHAR
STARTCHAR uniB105
ENCODING 45317
BBX 9 11 1 -1
BITMAP
8480
8780
8480
8480
F780
0480
7F80
4000
7F80
4000
7F80
ENDCHAR
STARTCHAR uniB106
ENCODING 45318
BBX 9 11 1 -1
BITMAP
8480
8780
8480
8480
F780
0480
0000
7F80
1200
1200
7F80
ENDCHAR
STARTCHAR uniB107
ENCODING 45319
BBX 10 11 1 -1
BITMAP
8480
8780
8480
8480
F780
0480
0800
FFC0
2100
4080
3F00
ENDCHAR
STARTCHAR uniB108
ENCODING 45320
BBX 9 11 1 -1
BITMAP
8080
8080
8080
8080
8780
8080
8080
8080
8080
FE80
0080
ENDCHAR
STARTCHAR uniB109
ENCODING 45321
BBX 9 11 1 -1
BITMAP
8080
8780
8080
8080
FC80
0080
0000
7F80
0080
0080
0080
ENDCHAR
STARTCHAR uniB10A
ENCODING 45322
BBX 9 11 1 -1
BITMAP
8080
8780
8080
8080
FC80
0080
0000
F780
1080
1080
1080
ENDCHAR
STARTCHAR uniB10B
ENCODING 45323
BBX 9 11 1 -1
BITMAP
8080
8780
8080
8080
FC80
0080
0080
F200
1200
1500
1880
ENDCHAR
STARTCHAR uniB10C
ENCODING 45324
BBX 9 11 1 -1
BITMAP
8080
8080
8780
8080
8080
FE80
0080
0080
4000
4000
7F80
ENDCHAR
STARTCHAR uniB10D
ENCODING 45325
BBX 9 11 1 -1
BITMAP
8080
8780
8080
8080
FC80
0080
0000
4F80
4200
4500
7880
ENDCHAR
STARTCHAR uniB10E
ENCODING 45326
BBX 10 11 1 -1
BITMAP
8080
8780
8080
8080
FC80
0080
0200
4FC0
4300
4480
7B00
ENDCHAR
STARTCHAR uniB10F
ENCODING 45327
BBX 9 11 1 -1
BITMAP
8080
8780
8080
8080
FC80
0080
0000
7F80
4000
4000
7F80
ENDCHAR
STARTCHAR uniB110
ENCODING 45328
BBX 9 11 1 -1
BITMAP
8080
8780
8080
8080
FC80
0080
7F80
0080
7F80
4000
7F80
ENDCHAR
STARTCHAR uniB111
ENCODING 45329
BBX 9 11 1 -1
BITMAP
8080
8780
8080
8080
FC80
0080
7F80
0880
7880
4080
7C80
ENDCHAR
STARTCHAR uniB112
ENCODING 45330
BBX 9 11 1 -1
BITMAP
8080
8780
8080
8080
FC80
0080
7B80
0A80
7A80
4280
7F80
ENDCHAR
STARTCHAR uniB113
ENCODING 45331
BBX 9 11 1 -1
BITMAP
8080
8780
8080
8080
FC80
0080
7A80
0A80
7B80
4280
7F80
ENDCHAR
STARTCHAR uniB114
ENCODING 45332
BBX 10 11 1 -1
BITMAP
8080
8780
8080
8080
FC80
0080
7900
0900
7900
4280
7C40
ENDCHAR
STARTCHAR uniB115
ENCODING 45333
BBX 9 11 1 -1
BITMAP
8080
8780
8080
8080
FC80
0080
7B80
0A00
7B80
4200
7F80
ENDCHAR
STARTCHAR uniB116
ENCODING 45334
BBX 10 11 1 -1
BITMAP
8080
8780
8080
8080
FC80
0080
7FC0
0A80
7A80
4280
7FC0
ENDCHAR
STARTCHAR uniB117
ENCODING 45335
BBX 10 11 1 -1
BITMAP
8080
8780
8080
8080
FC80
0080
7200
1FC0
7300
4480
7B00
ENDCHAR
STARTCHAR uniB118
ENCODING 45336
BBX 9 11 1 -1
BITMAP
8080
8780
8080
8080
FC80
0080
0000
7F80
4080
4080
7F80
ENDCHAR
STARTCHAR uniB119
ENCODING 45337
BBX 9 11 1 -1
BITMAP
8080
8780
8080
8080
FC80
0080
0000
4080
7F80
4080
7F80
ENDCHAR
STARTCHAR uniB11A
ENCODING 45338
BBX 10 11 1 -1
BITMAP
8080
8780
8080
8080
FC80
0080
0000
4900
7900
4A80
7C40
ENDCHAR
STARTCHAR uniB11B
ENCODING 45339
BBX 10 11 1 -1
BITMAP
8080
8780
8080
8080
FC80
0080
0080
0400
0400
1B00
60C0
ENDCHAR
STARTCHAR uniB11C
ENCODING 45340
BBX 10 11 1 -1
BITMAP
8080
8780
8080
8080
FC80
0080
0000
1100
1100
2A80
C440
ENDCHAR
STARTCHAR uniB11D
ENCODING 45341
BBX 9 11 1 -1
BITMAP
8080
8780
8080
8080
FC80
0080
0080
3F00
4080
4080
3F00
ENDCHAR
STARTCHAR uniB11E
ENCODING 45342
BBX 9 11 1 -1
BITMAP
8080
8780
8080
8080
FC80
0080
0000
7F80
0C00
1200
6180
ENDCHAR
STARTCHAR uniB11F
ENCODING 45343
BBX 9 11 1 -1
BITMAP
8080
8780
8080
8080
FC80
0080
1E00
0000
7F80
0C00
7380
ENDCHAR
STARTCHAR uniB120
ENCODING 45344
BBX 9 11 1 -1
BITMAP
8080
8780
8080
8080
FC80
0080
0000
7F80
0080
7F80
0080
ENDCHAR
STARTCHAR uniB121
ENCODING 45345
BBX 9 11 1 -1
BITMAP
8080
8780
8080
8080
FC80
0080
7F80
4000
7F80
4000
7F80
ENDCHAR
STARTCHAR uniB122
ENCODING 45346
BBX 9 11 1 -1
BITMAP
8080
8780
8080
8080
FC80
0080
0000
7F80
1200
1200
7F80
ENDCHAR
STARTCHAR uniB123
ENCODING 45347
BBX 10 11 1 -1
BITMAP
8080
8780
8080
8080
FC80
0080
0400
7FC0
1100
2080
1F00
ENDCHAR
STARTCHAR uniB124
ENCODING 45348
BBX 9 11 1 -1
BITMAP
8280
8280
8280
8E80
8280
8280
8280
8280
8280
FA80
0280
ENDCHAR
STARTCHAR uniB125
ENCODING 45349
BBX 9 11 1 -1
BITMAP
8280
8E80
8280
8280
FA80
0280
0000
7F80
0080
0080
0080
ENDCHAR
STARTCHAR uniB126
ENCODING 45350
BBX 9 11 1 -1
BITMAP
8280
8E80
8280
8280
FA80
0280
0000
F780
1080
1080
1080
ENDCHAR
STARTCHAR uniB127
ENCODING 45351
BBX 9 11 1 -1
BITMAP
8280
8E80
8280
8280
FA80
0280
0080
F200
1200
1500
1880
ENDCHAR
STARTCHAR uniB128
ENCODING 45352
BBX 9 11 1 -1
BITMAP
8280
8280
8E80
8280
8280
FA80
0280
0080
4000
4000
7F80
ENDCHAR
STARTCHAR uniB129
ENCODING 45353
BBX 9 11 1 -1
BITMAP
8280
8E80
8280
8280
FA80
0280
0000
4F80
4200
4500
7880
ENDCHAR
STARTCHAR uniB12A
ENCODING 45354
BBX 10 11 1 -1
BITMAP
8280
8E80
8280
8280
FA80
0280
0200
4FC0
4300
4480
7B00
ENDCHAR
STARTCHAR uniB12B
ENCODING 45355
BBX 9 11 1 -1
BITMAP
8280
8E80
8280
8280
FA80
0280
0000
7F80
4000
4000
7F80
ENDCHAR
STARTCHAR uniB12C
ENCODING 45356
BBX 9 11 1 -1
BITMAP
8280
8E80
8280
8280
FA80
0280
7F80
0080
7F80
4000
7F80
ENDCHAR
STARTCHAR uniB12D
ENCODING 45357
BBX 9 11 1 -1
BITMAP
8280
8E80
8280
8280
FA80
0280
7F80
0880
7880
4080
7C80
ENDCHAR
STARTCHAR uniB12E
ENCODING 45358
BBX 9 11 1 -1
BITMAP
8280
8E80
8280
8280
FA80
0280
7B80
0A80
7A80
4280
7F80
ENDCHAR
STARTCHAR uniB12F
ENCODING 45359
BBX 9 11 1 -1
BITMAP
8280
8E80
8280
8280
FA80
0280
7A80
0A80
7B80
4280
7F80
ENDCHAR
STARTCHAR uniB130
ENCODING 45360
BBX 10 11 1 -1
BITMAP
8280
8E80
8280
8280
FA80
0280
7900
0900
7900
4280
7C40
ENDCHAR
STARTCHAR uniB131
ENCODING 45361
BBX 9 11 1 -1
BITMAP
8280
8E80
8280
8280
FA80
0280
7B80
0A00
7B80
4200
7F80
ENDCHAR
STARTCHAR uniB132
ENCODING 45362
BBX 10 11 1 -1
BITMAP
8280
8E80
8280
8280
FA80
0280
7FC0
0A80
7A80
4280
7FC0
ENDCHAR
STARTCHAR uniB133
ENCODING 45363
BBX 10 11 1 -1
BITMAP
8280
8E80
8280
8280
FA80
0280
7200
1FC0
7300
4480
7B00
ENDCHAR
STARTCHAR uniB134
ENCODING 45364
BBX 9 11 1 -1
BITMAP
8280
8E80
8280
8280
FA80
0280
0000
7F80
4080
4080
7F80
ENDCHAR
STARTCHAR uniB135
ENCODING 45365
BBX 9 11 1 -1
BITMAP
8280
8E80
8280
8280
FA80
0280
0000
4080
7F80
4080
7F80
ENDCHAR
STARTCHAR uniB136
ENCODING 45366
BBX 10 11 1 -1
BITMAP
8280
8E80
8280
8280
FA80
0280
0000
4900
7900
4A80
7C40
ENDCHAR
STARTCHAR uniB137
ENCODING 45367
BBX 9 11 1 -1
BITMAP
8280
8E80
8280
8280
FA80
0280
0080
0800
0800
3600
C180
ENDCHAR
STARTCHAR uniB138
ENCODING 45368
BBX 10 11 1 -1
BITMAP
8280
8E80
8280
8280
FA80
0280
0000
1100
1100
2A80
C440
ENDCHAR
STARTCHAR uniB139
ENCODING 45369
BBX 9 11 1 -1
BITMAP
8280
8E80
8280
8280
FA80
0280
0080
3F00
4080
4080
3F00
ENDCHAR
STARTCHAR uniB13A
ENCODING 45370
BBX 9 11 1 -1
BITMAP
8280
8E80
8280
8280
FA80
0280
0000
7F80
0C00
1200
6180
ENDCHAR
STARTCHAR uniB13B
ENCODING 45371
BBX 9 11 1 -1
BITMAP
8280
8E80
8280
8280
FA80
0280
1E00
0000
7F80
0C00
7380
ENDCHAR
STARTCHAR uniB13C
ENCODING 45372
BBX 9 11 1 -1
BITMAP
8280
8E80
8280
8280
FA80
0280
0000
7F80
0080
7F80
0080
ENDCHAR
STARTCHAR uniB13D
ENCODING 45373
BBX 9 11 1 -1
BITMAP
8280
8E80
8280
8280
FA80
0280
7F80
4000
7F80
4000
7F80
ENDCHAR
STARTCHAR uniB13E
ENCODING 45374
BBX 9 11 1 -1
BITMAP
8280
8E80
8280
8280
FA80
0280
0000
7F80
1200
1200
7F80
ENDCHAR
STARTCHAR uniB13F
ENCODING 45375
BBX 10 11 1 -1
BITMAP
8280
8E80
8280
8280
FA80
0280
0800
FFC0
2100
4080
3F00
ENDCHAR
STARTCHAR uniB140
ENCODING 45376
BBX 9 11 1 -1
BITMAP
8080
8080
8780
8080
8080
8780
8080
8080
8080
FE80
0080
ENDCHAR
STARTCHAR uniB141
ENCODING 45377
BBX 9 11 1 -1
BITMAP
8080
8780
8080
8780
FC80
0080
0000
7F80
0080
0080
0080
ENDCHAR
STARTCHAR uniB142
ENCODING 45378
BBX 9 11 1 -1
BITMAP
8080
8780
8080
8780
FC80
0080
0000
F780
1080
1080
1080
ENDCHAR
STARTCHAR uniB143
ENCODING 45379
BBX 9 11 1 -1
BITMAP
8080
8780
8080
8780
FC80
0080
0080
F200
1200
1500
1880
ENDCHAR
STARTCHAR uniB144
ENCODING 45380
BBX 9 11 1 -1
BITMAP
8080
8780
8080
8780
8080
FE80
0080
0080
4000
4000
7F80
ENDCHAR
STARTCHAR uniB145
ENCODING 45381
BBX 9 11 1 -1
BITMAP
8080
8780
8080
8780
FC80
0080
0000
4F80
4200
4500
7880
ENDCHAR
STARTCHAR uniB146
ENCODING 45382
BBX 10 11 1 -1
BITMAP
8080
8780
8080
8780
FC80
0080
0200
4FC0
4300
4480
7B00
ENDCHAR
STARTCHAR uniB147
ENCODING 45383
BBX 9 11 1 -1
BITMAP
8080
8780
8080
8780
FC80
0080
0000
7F80
4000
4000
7F80
ENDCHAR
STARTCHAR uniB148
ENCODING 45384
BBX 9 11 1 -1
BITMAP
8080
8780
8080
8780
FC80
0080
7F80
0080
7F80
4000
7F80
ENDCHAR
STARTCHAR uniB149
ENCODING 45385
BBX 9 11 1 -1
BITMAP
8080
8780
8080
8780
FC80
0080
7F80
0880
7880
4080
7C80
ENDCHAR
STARTCHAR uniB14A
ENCODING 45386
BBX 9 11 1 -1
BITMAP
8080
8780
8080
8780
FC80
0080
7B80
0A80
7A80
4280
7F80
ENDCHAR
STARTCHAR uniB14B
ENCODING 45387
BBX 9 11 1 -1
BITMAP
8080
8780
8080
8780
FC80
0080
7A80
0A80
7B80
4280
7F80
ENDCHAR
STARTCHAR uniB14C
ENCODING 45388
BBX 10 11 1 -1
BITMAP
8080
8780
8080
8780
FC80
0080
7900
0900
7900
4280
7C40
ENDCHAR
STARTCHAR uniB14D
ENCODING 45389
BBX 9 11 1 -1
BITMAP
8080
8780
8080
8780
FC80
0080
7B80
0A00
7B80
4200
7F80
ENDCHAR
STARTCHAR uniB14E
ENCODING 45390
BBX 10 11 1 -1
BITMAP
8080
8780
8080
8780
FC80
0080
7FC0
0A80
7A80
4280
7FC0
ENDCHAR
STARTCHAR uniB14F
ENCODING 45391
BBX 10 11 1 -1
BITMAP
8080
8780
8080
8780
FC80
0080
7200
1FC0
7300
4480
7B00
ENDCHAR
STARTCHAR uniB150
ENCODING 45392
BBX 9 11 1 -1
BITMAP
8080
8780
8080
8780
8080
FC80
0000
7F80
4080
4080
7F80
ENDCHAR
STARTCHAR uniB151
ENCODING 45393
BBX 9 11 1 -1
BITMAP
8080
8780
8080
8780
FC80
0080
0000
4080
7F80
4080
7F80
ENDCHAR
STARTCHAR uniB152
ENCODING 45394
BBX 10 11 1 -1
BITMAP
8080
8780
8080
8780
FC80
0080
0000
4900
7900
4A80
7C40
ENDCHAR
STARTCHAR uniB153
ENCODING 45395
BBX 10 11 1 -1
BITMAP
8080
8780
8080
8780
FC80
0080
0080
0400
0400
1B00
60C0
ENDCHAR
STARTCHAR uniB154
ENCODING 45396
BBX 10 11 1 -1
BITMAP
8080
8780
8080
8780
FC80
0080
0000
1100
1100
2A80
C440
ENDCHAR
STARTCHAR uniB155
ENCODING 45397
BBX 9 11 1 -1
BITMAP
8080
8780
8080
8780
FC80
0080
0080
3F00
4080
4080
3F00
ENDCHAR
STARTCHAR uniB156
ENCODING 45398
BBX 9 11 1 -1
BITMAP
8080
8780
8080
8780
FC80
0080
0000
7F80
0C00
1200
6180
ENDCHAR
STARTCHAR uniB157
ENCODING 45399
BBX 9 11 1 -1
BITMAP
8080
8780
8080
8780
FC80
0080
1E00
0000
7F80
0C00
7380
ENDCHAR
STARTCHAR uniB158
ENCODING 45400
BBX 9 11 1 -1
BITMAP
8080
8780
8080
8780
FC80
0080
0000
7F80
0080
7F80
0080
ENDCHAR
STARTCHAR uniB159
ENCODING 45401
BBX 9 11 1 -1
BITMAP
8080
8780
8080
8780
FC80
0080
7F80
4000
7F80
4000
7F80
ENDCHAR
STARTCHAR uniB15A
ENCODING 45402
BBX 9 11 1 -1
BITMAP
8080
8780
8080
8780
FC80
0080
0000
7F80
1200
1200
7F80
ENDCHAR
STARTCHAR uniB15B
ENCODING 45403
BBX 10 11 1 -1
BITMAP
8080
8780
8080
8780
FC80
0080
0400
7FC0
1100
2080
1F00
ENDCHAR
STARTCHAR uniB15C
ENCODING 45404
BBX 9 11 1 -1
BITMAP
8280
8280
8E80
8280
8280
8E80
8280
8280
8280
FA80
0280
ENDCHAR
STARTCHAR uniB15D
ENCODING 45405
BBX 9 11 1 -1
BITMAP
8280
8E80
8280
8E80
FA80
0280
0000
7F80
0080
0080
0080
ENDCHAR
STARTCHAR uniB15E
ENCODING 45406
BBX 9 11 1 -1
BITMAP
8280
8E80
8280
8E80
FA80
0280
0000
F780
1080
1080
1080
ENDCHAR
STARTCHAR uniB15F
ENCODING 45407
BBX 9 11 1 -1
BITMAP
8280
8E80
8280
8E80
FA80
0280
0080
F200
1200
1500
1880
ENDCHAR
STARTCHAR uniB160
ENCODING 45408
BBX 9 11 1 -1
BITMAP
8280
8E80
8280
8E80
8280
FA80
0280
0080
4000
4000
7F80
ENDCHAR
STARTCHAR uniB161
ENCODING 45409
BBX 9 11 1 -1
BITMAP
8280
8E80
8280
8E80
FA80
0280
0000
4F80
4200
4500
7880
ENDCHAR
STARTCHAR uniB162
ENCODING 45410
BBX 10 11 1 -1
BITMAP
8280
8E80
8280
8E80
FA80
0280
0200
4FC0
4300
4480
7B00
ENDCHAR
STARTCHAR uniB163
ENCODING 45411
BBX 9 11 1 -1
BITMAP
8280
8E80
8280
8E80
FA80
0280
0000
7F80
4000
4000
7F80
ENDCHAR
STARTCHAR uniB164
ENCODING 45412
BBX 9 11 1 -1
BITMAP
8280
8E80
8280
8E80
FA80
0280
7F80
0080
7F80
4000
7F80
ENDCHAR
STARTCHAR uniB165
ENCODING 45413
BBX 9 11 1 -1
BITMAP
8280
8E80
8280
8E80
FA80
0280
7F80
0880
7880
4080
7C80
ENDCHAR
STARTCHAR uniB166
ENCODING 45414
BBX 9 11 1 -1
BITMAP
8280
8E80
8280
8E80
FA80
0280
7B80
0A80
7A80
4280
7F80
ENDCHAR
STARTCHAR uniB167
ENCODING 45415
BBX 9 11 1 -1
BITMAP
8280
8E80
8280
8E80
FA80
0280
7A80
0A80
7B80
4280
7F80
ENDCHAR
STARTCHAR uniB168
ENCODING 45416
BBX 10 11 1 -1
BITMAP
8280
8E80
8280
8E80
FA80
0280
7900
0900
7900
4280
7C40
ENDCHAR
STARTCHAR uniB169
ENCODING 45417
BBX 9 11 1 -1
BITMAP
8280
8E80
8280
8E80
FA80
0280
7B80
0A00
7B80
4200
7F80
ENDCHAR
STARTCHAR uniB16A
ENCODING 45418
BBX 10 11 1 -1
BITMAP
8280
8E80
8280
8E80
FA80
0280
7FC0
0A80
7A80
4280
7FC0
ENDCHAR
STARTCHAR uniB16B
ENCODING 45419
BBX 10 11 1 -1
BITMAP
8280
8E80
8280
8E80
FA80
0280
7200
1FC0
7300
4480
7B00
ENDCHAR
STARTCHAR uniB16C
ENCODING 45420
BBX 9 11 1 -1
BITMAP
8280
8E80
8280
8E80
FA80
0280
0000
7F80
4080
4080
7F80
ENDCHAR
STARTCHAR uniB16D
ENCODING 45421
BBX 9 11 1 -1
BITMAP
8280
8E80
8280
8E80
FA80
0280
0000
4080
7F80
4080
7F80
ENDCHAR
STARTCHAR uniB16E
ENCODING 45422
BBX 10 11 1 -1
BITMAP
8280
8E80
8280
8E80
FA80
0280
0000
4900
7900
4A80
7C40
ENDCHAR
STARTCHAR uniB16F
ENCODING 45423
BBX 9 11 1 -1
BITMAP
8280
8E80
8280
8E80
FA80
0280
0080
0800
0800
3600
C180
ENDCHAR
STARTCHAR uniB170
ENCODING 45424
BBX 10 11 1 -1
BITMAP
8280
8E80
8280
8E80
FA80
0280
0000
1100
1100
2A80
C440
ENDCHAR
STARTCHAR uniB171
ENCODING 45425
BBX 9 11 1 -1
BITMAP
8280
8E80
8280
8E80
FA80
0280
0080
3F00
4080
4080
3F00
ENDCHAR
STARTCHAR uniB172
ENCODING 45426
BBX 9 11 1 -1
BITMAP
8280
8E80
8280
8E80
FA80
0280
0000
7F80
0C00
1200
6180
ENDCHAR
STARTCHAR uniB173
ENCODING 45427
BBX 9 11 1 -1
BITMAP
8280
8E80
8280
8E80
FA80
0280
1E00
0000
7F80
0C00
7380
ENDCHAR
STARTCHAR uniB174
ENCODING 45428
BBX 9 11 1 -1
BITMAP
8280
8E80
8280
8E80
FA80
0280
0000
7F80
0080
7F80
0080
ENDCHAR
STARTCHAR uniB175
ENCODING 45429
BBX 9 11 1 -1
BITMAP
8280
8E80
8280
8E80
FA80
0280
7F80
4000
7F80
4000
7F80
ENDCHAR
STARTCHAR uniB176
ENCODING 45430
BBX 9 11 1 -1
BITMAP
8280
8E80
8280
8E80
FA80
0280
0000
7F80
1200
1200
7F80
ENDCHAR
STARTCHAR uniB177
ENCODING 45431
BBX 10 11 1 -1
BITMAP
8280
8E80
8280
8E80
FA80
0280
0800
FFC0
2100
4080
3F00
ENDCHAR
STARTCHAR uniB178
ENCODING 45432
BBX 10 10 1 0
BITMAP
4000
4000
4000
4000
7F80
0400
0400
0400
0400
FFC0
ENDCHAR
STARTCHAR uniB179
ENCODING 45433
BBX 10 11 1 -1
BITMAP
4000
4000
7F80
0400
0400
FFC0
0000
7F80
0080
0080
0080
ENDCHAR
STARTCHAR uniB17A
ENCODING 45434
BBX 10 11 1 -1
BITMAP
4000
4000
7F80
0400
0400
FFC0
0000
7F80
0880
0880
0880
ENDCHAR
STARTCHAR uniB17B
ENCODING 45435
BBX 10 11 1 -1
BITMAP
4000
4000
7F80
0400
0400
FFC0
0000
7900
0900
0A80
0C40
ENDCHAR
STARTCHAR uniB17C
ENCODING 45436
BBX 10 11 1 -1
BITMAP
4000
4000
4000
7F80
0400
0400
FFC0
0000
4000
4000
7F80
ENDCHAR
STARTCHAR uniB17D
ENCODING 45437
BBX 10 11 1 -1
BITMAP
4000
4000
7F80
0400
0400
FFC0
0000
4F80
4200
4500
7880
ENDCHAR
STARTCHAR uniB17E
ENCODING 45438
BBX 10 11 1 -1
BITMAP
4000
4000
7F80
0400
0400
FFC0
0000
4200
4FC0
4480
7B00
ENDCHAR
STARTCHAR uniB17F
ENCODING 45439
BBX 10 11 1 -1
BITMAP
4000
4000
7F80
0400
0400
FFC0
0000
7F80
4000
4000
7F80
ENDCHAR
STARTCHAR uniB180
ENCODING 45440
BBX 10 11 1 -1
BITMAP
4000
4000
7F80
0400
FFC0
0000
7F80
0080
7F80
4000
7F80
ENDCHAR
STARTCHAR uniB181
ENCODING 45441
BBX 10 11 1 -1
BITMAP
4000
4000
7F80
0400
FFC0
0000
7F80
0880
7880
4080
7C80
ENDCHAR
STARTCHAR uniB182
ENCODING 45442
BBX 10 11 1 -1
BITMAP
4000
4000
7F80
0400
FFC0
0000
7B80
0A80
7A80
4280
7F80
ENDCHAR
STARTCHAR uniB183
ENCODING 45443
BBX 10 11 1 -1
BITMAP
4000
4000
7F80
0400
FFC0
0000
7A80
0A80
7B80
4280
7F80
ENDCHAR
STARTCHAR uniB184
ENCODING 45444
BBX 10 11 1 -1
BITMAP
4000
4000
7F80
0400
FFC0
0000
7900
0900
7900
4280
7C40
ENDCHAR
STARTCHAR uniB185
ENCODING 45445
BBX 10 11 1 -1
BITMAP
4000
4000
7F80
0400
FFC0
0000
7B80
0A00
7B80
4200
7F80
ENDCHAR
STARTCHAR uniB186
ENCODING 45446
BBX 10 11 1 -1
BITMAP
4000
4000
7F80
0400
FFC0
0000
7FC0
0A80
7A80
4280
7FC0
ENDCHAR
STARTCHAR uniB187
ENCODING 45447
BBX 10 11 1 -1
BITMAP
4000
4000
7F80
0400
FFC0
0000
7B00
0800
7FC0
4480
7B00
ENDCHAR
STARTCHAR uniB188
ENCODING 45448
BBX 10 11 1 -1
BITMAP
4000
4000
7F80
0400
0400
FFC0
0000
7F80
4080
4080
7F80
ENDCHAR
STARTCHAR uniB189
ENCODING 45449
BBX 10 11 1 -1
BITMAP
4000
4000
7F80
0400
0400
FFC0
0000
4080
7F80
4080
7F80
ENDCHAR
STARTCHAR uniB18A
ENCODING 45450
BBX 10 11 1 -1
BITMAP
4000
4000
7F80
0400
0400
FFC0
0000
4900
7900
4A80
7C40
ENDCHAR
STARTCHAR uniB18B
ENCODING 45451
BBX 10 11 1 -1
BITMAP
4000
4000
7F80
0400
0400
FFC0
0000
0400
0C00
1200
6180
ENDCHAR
STARTCHAR uniB18C
ENCODING 45452
BBX 10 11 1 -1
BITMAP
4000
4000
7F80
0400
0400
FFC0
0000
1100
1100
2A80
C440
ENDCHAR
STARTCHAR uniB18D
ENCODING 45453
BBX 10 11 1 -1
BITMAP
4000
4000
7F80
0400
0400
FFC0
0000
3F00
4080
4080
3F00
ENDCHAR
STARTCHAR uniB18E
ENCODING 45454
BBX 10 11 1 -1
BITMAP
4000
4000
7F80
0400
0400
FFC0
0000
7F80
0C00
1200
6180
ENDCHAR
STARTCHAR uniB18F
ENCODING 45455
BBX 10 11 1 -1
BITMAP
4000
4000
7F80
0400
FFC0
0000
1E00
0000
7F80
0C00
7380
ENDCHAR
STARTCHAR uniB190
ENCODING 45456
BBX 10 11 1 -1
BITMAP
4000
4000
7F80
0400
FFC0
0000
0000
7F80
0080
7F80
0080
ENDCHAR
STARTCHAR uniB191
ENCODING 45457
BBX 10 11 1 -1
BITMAP
4000
4000
7F80
0400
FFC0
0000
7F80
4000
7F80
4000
7F80
ENDCHAR
STARTCHAR uniB192
ENCODING 45458
BBX 10 11 1 -1
BITMAP
4000
4000
7F80
0400
0400
FFC0
0000
7F80
1200
1200
7F80
ENDCHAR
STARTCHAR uniB193
ENCODING 45459
BBX 10 11 1 -1
BITMAP
4000
4000
7F80
0400
FFC0
0000
1E00
0000
FFC0
2100
1E00
ENDCHAR
STARTCHAR uniB194
ENCODING 45460
BBX 11 11 1 -1
BITMAP
4080
4080
4080
4080
7E80
00E0
1080
1080
1080
FE80
0080
ENDCHAR
STARTCHAR uniB195
ENCODING 45461
BBX 11 11 1 -1
BITMAP
4080
4080
7E80
10E0
1080
FE80
0080
0000
7F80
0080
0080
ENDCHAR
STARTCHAR uniB196
ENCODING 45462
BBX 11 11 1 -1
BITMAP
4080
4080
7E80
10E0
1080
FE80
0080
0000
F780
1080
1080
ENDCHAR
STARTCHAR uniB197
ENCODING 45463
BBX 11 11 1 -1
BITMAP
4080
4080
7E80
10E0
1080
FE80
0080
0000
7900
0900
0EC0
ENDCHAR
STARTCHAR uniB198
ENCODING 45464
BBX 11 11 1 -1
BITMAP
4080
4080
4080
7EE0
1080
1080
FE80
0080
4000
4000
7F80
ENDCHAR
STARTCHAR uniB199
ENCODING 45465
BBX 11 11 1 -1
BITMAP
4080
4080
7E80
10E0
1080
FE80
0080
0000
4F80
4200
7D80
ENDCHAR
STARTCHAR uniB19A
ENCODING 45466
BBX 11 11 1 -1
BITMAP
4080
4080
7E80
10E0
1080
FE80
0000
0200
4FC0
4480
7B00
ENDCHAR
STARTCHAR uniB19B
ENCODING 45467
BBX 11 11 1 -1
BITMAP
4080
4080
7E80
10E0
1080
FE80
0000
7F80
4000
4000
7F80
ENDCHAR
STARTCHAR uniB19C
ENCODING 45468
BBX 11 11 1 -1
BITMAP
4080
4080
7E80
10E0
FE80
0080
7F80
0080
7F80
4000
7F80
ENDCHAR
STARTCHAR uniB19D
ENCODING 45469
BBX 11 11 1 -1
BITMAP
4080
4080
7E80
10E0
FE80
0080
7F80
0880
7880
4080
7C80
ENDCHAR
STARTCHAR uniB19E
ENCODING 45470
BBX 11 11 1 -1
BITMAP
4080
4080
7E80
10E0
FE80
0080
7B80
0A80
7A80
4280
7F80
ENDCHAR
STARTCHAR uniB19F
ENCODING 45471
BBX 11 11 1 -1
BITMAP
4080
4080
7E80
10E0
FE80
0080
7A80
0A80
7B80
4280
7F80
ENDCHAR
STARTCHAR uniB1A0
ENCODING 45472
BBX 11 11 1 -1
BITMAP
4080
4080
7E80
10E0
FE80
0080
7900
0900
7900
4280
7C40
ENDCHAR
STARTCHAR uniB1A1
ENCODING 45473
BBX 11 11 1 -1
BITMAP
4080
4080
7E80
10E0
FE80
0080
7B80
0A00
7B80
4200
7F80
ENDCHAR
STARTCHAR uniB1A2
ENCODING 45474
BBX 11 11 1 -1
BITMAP
4080
4080
7E80
10E0
FE80
0080
7FC0
0A80
7A80
4280
7FC0
ENDCHAR
STARTCHAR uniB1A3
ENCODING 45475
BBX 11 11 1 -1
BITMAP
4080
4080
7E80
10E0
FE80
0080
7200
1FC0
7300
4480
7B00
ENDCHAR
STARTCHAR uniB1A4
ENCODING 45476
BBX 11 11 1 -1
BITMAP
4080
4080
7E80
10E0
1080
FE80
0080
0000
7F80
4080
7F80
ENDCHAR
STARTCHAR uniB1A5
ENCODING 45477
BBX 11 11 1 -1
BITMAP
4080
4080
7E80
10E0
1080
FE80
0000
4080
7F80
4080
7F80
ENDCHAR
STARTCHAR uniB1A6
ENCODING 45478
BBX 11 11 1 -1
BITMAP
4080
4080
7E80
10E0
1080
FE80
0000
4900
7900
4A80
7C40
ENDCHAR
STARTCHAR uniB1A7
ENCODING 45479
BBX 11 11 1 -1
BITMAP
4080
4080
7E80
10E0
1080
FE80
0080
0800
0800
3600
C180
ENDCHAR
STARTCHAR uniB1A8
ENCODING 45480
BBX 11 11 1 -1
BITMAP
4080
4080
7E80
10E0
1080
FE80
0000
1100
1100
2A80
C440
ENDCHAR
STARTCHAR uniB1A9
ENCODING 45481
BBX 11 11 1 -1
BITMAP
4080
4080
7E80
10E0
1080
FE80
0080
3F00
4080
4080
3F00
ENDCHAR
STARTCHAR uniB1AA
ENCODING 45482
BBX 11 11 1 -1
BITMAP
4080
4080
7E80
10E0
1080
FE80
0000
0000
7F80
0C00
7380
ENDCHAR
STARTCHAR uniB1AB
ENCODING 45483
BBX 11 11 1 -1
BITMAP
4080
4080
7E80
10E0
FE80
0080
1E00
0000
7F80
0C00
7380
ENDCHAR
STARTCHAR uniB1AC
ENCODING 45484
BBX 11 11 1 -1
BITMAP
4080
4080
7E80
10E0
FE80
0080
0000
7F80
0080
7F80
0080
ENDCHAR
STARTCHAR uniB1AD
ENCODING 45485
BBX 11 11 1 -1
BITMAP
4080
4080
7E80
10E0
FE80
0080
7F80
4000
7F80
4000
7F80
ENDCHAR
STARTCHAR uniB1AE
ENCODING 45486
BBX 11 11 1 -1
BITMAP
4080
4080
7E80
10E0
1080
FE80
0000
7F80
1200
1200
7F80
ENDCHAR
STARTCHAR uniB1AF
ENCODING 45487
BBX 11 11 1 -1
BITMAP
4080
4080
7E80
10E0
FE80
0080
0400
7FC0
1100
2080
1F00
ENDCHAR
STARTCHAR uniB1B0
ENCODING 45488
BBX 9 11 1 -1
BITMAP
8280
8280
8280
8280
FA80
0380
2280
2280
2280
FE80
0280
ENDCHAR
STARTCHAR uniB1B1
ENCODING 45489
BBX 9 11 1 -1
BITMAP
8280
8280
FA80
2380
2280
FE80
0280
0000
7F80
0080
0080
ENDCHAR
STARTCHAR uniB1B2
ENCODING 45490
BBX 9 11 1 -1
BITMAP
8280
8280
FA80
2380
2280
FE80
0080
0000
F780
1080
1080
ENDCHAR
STARTCHAR uniB1B3
ENCODING 45491
BBX 9 11 1 -1
BITMAP
8280
8280
FA80
2380
2280
FE80
0080
0000
F200
1200
1D80
ENDCHAR
STARTCHAR uniB1B4
ENCODING 45492
BBX 9 11 1 -1
BITMAP
8280
8280
FA80
0380
2280
2280
FE80
0280
4000
4000
7F80
ENDCHAR
STARTCHAR uniB1B5
ENCODING 45493
BBX 9 11 1 -1
BITMAP
8280
8280
FA80
2380
2280
FE80
0080
0000
4F80
4200
7D80
ENDCHAR
STARTCHAR uniB1B6
ENCODING 45494
BBX 10 11 1 -1
BITMAP
8280
8280
FA80
2380
2280
FE80
0000
0200
4FC0
4480
7B00
ENDCHAR
STARTCHAR uniB1B7
ENCODING 45495
BBX 9 11 1 -1
BITMAP
8280
8280
FA80
2380
2280
FE80
0000
7F80
4000
4000
7F80
ENDCHAR
STARTCHAR uniB1B8
ENCODING 45496
BBX 9 11 1 -1
BITMAP
8280
8280
FB80
2280
FE80
0080
7F80
0080
7F80
4000
7F80
ENDCHAR
STARTCHAR uniB1B9
ENCODING 45497
BBX 9 11 1 -1
BITMAP
8280
8280
FB80
2280
FE80
0080
7F80
0880
7880
4080
7C80
ENDCHAR
STARTCHAR uniB1BA
ENCODING 45498
BBX 9 11 1 -1
BITMAP
8280
8280
FB80
2280
FE80
0080
7B80
0A80
7A80
4280
7F80
ENDCHAR
STARTCHAR uniB1BB
ENCODING 45499
BBX 9 11 1 -1
BITMAP
8280
8280
FB80
2280
FE80
0080
7A80
0A80
7B80
4280
7F80
ENDCHAR
STARTCHAR uniB1BC
ENCODING 45500
BBX 10 11 1 -1
BITMAP
8280
8280
FB80
2280
FE80
0080
7900
0900
7900
4280
7C40
ENDCHAR
STARTCHAR uniB1BD
ENCODING 45501
BBX 9 11 1 -1
BITMAP
8280
8280
FB80
2280
FE80
0080
7B80
0A00
7B80
4200
7F80
ENDCHAR
STARTCHAR uniB1BE
ENCODING 45502
BBX 10 11 1 -1
BITMAP
8280
8280
FB80
2280
FE80
0080
7FC0
0A80
7A80
4280
7FC0
ENDCHAR
STARTCHAR uniB1BF
ENCODING 45503
BBX 10 11 1 -1
BITMAP
8280
8280
FB80
2280
FE80
0080
7200
1FC0
7300
4480
7B00
ENDCHAR
STARTCHAR uniB1C0
ENCODING 45504
BBX 9 11 1 -1
BITMAP
8280
8280
FA80
2380
2280
FE80
0080
0000
7F80
4080
7F80
ENDCHAR
STARTCHAR uniB1C1
ENCODING 45505
BBX 9 11 1 -1
BITMAP
8280
8280
FA80
2380
2280
FE80
0000
4080
7F80
4080
7F80
ENDCHAR
STARTCHAR uniB1C2
ENCODING 45506
BBX 10 11 1 -1
BITMAP
8280
8280
FA80
2380
2280
FE80
0000
4900
7900
4A80
7C40
ENDCHAR
STARTCHAR uniB1C3
ENCODING 45507
BBX 10 11 1 -1
BITMAP
8280
8280
FA80
2380
2280
FE80
0080
0400
0400
1B00
60C0
ENDCHAR
STARTCHAR uniB1C4
ENCODING 45508
BBX 10 11 1 -1
BITMAP
8280
8280
FA80
2380
2280
FE80
0000
1100
1100
2A80
C440
ENDCHAR
STARTCHAR uniB1C5
ENCODING 45509
BBX 9 11 1 -1
BITMAP
8280
8280
FA80
2380
2280
FE80
0080
3F00
4080
4080
3F00
ENDCHAR
STARTCHAR uniB1C6
ENCODING 45510
BBX 9 11 1 -1
BITMAP
8280
8280
FA80
2380
2280
FE80
0000
0000
7F80
0C00
7380
ENDCHAR
STARTCHAR uniB1C7
ENCODING 45511
BBX 9 11 1 -1
BITMAP
8280
8280
FB80
2280
FE80
0080
1E00
0000
7F80
0C00
7380
ENDCHAR
STARTCHAR uniB1C8
ENCODING 45512
BBX 9 11 1 -1
BITMAP
8280
8280
FB80
2280
FE80
0080
0000
7F80
0080
7F80
0080
ENDCHAR
STARTCHAR uniB1C9
ENCODING 45513
BBX 9 11 1 -1
BITMAP
8280
8280
FB80
2280
FE80
0080
7F80
4000
7F80
4000
7F80
ENDCHAR
STARTCHAR uniB1CA
ENCODING 45514
BBX 9 11 1 -1
BITMAP
8280
8280
FA80
2380
2280
FE80
0000
7F80
1200
1200
7F80
ENDCHAR
STARTCHAR uniB1CB
ENCODING 45515
BBX 10 11 1 -1
BITMAP
8280
8280
FB80
2280
FE80
0080
0400
7FC0
1100
2080
1F00
ENDCHAR
STARTCHAR uniB1CC
ENCODING 45516
BBX 9 11 1 -1
BITMAP
4080
4080
4080
4080
7E80
0080
1080
1080
1080
FE80
0080
ENDCHAR
STARTCHAR uniB1CD
ENCODING 45517
BBX 9 11 1 -1
BITMAP
4080
4080
7E80
1080
1080
FE80
0080
0000
7F80
0080
0080
ENDCHAR
STARTCHAR uniB1CE
ENCODING 45518
BBX 9 11 1 -1
BITMAP
4080
4080
7E80
1080
1080
FE80
0080
0000
F780
1080
1080
ENDCHAR
STARTCHAR uniB1CF
ENCODING 45519
BBX 10 11 1 -1
BITMAP
4080
4080
7E80
1080
1080
FE80
0080
0000
7900
0900
0EC0
ENDCHAR
STARTCHAR uniB1D0
ENCODING 45520
BBX 9 11 1 -1
BITMAP
4080
4080
4080
7E80
1080
1080
FE80
0080
4000
4000
7F80
ENDCHAR
STARTCHAR uniB1D1
ENCODING 45521
BBX 9 11 1 -1
BITMAP
4080
4080
7E80
1080
1080
FE80
0080
0000
4F80
4200
7D80
ENDCHAR
STARTCHAR uniB1D2
ENCODING 45522
BBX 10 11 1 -1
BITMAP
4080
4080
7E80
1080
1080
FE80
0000
0200
4FC0
4480
7B00
ENDCHAR
STARTCHAR uniB1D3
ENCODING 45523
BBX 9 11 1 -1
BITMAP
4080
4080
7E80
1080
1080
FE80
0000
7F80
4000
4000
7F80
ENDCHAR
STARTCHAR uniB1D4
ENCODING 45524
BBX 9 11 1 -1
BITMAP
4080
4080
7E80
1080
FE80
0080
7F80
0080
7F80
4000
7F80
ENDCHAR
STARTCHAR uniB1D5
ENCODING 45525
BBX 9 11 1 -1
BITMAP
4080
4080
7E80
1080
FE80
0080
7F80
0880
7880
4080
7C80
ENDCHAR
STARTCHAR uniB1D6
ENCODING 45526
BBX 9 11 1 -1
BITMAP
4080
4080
7E80
1080
FE80
0080
7B80
0A80
7A80
4280
7F80
ENDCHAR
STARTCHAR uniB1D7
ENCODING 45527
BBX 9 11 1 -1
BITMAP
4080
4080
7E80
1080
FE80
0080
7A80
0A80
7B80
4280
7F80
ENDCHAR
STARTCHAR uniB1D8
ENCODING 45528
BBX 10 11 1 -1
BITMAP
4080
4080
7E80
1080
FE80
0080
7900
0900
7900
4280
7C40
ENDCHAR
STARTCHAR uniB1D9
ENCODING 45529
BBX 9 11 1 -1
BITMAP
4080
4080
7E80
1080
FE80
0080
7B80
0A00
7B80
4200
7F80
ENDCHAR
STARTCHAR uniB1DA
ENCODING 45530
BBX 10 11 1 -1
BITMAP
4080
4080
7E80
1080
FE80
0080
7FC0
0A80
7A80
4280
7FC0
ENDCHAR
STARTCHAR uniB1DB
ENCODING 45531
BBX 10 11 1 -1
BITMAP
4080
4080
7E80
1080
FE80
0080
7200
1FC0
7300
4480
7B00
ENDCHAR
STARTCHAR uniB1DC
ENCODING 45532
BBX 9 11 1 -1
BITMAP
4080
4080
7E80
1080
1080
FE80
0080
0000
7F80
4080
7F80
ENDCHAR
STARTCHAR uniB1DD
ENCODING 45533
BBX 9 11 1 -1
BITMAP
4080
4080
7E80
1080
1080
FE80
0000
4080
7F80
4080
7F80
ENDCHAR
STARTCHAR uniB1DE
ENCODING 45534
BBX 10 11 1 -1
BITMAP
4080
4080
7E80
1080
1080
FE80
0000
4900
7900
4A80
7C40
ENDCHAR
STARTCHAR uniB1DF
ENCODING 45535
BBX 9 11 1 -1
BITMAP
4080
4080
7E80
1080
1080
FE80
0080
0800
0800
3600
C180
ENDCHAR
STARTCHAR uniB1E0
ENCODING 45536
BBX 10 11 1 -1
BITMAP
4080
4080
7E80
1080
1080
FE80
0000
1100
1100
2A80
C440
ENDCHAR
STARTCHAR uniB1E1
ENCODING 45537
BBX 9 11 1 -1
BITMAP
4080
4080
7E80
1080
1080
FE80
0080
3F00
4080
4080
3F00
ENDCHAR
STARTCHAR uniB1E2
ENCODING 45538
BBX 9 11 1 -1
BITMAP
4080
4080
7E80
1080
1080
FE80
0000
0000
7F80
0C00
7380
ENDCHAR
STARTCHAR uniB1E3
ENCODING 45539
BBX 9 11 1 -1
BITMAP
4080
4080
7E80
1080
FE80
0080
1E00
0000
7F80
0C00
7380
ENDCHAR
STARTCHAR uniB1E4
ENCODING 45540
BBX 9 11 1 -1
BITMAP
4080
4080
7E80
1080
FE80
0080
0000
7F80
0080
7F80
0080
ENDCHAR
STARTCHAR uniB1E5
ENCODING 45541
BBX 9 11 1 -1
BITMAP
4080
4080
7E80
1080
FE80
0080
7F80
4000
7F80
4000
7F80
ENDCHAR
STARTCHAR uniB1E6
ENCODING 45542
BBX 9 11 1 -1
BITMAP
4080
4080
7E80
1080
1080
FE80
0000
7F80
1200
1200
7F80
ENDCHAR
STARTCHAR uniB1E7
ENCODING 45543
BBX 10 11 1 -1
BITMAP
4080
4080
7E80
1080
FE80
0080
0400
7FC0
1100
2080
1F00
ENDCHAR
STARTCHAR uniB1E8
ENCODING 45544
BBX 10 10 1 0
BITMAP
4000
4000
4000
4000
7F80
0000
1200
1200
1200
FFC0
ENDCHAR
STARTCHAR uniB1E9
ENCODING 45545
BBX 10 11 1 -1
BITMAP
4000
4000
7F80
1200
1200
FFC0
0000
7F80
0080
0080
0080
ENDCHAR
STARTCHAR uniB1EA
ENCODING 45546
BBX 10 11 1 -1
BITMAP
4000
4000
7F80
1200
1200
FFC0
0000
7F80
0880
0880
0880
ENDCHAR
STARTCHAR uniB1EB
ENCODING 45547
BBX 10 11 1 -1
BITMAP
4000
4000
7F80
1200
1200
FFC0
0000
7900
0900
0A80
0C40
ENDCHAR
STARTCHAR uniB1EC
ENCODING 45548
BBX 10 11 1 -1
BITMAP
4000
4000
4000
7F80
1200
1200
FFC0
0000
4000
4000
7F80
ENDCHAR
STARTCHAR uniB1ED
ENCODING 45549
BBX 10 11 1 -1
BITMAP
4000
4000
7F80
1200
1200
FFC0
0000
4F80
4200
4500
7880
ENDCHAR
STARTCHAR uniB1EE
ENCODING 45550
BBX 10 11 1 -1
BITMAP
4000
4000
7F80
1200
1200
FFC0
0000
4200
4FC0
4480
7B00
ENDCHAR
STARTCHAR uniB1EF
ENCODING 45551
BBX 10 11 1 -1
BITMAP
4000
4000
7F80
1200
1200
FFC0
0000
7F80
4000
4000
7F80
ENDCHAR
STARTCHAR uniB1F0
ENCODING 45552
BBX 10 11 1 -1
BITMAP
4000
4000
7F80
1200
FFC0
0000
7F80
0080
7F80
4000
7F80
ENDCHAR
STARTCHAR uniB1F1
ENCODING 45553
BBX 10 11 1 -1
BITMAP
4000
4000
7F80
1200
FFC0
0000
7F80
0880
7880
4080
7C80
ENDCHAR
STARTCHAR uniB1F2
ENCODING 45554
BBX 10 11 1 -1
BITMAP
4000
4000
7F80
1200
FFC0
0000
7B80
0A80
7A80
4280
7F80
ENDCHAR
STARTCHAR uniB1F3
ENCODING 45555
BBX 10 11 1 -1
BITMAP
4000
4000
7F80
1200
FFC0
0000
7A80
0A80
7B80
4280
7F80
ENDCHAR
STARTCHAR uniB1F4
ENCODING 45556
BBX 10 11 1 -1
BITMAP
4000
4000
7F80
1200
FFC0
0000
7900
0900
7900
4280
7C40
ENDCHAR
STARTCHAR uniB1F5
ENCODING 45557
BBX 10 11 1 -1
BITMAP
4000
4000
7F80
1200
FFC0
0000
7B80
0A00
7B80
4200
7F80
ENDCHAR
STARTCHAR uniB1F6
ENCODING 45558
BBX 10 11 1 -1
BITMAP
4000
4000
7F80
1200
FFC0
0000
7FC0
0A80
7A80
4280
7FC0
ENDCHAR
STARTCHAR uniB1F7
ENCODING 45559
BBX 10 11 1 -1
BITMAP
4000
4000
7F80
1200
FFC0
0000
7B00
0800
7FC0
4480
7B00
ENDCHAR
STARTCHAR uniB1F8
ENCODING 45560
BBX 10 11 1 -1
BITMAP
4000
4000
7F80
1200
1200
FFC0
0000
7F80
4080
4080
7F80
ENDCHAR
STARTCHAR uniB1F9
ENCODING 45561
BBX 10 11 1 -1
BITMAP
4000
4000
7F80
1200
1200
FFC0
0000
4080
7F80
4080
7F80
ENDCHAR
STARTCHAR uniB1FA
ENCODING 45562
BBX 10 11 1 -1
BITMAP
4000
4000
7F80
1200
1200
FFC0
0000
4900
7900
4A80
7C40
ENDCHAR
STARTCHAR uniB1FB
ENCODING 45563
BBX 10 11 1 -1
BITMAP
4000
4000
7F80
1200
1200
FFC0
0000
0400
0C00
1200
6180
ENDCHAR
STARTCHAR uniB1FC
ENCODING 45564
BBX 10 11 1 -1
BITMAP
4000
4000
7F80
1200
1200
FFC0
0000
1100
1100
2A80
C440
ENDCHAR
STARTCHAR uniB1FD
ENCODING 45565
BBX 10 11 1 -1
BITMAP
4000
4000
7F80
1200
1200
FFC0
0000
3F00
4080
4080
3F00
ENDCHAR
STARTCHAR uniB1FE
ENCODING 45566
BBX 10 11 1 -1
BITMAP
4000
4000
7F80
1200
1200
FFC0
0000
7F80
0C00
1200
6180
ENDCHAR
STARTCHAR uniB1FF
ENCODING 45567
BBX 10 11 1 -1
BITMAP
4000
4000
7F80
1200
FFC0
0000
1E00
0000
7F80
0C00
7380
ENDCHAR
STARTCHAR uniB200
ENCODING 45568
BBX 10 11 1 -1
BITMAP
4000
4000
7F80
1200
FFC0
0000
0000
7F80
0080
7F80
0080
ENDCHAR
STARTCHAR uniB201
ENCODING 45569
BBX 10 11 1 -1
BITMAP
4000
4000
7F80
1200
FFC0
0000
7F80
4000
7F80
4000
7F80
ENDCHAR
STARTCHAR uniB202
ENCODING 45570
BBX 10 11 1 -1
BITMAP
4000
4000
7F80
1200
1200
FFC0
0000
7F80
1200
1200
7F80
ENDCHAR
STARTCHAR uniB203
ENCODING 45571
BBX 10 11 1 -1
BITMAP
4000
4000
7F80
1200
FFC0
0000
0400
FFC0
1200
2100
1E00
ENDCHAR
STARTCHAR uniB204
ENCODING 45572
BBX 10 11 1 -1
BITMAP
4000
4000
4000
7F80
0000
0000
FFC0
0400
0400
0400
0400
ENDCHAR
STARTCHAR uniB205
ENCODING 45573
BBX 10 11 1 -1
BITMAP
4000
4000
7F80
0000
FFC0
0400
0400
7F80
0080
0080
0080
ENDCHAR
STARTCHAR uniB206
ENCODING 45574
BBX 10 11 1 -1
BITMAP
4000
4000
7F80
0000
FFC0
0400
0400
7F80
0880
0880
0880
ENDCHAR
STARTCHAR uniB207
ENCODING 45575
BBX 10 11 1 -1
BITMAP
4000
4000
7F80
0000
FFC0
0400
0400
7900
0900
0A80
0C40
ENDCHAR
STARTCHAR uniB208
ENCODING 45576
BBX 10 11 1 -1
BITMAP
4000
4000
7F80
0000
0000
FFC0
0400
0400
4400
4000
7F80
ENDCHAR
STARTCHAR uniB209
ENCODING 45577
BBX 10 11 1 -1
BITMAP
4000
4000
7F80
0000
FFC0
0400
0400
4F80
4200
4500
7880
ENDCHAR
STARTCHAR uniB20A
ENCODING 45578
BBX 10 11 1 -1
BITMAP
4000
4000
7F80
0000
FFC0
0400
0400
4200
4FC0
4480
7B00
ENDCHAR
STARTCHAR uniB20B
ENCODING 45579
BBX 10 11 1 -1
BITMAP
4000
4000
7F80
0000
FFC0
0400
0400
7F80
4000
4000
7F80
ENDCHAR
STARTCHAR uniB20C
ENCODING 45580
BBX 10 11 1 -1
BITMAP
4000
4000
7F80
0000
FFC0
0400
7F80
0080
7F80
4000
7F80
ENDCHAR
STARTCHAR uniB20D
ENCODING 45581
BBX 10 11 1 -1
BITMAP
4000
4000
7F80
0000
FFC0
0400
7F80
0880
7880
4080
7C80
ENDCHAR
STARTCHAR uniB20E
ENCODING 45582
BBX 10 11 1 -1
BITMAP
4000
4000
7F80
0000
FFC0
0400
7F80
0A80
7A80
4280
7F80
ENDCHAR
STARTCHAR uniB20F
ENCODING 45583
BBX 10 11 1 -1
BITMAP
4000
4000
7F80
0000
FFC0
0400
7E80
0A80
7B80
4280
7F80
ENDCHAR
STARTCHAR uniB210
ENCODING 45584
BBX 10 11 1 -1
BITMAP
4000
4000
7F80
0000
FFC0
0400
7D00
0900
7900
4280
7C40
ENDCHAR
STARTCHAR uniB211
ENCODING 45585
BBX 10 11 1 -1
BITMAP
4000
4000
7F80
0000
FFC0
0400
7F80
0A00
7B80
4200
7F80
ENDCHAR
STARTCHAR uniB212
ENCODING 45586
BBX 10 11 1 -1
BITMAP
4000
4000
7F80
0000
FFC0
0400
7FC0
0A80
7A80
4280
7FC0
ENDCHAR
STARTCHAR uniB213
ENCODING 45587
BBX 10 11 1 -1
BITMAP
4000
4000
7F80
0000
FFC0
0400
7F00
0800
7FC0
4480
7B00
ENDCHAR
STARTCHAR uniB214
ENCODING 45588
BBX 10 11 1 -1
BITMAP
4000
4000
7F80
0000
FFC0
0400
0400
7F80
4080
4080
7F80
ENDCHAR
STARTCHAR uniB215
ENCODING 45589
BBX 10 11 1 -1
BITMAP
4000
4000
7F80
0000
FFC0
0400
0400
4080
7F80
4080
7F80
ENDCHAR
STARTCHAR uniB216
ENCODING 45590
BBX 10 11 1 -1
BITMAP
4000
4000
7F80
0000
FFC0
0400
0400
4900
7900
4A80
7C40
ENDCHAR
STARTCHAR uniB217
ENCODING 45591
BBX 10 11 1 -1
BITMAP
4000
4000
7F80
0000
FFC0
0400
0400
0000
0C00
1200
6180
ENDCHAR
STARTCHAR uniB218
ENCODING 45592
BBX 10 11 1 -1
BITMAP
4000
4000
7F80
0000
FFC0
0400
0400
1100
1100
2A80
C440
ENDCHAR
STARTCHAR uniB219
ENCODING 45593
BBX 10 11 1 -1
BITMAP
4000
4000
7F80
0000
FFC0
0400
0400
3F00
4080
4080
3F00
ENDCHAR
STARTCHAR uniB21A
ENCODING 45594
BBX 10 11 1 -1
BITMAP
4000
4000
7F80
0000
FFC0
0400
0400
7F80
0C00
1200
6180
ENDCHAR
STARTCHAR uniB21B
ENCODING 45595
BBX 10 11 1 -1
BITMAP
4000
4000
7F80
0000
FFC0
0400
1E00
0000
7F80
0C00
7380
ENDCHAR
STARTCHAR uniB21C
ENCODING 45596
BBX 10 11 1 -1
BITMAP
4000
4000
7F80
0000
FFC0
0400
0400
7F80
0080
7F80
0080
ENDCHAR
STARTCHAR uniB21D
ENCODING 45597
BBX 10 11 1 -1
BITMAP
4000
4000
7F80
0000
FFC0
0400
7F80
4000
7F80
4000
7F80
ENDCHAR
STARTCHAR uniB21E
ENCODING 45598
BBX 10 11 1 -1
BITMAP
4000
4000
7F80
0000
FFC0
0400
0400
7F80
1200
1200
7F80
ENDCHAR
STARTCHAR uniB21F
ENCODING 45599
BBX 10 11 1 -1
BITMAP
4000
4000
7F80
0000
FFC0
0400
1E00
0000
FFC0
2100
1E00
ENDCHAR
STARTCHAR uniB220
ENCODING 45600
BBX 9 11 1 -1
BITMAP
4080
4080
4080
7E80
0080
FE80
1080
1780
1080
2080
0080
ENDCHAR
STARTCHAR uniB221
ENCODING 45601
BBX 9 11 1 -1
BITMAP
4080
4380
7E80
0080
FE80
1080
1080
0000
7F80
0080
0080
ENDCHAR
STARTCHAR uniB222
ENCODING 45602
BBX 9 11 1 -1
BITMAP
4080
4380
7E80
0080
FE80
1080
1080
0000
F780
1080
1080
ENDCHAR
STARTCHAR uniB223
ENCODING 45603
BBX 9 11 1 -1
BITMAP
4080
4380
7E80
0080
FE80
1080
1080
0000
F200
1200
1D80
ENDCHAR
STARTCHAR uniB224
ENCODING 45604
BBX 9 11 1 -1
BITMAP
4080
4080
4080
7E80
0080
FE80
1080
1380
4080
4000
7F80
ENDCHAR
STARTCHAR uniB225
ENCODING 45605
BBX 9 11 1 -1
BITMAP
4080
4380
7E80
0080
FE80
1080
1080
0000
4F80
4200
7D80
ENDCHAR
STARTCHAR uniB226
ENCODING 45606
BBX 10 11 1 -1
BITMAP
4080
4380
7E80
0080
FE80
1080
1000
0200
4FC0
4480
7B00
ENDCHAR
STARTCHAR uniB227
ENCODING 45607
BBX 9 11 1 -1
BITMAP
4080
4380
7E80
0080
FE80
1080
1000
7F80
4000
4000
7F80
ENDCHAR
STARTCHAR uniB228
ENCODING 45608
BBX 9 11 1 -1
BITMAP
4080
4380
7E80
0080
FE80
1080
7F80
0080
7F80
4000
7F80
ENDCHAR
STARTCHAR uniB229
ENCODING 45609
BBX 9 11 1 -1
BITMAP
4080
4380
7E80
0080
FE80
1080
7F80
0880
7880
4080
7C80
ENDCHAR
STARTCHAR uniB22A
ENCODING 45610
BBX 9 11 1 -1
BITMAP
4080
4380
7E80
0080
FE80
1080
7B80
0A80
7A80
4280
7F80
ENDCHAR
STARTCHAR uniB22B
ENCODING 45611
BBX 9 11 1 -1
BITMAP
4080
4380
7E80
0080
FE80
1080
7A80
0A80
7B80
4280
7F80
ENDCHAR
STARTCHAR uniB22C
ENCODING 45612
BBX 10 11 1 -1
BITMAP
4080
4380
7E80
0080
FE80
1080
7900
0900
7900
4280
7C40
ENDCHAR
STARTCHAR uniB22D
ENCODING 45613
BBX 9 11 1 -1
BITMAP
4080
4380
7E80
0080
FE80
1080
7B80
0A00
7B80
4200
7F80
ENDCHAR
STARTCHAR uniB22E
ENCODING 45614
BBX 10 11 1 -1
BITMAP
4080
4380
7E80
0080
FE80
1080
7FC0
0A80
7A80
4280
7FC0
ENDCHAR
STARTCHAR uniB22F
ENCODING 45615
BBX 10 11 1 -1
BITMAP
4080
4380
7E80
0080
FE80
1080
7200
1FC0
7300
4480
7B00
ENDCHAR
STARTCHAR uniB230
ENCODING 45616
BBX 9 11 1 -1
BITMAP
4080
4380
7E80
0080
FE80
1080
1080
0000
7F80
4080
7F80
ENDCHAR
STARTCHAR uniB231
ENCODING 45617
BBX 9 11 1 -1
BITMAP
4080
4380
7E80
0080
FE80
1080
1000
4080
7F80
4080
7F80
ENDCHAR
STARTCHAR uniB232
ENCODING 45618
BBX 10 11 1 -1
BITMAP
4080
4380
7E80
0080
FE80
1080
1000
4900
7900
4A80
7C40
ENDCHAR
STARTCHAR uniB233
ENCODING 45619
BBX 9 11 1 -1
BITMAP
4080
4380
7E80
0080
FE80
1080
1080
0000
0800
3600
C180
ENDCHAR
STARTCHAR uniB234
ENCODING 45620
BBX 10 11 1 -1
BITMAP
4080
4380
7E80
0080
FE80
1080
1000
1100
1100
2A80
C440
ENDCHAR
STARTCHAR uniB235
ENCODING 45621
BBX 9 11 1 -1
BITMAP
4080
4380
7E80
0080
FE80
1080
1080
3F00
4080
4080
3F00
ENDCHAR
STARTCHAR uniB236
ENCODING 45622
BBX 9 11 1 -1
BITMAP
4080
4380
7E80
0080
FE80
1080
1000
0000
7F80
0C00
7380
ENDCHAR
ENDFONT
